RecursiveSans-StrictRegularItalic.ufo
<glyph name="exclam" format="1">
  <advance width="350"/>
  <unicode hex="0021"/>
  <outline>
    <contour>
      <point x="205" y="256" type="line"/>
      <point x="232" y="338"/>
      <point x="259" y="420"/>
      <point x="286" y="502" type="curve"/>
      <point x="333" y="689" type="line" smooth="yes"/>
      <point x="335" y="696"/>
      <point x="332" y="700"/>
      <point x="326" y="700" type="curve" smooth="yes"/>
      <point x="289" y="700"/>
      <point x="258" y="700"/>
      <point x="232" y="700" type="curve"/>
      <point x="222" y="662"/>
      <point x="213" y="627"/>
      <point x="204" y="590" type="curve" smooth="yes"/>
      <point x="182" y="502" type="line"/>
      <point x="141" y="268"/>
      <point x="141" y="263"/>
      <point x="144" y="259" type="curve" smooth="yes"/>
      <point x="146" y="257"/>
      <point x="147" y="256"/>
      <point x="151" y="256" type="curve"/>
    </contour>
    <contour>
      <point x="181" y="-7" type="curve"/>
      <point x="214" y="127" type="line" smooth="yes"/>
      <point x="216" y="133"/>
      <point x="212" y="138"/>
      <point x="206" y="138" type="curve" smooth="yes"/>
      <point x="166" y="138"/>
      <point x="110" y="138"/>
      <point x="69" y="138" type="curve"/>
      <point x="36" y="4" type="line" smooth="yes"/>
      <point x="34" y="-2"/>
      <point x="38" y="-7"/>
      <point x="44" y="-7" type="curve" smooth="yes"/>
      <point x="84" y="-7"/>
      <point x="141" y="-7"/>
    </contour>
  </outline>
</glyph>
<glyph name="quotedbl" format="1">
  <advance width="600"/>
  <unicode hex="0022"/>
  <outline>
    <contour>
      <point x="272" y="450" type="curve"/>
      <point x="366" y="737" type="line" smooth="yes"/>
      <point x="370" y="746"/>
      <point x="366" y="750"/>
      <point x="360" y="750" type="curve" smooth="yes"/>
      <point x="325" y="750"/>
      <point x="286" y="750"/>
      <point x="242" y="750" type="curve"/>
      <point x="236" y="714"/>
      <point x="230" y="683"/>
      <point x="224" y="648" type="curve" smooth="yes"/>
      <point x="193" y="461" type="line" smooth="yes"/>
      <point x="192" y="454"/>
      <point x="196" y="450"/>
      <point x="202" y="450" type="curve" smooth="yes"/>
      <point x="225" y="450"/>
      <point x="248" y="450"/>
    </contour>
    <contour>
      <point x="502" y="450" type="curve"/>
      <point x="596" y="737" type="line" smooth="yes"/>
      <point x="600" y="746"/>
      <point x="596" y="750"/>
      <point x="590" y="750" type="curve" smooth="yes"/>
      <point x="555" y="750"/>
      <point x="516" y="750"/>
      <point x="472" y="750" type="curve"/>
      <point x="423" y="461" type="line"/>
      <point x="422" y="454"/>
      <point x="426" y="450"/>
      <point x="432" y="450" type="curve" smooth="yes"/>
      <point x="455" y="450"/>
      <point x="478" y="450"/>
    </contour>
  </outline>
</glyph>
<glyph name="numbersign" format="1">
  <advance width="600"/>
  <unicode hex="0023"/>
  <outline>
    <contour>
      <point x="339" y="720" type="curve"/>
      <point x="228" y="474"/>
      <point x="116" y="226"/>
      <point x="6" y="-20" type="curve"/>
      <point x="25" y="-20"/>
      <point x="45" y="-20"/>
      <point x="65" y="-20" type="curve"/>
      <point x="72" y="-20"/>
      <point x="78" y="-19"/>
      <point x="82" y="-9" type="curve" smooth="yes"/>
      <point x="190" y="230"/>
      <point x="299" y="470"/>
      <point x="406" y="709" type="curve" smooth="yes"/>
      <point x="410" y="718"/>
      <point x="406" y="720"/>
      <point x="399" y="720" type="curve" smooth="yes"/>
      <point x="380" y="720"/>
      <point x="358" y="720"/>
    </contour>
    <contour>
      <point x="561" y="720" type="curve"/>
      <point x="450" y="474"/>
      <point x="338" y="226"/>
      <point x="227" y="-20" type="curve"/>
      <point x="247" y="-20"/>
      <point x="268" y="-20"/>
      <point x="287" y="-20" type="curve"/>
      <point x="294" y="-20"/>
      <point x="299" y="-19"/>
      <point x="304" y="-9" type="curve" smooth="yes"/>
      <point x="412" y="230"/>
      <point x="521" y="470"/>
      <point x="627" y="709" type="curve" smooth="yes"/>
      <point x="632" y="718"/>
      <point x="628" y="720"/>
      <point x="621" y="720" type="curve" smooth="yes"/>
      <point x="602" y="720"/>
      <point x="579" y="720"/>
    </contour>
    <contour>
      <point x="626" y="445" type="line"/>
      <point x="629" y="458"/>
      <point x="637" y="492"/>
      <point x="641" y="505" type="curve" smooth="yes"/>
      <point x="641" y="508"/>
      <point x="641" y="511"/>
      <point x="640" y="513" type="curve" smooth="yes"/>
      <point x="638" y="515"/>
      <point x="635" y="516"/>
      <point x="632" y="516" type="curve"/>
      <point x="123" y="516" type="line"/>
      <point x="120" y="503"/>
      <point x="112" y="469"/>
      <point x="108" y="456" type="curve" smooth="yes"/>
      <point x="107" y="450"/>
      <point x="111" y="445"/>
      <point x="117" y="445" type="curve"/>
    </contour>
    <contour>
      <point x="17" y="252" type="line"/>
      <point x="14" y="239"/>
      <point x="6" y="208"/>
      <point x="3" y="195" type="curve" smooth="yes"/>
      <point x="2" y="192"/>
      <point x="3" y="189"/>
      <point x="4" y="187" type="curve" smooth="yes"/>
      <point x="6" y="185"/>
      <point x="8" y="184"/>
      <point x="11" y="184" type="curve"/>
      <point x="520" y="184" type="line"/>
      <point x="524" y="197"/>
      <point x="531" y="228"/>
      <point x="534" y="241" type="curve" smooth="yes"/>
      <point x="536" y="247"/>
      <point x="532" y="252"/>
      <point x="526" y="252" type="curve"/>
    </contour>
  </outline>
</glyph>
<glyph name="percent" format="1">
  <advance width="600"/>
  <unicode hex="0025"/>
  <outline>
    <contour>
      <point x="270" y="648" type="curve"/>
      <point x="327" y="648"/>
      <point x="345" y="615"/>
      <point x="331" y="558" type="curve" smooth="yes"/>
      <point x="319" y="513" type="line" smooth="yes"/>
      <point x="305" y="454"/>
      <point x="268" y="419"/>
      <point x="214" y="419" type="curve" smooth="yes"/>
      <point x="175" y="419"/>
      <point x="157" y="423"/>
      <point x="135" y="437" type="curve"/>
      <point x="106" y="397"/>
      <point x="142" y="357"/>
      <point x="195" y="357" type="curve" smooth="yes"/>
      <point x="290" y="357"/>
      <point x="362" y="418"/>
      <point x="385" y="511" type="curve" smooth="yes"/>
      <point x="397" y="559" type="line" smooth="yes"/>
      <point x="420" y="651"/>
      <point x="381" y="710"/>
      <point x="288" y="710" type="curve" smooth="yes"/>
      <point x="274" y="710"/>
      <point x="269" y="696"/>
    </contour>
    <contour>
      <point x="214" y="419" type="curve"/>
      <point x="157" y="419"/>
      <point x="139" y="452"/>
      <point x="153" y="510" type="curve" smooth="yes"/>
      <point x="165" y="554" type="line" smooth="yes"/>
      <point x="179" y="613"/>
      <point x="216" y="648"/>
      <point x="270" y="648" type="curve" smooth="yes"/>
      <point x="309" y="648"/>
      <point x="327" y="644"/>
      <point x="349" y="630" type="curve"/>
      <point x="378" y="670"/>
      <point x="342" y="710"/>
      <point x="288" y="710" type="curve" smooth="yes"/>
      <point x="194" y="710"/>
      <point x="122" y="649"/>
      <point x="98" y="556" type="curve" smooth="yes"/>
      <point x="87" y="509" type="line" smooth="yes"/>
      <point x="64" y="417"/>
      <point x="103" y="357"/>
      <point x="195" y="357" type="curve" smooth="yes"/>
      <point x="210" y="357"/>
      <point x="215" y="371"/>
    </contour>
    <contour>
      <point x="428" y="281" type="curve"/>
      <point x="485" y="281"/>
      <point x="503" y="248"/>
      <point x="489" y="191" type="curve" smooth="yes"/>
      <point x="478" y="146" type="line" smooth="yes"/>
      <point x="463" y="87"/>
      <point x="427" y="52"/>
      <point x="373" y="52" type="curve" smooth="yes"/>
      <point x="333" y="52"/>
      <point x="316" y="56"/>
      <point x="293" y="70" type="curve"/>
      <point x="264" y="30"/>
      <point x="301" y="-10"/>
      <point x="354" y="-10" type="curve" smooth="yes"/>
      <point x="448" y="-10"/>
      <point x="521" y="51"/>
      <point x="544" y="144" type="curve" smooth="yes"/>
      <point x="556" y="191" type="line" smooth="yes"/>
      <point x="579" y="283"/>
      <point x="540" y="343"/>
      <point x="447" y="343" type="curve" smooth="yes"/>
      <point x="433" y="343"/>
      <point x="427" y="329"/>
    </contour>
    <contour>
      <point x="373" y="52" type="curve"/>
      <point x="316" y="52"/>
      <point x="298" y="85"/>
      <point x="312" y="142" type="curve" smooth="yes"/>
      <point x="323" y="187" type="line" smooth="yes"/>
      <point x="338" y="246"/>
      <point x="374" y="281"/>
      <point x="428" y="281" type="curve" smooth="yes"/>
      <point x="468" y="281"/>
      <point x="485" y="277"/>
      <point x="507" y="263" type="curve"/>
      <point x="537" y="303"/>
      <point x="500" y="343"/>
      <point x="447" y="343" type="curve" smooth="yes"/>
      <point x="353" y="343"/>
      <point x="280" y="282"/>
      <point x="257" y="189" type="curve" smooth="yes"/>
      <point x="245" y="141" type="line" smooth="yes"/>
      <point x="222" y="49"/>
      <point x="261" y="-10"/>
      <point x="354" y="-10" type="curve" smooth="yes"/>
      <point x="368" y="-10"/>
      <point x="374" y="4"/>
    </contour>
    <contour>
      <point x="402" y="405" type="curve"/>
      <point x="419" y="405"/>
      <point x="438" y="405"/>
      <point x="461" y="405" type="curve" smooth="yes"/>
      <point x="466" y="405"/>
      <point x="468" y="406"/>
      <point x="473" y="412" type="curve" smooth="yes"/>
      <point x="542" y="507"/>
      <point x="613" y="602"/>
      <point x="683" y="697" type="curve" smooth="yes"/>
      <point x="689" y="705"/>
      <point x="686" y="710"/>
      <point x="678" y="710" type="curve" smooth="yes"/>
      <point x="649" y="710"/>
      <point x="625" y="710"/>
      <point x="594" y="710" type="curve"/>
      <point x="529" y="608"/>
      <point x="466" y="507"/>
    </contour>
    <contour>
      <point x="241" y="296" type="curve"/>
      <point x="223" y="296"/>
      <point x="204" y="296"/>
      <point x="182" y="296" type="curve" smooth="yes"/>
      <point x="177" y="296"/>
      <point x="175" y="295"/>
      <point x="170" y="289" type="curve" smooth="yes"/>
      <point x="100" y="194"/>
      <point x="30" y="99"/>
      <point x="-40" y="4" type="curve" smooth="yes"/>
      <point x="-46" y="-4"/>
      <point x="-43" y="-9"/>
      <point x="-35" y="-9" type="curve" smooth="yes"/>
      <point x="-6" y="-9"/>
      <point x="17" y="-9"/>
      <point x="49" y="-9" type="curve"/>
      <point x="113" y="93"/>
      <point x="177" y="194"/>
    </contour>
  </outline>
</glyph>
<glyph name="ampersand" format="1">
  <advance width="600"/>
  <unicode hex="0026"/>
  <outline>
    <contour>
      <point x="419" y="709" type="curve" smooth="yes"/>
      <point x="287" y="709"/>
      <point x="193" y="632"/>
      <point x="172" y="548" type="curve" smooth="yes"/>
      <point x="158" y="495"/>
      <point x="200" y="490"/>
      <point x="237" y="490" type="curve"/>
      <point x="242" y="508"/>
      <point x="246" y="523"/>
      <point x="251" y="544" type="curve" smooth="yes"/>
      <point x="262" y="587"/>
      <point x="319" y="629"/>
      <point x="396" y="629" type="curve" smooth="yes"/>
      <point x="458" y="629"/>
      <point x="496" y="620"/>
      <point x="531" y="604" type="curve"/>
      <point x="545" y="604" type="line"/>
      <point x="551" y="626"/>
      <point x="557" y="650"/>
      <point x="563" y="673" type="curve"/>
      <point x="564" y="676"/>
      <point x="564" y="679"/>
      <point x="562" y="681" type="curve" smooth="yes"/>
      <point x="552" y="694"/>
      <point x="500" y="709"/>
    </contour>
    <contour>
      <point x="271" y="444" type="curve" smooth="yes"/>
      <point x="245" y="501"/>
      <point x="244" y="517"/>
      <point x="251" y="544" type="curve" smooth="yes"/>
      <point x="255" y="562"/>
      <point x="264" y="592"/>
      <point x="275" y="616" type="curve"/>
      <point x="224" y="616"/>
      <point x="181" y="584"/>
      <point x="172" y="548" type="curve" smooth="yes"/>
      <point x="171" y="544" type="line" smooth="yes"/>
      <point x="157" y="491"/>
      <point x="165" y="463"/>
      <point x="205" y="376" type="curve" smooth="yes"/>
      <point x="253" y="272"/>
      <point x="332" y="99"/>
      <point x="349" y="62" type="curve" smooth="yes"/>
      <point x="371" y="13"/>
      <point x="400" y="-10"/>
      <point x="450" y="-10" type="curve" smooth="yes"/>
      <point x="496" y="-10" type="line" smooth="yes"/>
      <point x="504" y="-10"/>
      <point x="508" y="-6"/>
      <point x="510" y="1" type="curve" smooth="yes"/>
      <point x="517" y="29"/>
      <point x="520" y="40"/>
      <point x="527" y="71" type="curve"/>
      <point x="522" y="71" type="line"/>
      <point x="513" y="71"/>
      <point x="491" y="71"/>
      <point x="481" y="71" type="curve" smooth="yes"/>
      <point x="453" y="71"/>
      <point x="439" y="79"/>
      <point x="425" y="106" type="curve" smooth="yes"/>
      <point x="414" y="129"/>
      <point x="337" y="298"/>
    </contour>
    <contour>
      <point x="152" y="-9" type="curve" smooth="yes"/>
      <point x="231" y="-9"/>
      <point x="292" y="22"/>
      <point x="352" y="75" type="curve" smooth="yes"/>
      <point x="363" y="85"/>
      <point x="363" y="91"/>
      <point x="336" y="133" type="curve"/>
      <point x="277" y="83"/>
      <point x="229" y="64"/>
      <point x="180" y="64" type="curve" smooth="yes"/>
      <point x="105" y="64"/>
      <point x="82" y="103"/>
      <point x="98" y="168" type="curve" smooth="yes"/>
      <point x="113" y="230" type="line" smooth="yes"/>
      <point x="130" y="297"/>
      <point x="194" y="344"/>
      <point x="270" y="344" type="curve"/>
      <point x="265" y="379"/>
      <point x="258" y="395"/>
      <point x="229" y="393" type="curve" smooth="yes"/>
      <point x="138" y="385"/>
      <point x="55" y="321"/>
      <point x="32" y="229" type="curve" smooth="yes"/>
      <point x="15" y="160" type="line" smooth="yes"/>
      <point x="-13" y="51"/>
      <point x="36" y="-9"/>
    </contour>
    <contour>
      <point x="573" y="429" type="curve" smooth="yes"/>
      <point x="553" y="429"/>
      <point x="530" y="429"/>
      <point x="505" y="429" type="curve"/>
      <point x="497" y="396"/>
      <point x="491" y="372"/>
      <point x="481" y="332" type="curve" smooth="yes"/>
      <point x="462" y="257"/>
      <point x="430" y="212"/>
      <point x="380" y="167" type="curve" smooth="yes"/>
      <point x="371" y="159"/>
      <point x="368" y="152"/>
      <point x="393" y="115" type="curve"/>
      <point x="475" y="172"/>
      <point x="537" y="241"/>
      <point x="560" y="335" type="curve" smooth="yes"/>
      <point x="581" y="418" type="line" smooth="yes"/>
      <point x="583" y="424"/>
      <point x="580" y="429"/>
    </contour>
  </outline>
</glyph>
<glyph name="quotesingle" format="1">
  <advance width="250"/>
  <unicode hex="0027"/>
  <outline>
    <contour>
      <point x="214" y="450" type="curve"/>
      <point x="308" y="737" type="line" smooth="yes"/>
      <point x="312" y="746"/>
      <point x="308" y="750"/>
      <point x="302" y="750" type="curve" smooth="yes"/>
      <point x="265" y="750"/>
      <point x="225" y="750"/>
      <point x="181" y="750" type="curve"/>
      <point x="175" y="714"/>
      <point x="169" y="683"/>
      <point x="163" y="648" type="curve" smooth="yes"/>
      <point x="131" y="461" type="line" smooth="yes"/>
      <point x="131" y="454"/>
      <point x="135" y="450"/>
      <point x="141" y="450" type="curve" smooth="yes"/>
      <point x="165" y="450"/>
      <point x="189" y="450"/>
    </contour>
  </outline>
</glyph>
<glyph name="parenleft" format="1">
  <advance width="400"/>
  <unicode hex="0028"/>
  <outline>
    <contour>
      <point x="410" y="749" type="curve" smooth="yes"/>
      <point x="262" y="630"/>
      <point x="168" y="479"/>
      <point x="126" y="309" type="curve" smooth="yes"/>
      <point x="124" y="302" type="line" smooth="yes"/>
      <point x="81" y="132"/>
      <point x="99" y="-19"/>
      <point x="188" y="-138" type="curve" smooth="yes"/>
      <point x="192" y="-144"/>
      <point x="199" y="-146"/>
      <point x="206" y="-146" type="curve" smooth="yes"/>
      <point x="234" y="-146"/>
      <point x="256" y="-146"/>
      <point x="285" y="-146" type="curve"/>
      <point x="289" y="-131" type="line"/>
      <point x="191" y="-13"/>
      <point x="165" y="136"/>
      <point x="207" y="302" type="curve" smooth="yes"/>
      <point x="209" y="309" type="line" smooth="yes"/>
      <point x="250" y="475"/>
      <point x="351" y="624"/>
      <point x="507" y="742" type="curve"/>
      <point x="511" y="757" type="line"/>
      <point x="482" y="757"/>
      <point x="459" y="757"/>
      <point x="432" y="757" type="curve" smooth="yes"/>
      <point x="425" y="757"/>
      <point x="417" y="755"/>
    </contour>
  </outline>
</glyph>
<glyph name="parenright" format="1">
  <advance width="400"/>
  <unicode hex="0029"/>
  <outline>
    <contour>
      <point x="10" y="-138" type="curve" smooth="yes"/>
      <point x="158" y="-19"/>
      <point x="252" y="132"/>
      <point x="294" y="302" type="curve" smooth="yes"/>
      <point x="296" y="309" type="line" smooth="yes"/>
      <point x="339" y="479"/>
      <point x="321" y="630"/>
      <point x="232" y="749" type="curve" smooth="yes"/>
      <point x="228" y="755"/>
      <point x="221" y="757"/>
      <point x="214" y="757" type="curve" smooth="yes"/>
      <point x="186" y="757"/>
      <point x="164" y="757"/>
      <point x="135" y="757" type="curve"/>
      <point x="132" y="742" type="line"/>
      <point x="229" y="624"/>
      <point x="255" y="475"/>
      <point x="213" y="309" type="curve" smooth="yes"/>
      <point x="211" y="302" type="line" smooth="yes"/>
      <point x="170" y="136"/>
      <point x="69" y="-13"/>
      <point x="-87" y="-131" type="curve"/>
      <point x="-91" y="-146" type="line"/>
      <point x="-62" y="-146"/>
      <point x="-39" y="-146"/>
      <point x="-12" y="-146" type="curve" smooth="yes"/>
      <point x="-4" y="-146"/>
      <point x="3" y="-144"/>
    </contour>
  </outline>
</glyph>
<glyph name="asterisk" format="1">
  <advance width="500"/>
  <unicode hex="002A"/>
  <outline>
    <contour>
      <point x="339" y="769" type="curve"/>
      <point x="335" y="744"/>
      <point x="333" y="721"/>
      <point x="330" y="697" type="curve" smooth="yes"/>
      <point x="311" y="562" type="line"/>
      <point x="238" y="363" type="line" smooth="yes"/>
      <point x="237" y="358"/>
      <point x="238" y="355"/>
      <point x="244" y="355" type="curve"/>
      <point x="266" y="355"/>
      <point x="287" y="355"/>
      <point x="310" y="355" type="curve"/>
      <point x="313" y="378"/>
      <point x="315" y="402"/>
      <point x="318" y="426" type="curve" smooth="yes"/>
      <point x="337" y="562" type="line"/>
      <point x="410" y="761" type="line" smooth="yes"/>
      <point x="412" y="766"/>
      <point x="411" y="769"/>
      <point x="405" y="769" type="curve" smooth="yes"/>
      <point x="383" y="769"/>
      <point x="361" y="769"/>
    </contour>
    <contour>
      <point x="518" y="697" type="curve"/>
      <point x="320" y="572" type="line"/>
      <point x="116" y="494" type="line" smooth="yes"/>
      <point x="112" y="491"/>
      <point x="109" y="487"/>
      <point x="110" y="482" type="curve"/>
      <point x="117" y="462"/>
      <point x="123" y="444"/>
      <point x="130" y="425" type="curve"/>
      <point x="328" y="550" type="line"/>
      <point x="532" y="629" type="line" smooth="yes"/>
      <point x="537" y="631"/>
      <point x="539" y="635"/>
      <point x="537" y="640" type="curve" smooth="yes"/>
      <point x="531" y="659"/>
      <point x="524" y="677"/>
    </contour>
    <contour>
      <point x="504" y="490" type="curve"/>
      <point x="334" y="573" type="line"/>
      <point x="203" y="693" type="line" smooth="yes"/>
      <point x="200" y="695"/>
      <point x="196" y="694"/>
      <point x="191" y="690" type="curve"/>
      <point x="176" y="670"/>
      <point x="159" y="652"/>
      <point x="144" y="632" type="curve"/>
      <point x="315" y="550" type="line"/>
      <point x="446" y="430" type="line" smooth="yes"/>
      <point x="449" y="427"/>
      <point x="454" y="428"/>
      <point x="457" y="433" type="curve"/>
      <point x="473" y="452"/>
      <point x="489" y="471"/>
    </contour>
  </outline>
</glyph>
<glyph name="plus" format="1">
  <advance width="600"/>
  <unicode hex="002B"/>
  <outline>
    <contour>
      <point x="90" y="340" type="line"/>
      <point x="84" y="317"/>
      <point x="78" y="294"/>
      <point x="72" y="271" type="curve" smooth="yes"/>
      <point x="72" y="268"/>
      <point x="72" y="265"/>
      <point x="73" y="263" type="curve" smooth="yes"/>
      <point x="75" y="261"/>
      <point x="78" y="260"/>
      <point x="81" y="260" type="curve"/>
      <point x="528" y="260" type="line"/>
      <point x="533" y="283"/>
      <point x="539" y="306"/>
      <point x="545" y="329" type="curve" smooth="yes"/>
      <point x="547" y="335"/>
      <point x="543" y="340"/>
      <point x="537" y="340" type="curve"/>
    </contour>
    <contour>
      <point x="292" y="71" type="curve"/>
      <point x="404" y="519" type="line" smooth="yes"/>
      <point x="405" y="522"/>
      <point x="405" y="525"/>
      <point x="403" y="527" type="curve" smooth="yes"/>
      <point x="402" y="529"/>
      <point x="399" y="530"/>
      <point x="396" y="530" type="curve" smooth="yes"/>
      <point x="373" y="530"/>
      <point x="352" y="530"/>
      <point x="326" y="530" type="curve"/>
      <point x="321" y="510"/>
      <point x="312" y="475"/>
      <point x="301" y="430" type="curve" smooth="yes"/>
      <point x="214" y="82" type="line" smooth="yes"/>
      <point x="212" y="76"/>
      <point x="216" y="71"/>
      <point x="222" y="71" type="curve" smooth="yes"/>
      <point x="246" y="71"/>
      <point x="267" y="71"/>
    </contour>
  </outline>
</glyph>
<glyph name="comma" format="1">
  <advance width="350"/>
  <unicode hex="002C"/>
  <outline>
    <contour>
      <point x="32" y="-190" type="curve" smooth="yes"/>
      <point x="37" y="-190"/>
      <point x="40" y="-189"/>
      <point x="44" y="-183" type="curve"/>
      <point x="109" y="-85"/>
      <point x="178" y="20"/>
      <point x="239" y="110" type="curve"/>
      <point x="244" y="118"/>
      <point x="243" y="123"/>
      <point x="235" y="123" type="curve" smooth="yes"/>
      <point x="188" y="123"/>
      <point x="161" y="123"/>
      <point x="107" y="123" type="curve"/>
      <point x="57" y="19"/>
      <point x="7" y="-86"/>
      <point x="-43" y="-190" type="curve"/>
      <point x="-23" y="-190"/>
      <point x="-1" y="-190"/>
    </contour>
  </outline>
</glyph>
<glyph name="period" format="1">
  <advance width="300"/>
  <unicode hex="002E"/>
  <outline>
    <contour>
      <point x="156" y="-7" type="curve"/>
      <point x="189" y="127" type="line" smooth="yes"/>
      <point x="191" y="133"/>
      <point x="187" y="138"/>
      <point x="181" y="138" type="curve" smooth="yes"/>
      <point x="141" y="138"/>
      <point x="85" y="138"/>
      <point x="44" y="138" type="curve"/>
      <point x="11" y="4" type="line" smooth="yes"/>
      <point x="9" y="-2"/>
      <point x="13" y="-7"/>
      <point x="19" y="-7" type="curve" smooth="yes"/>
      <point x="59" y="-7"/>
      <point x="116" y="-7"/>
    </contour>
  </outline>
</glyph>
<glyph name="zero" format="1">
  <advance width="600"/>
  <unicode hex="0030"/>
  <outline>
    <contour>
      <point x="391" y="720" type="curve" smooth="yes"/>
      <point x="254" y="720"/>
      <point x="162" y="646"/>
      <point x="118" y="467" type="curve" smooth="yes"/>
      <point x="68" y="267" type="line" smooth="yes"/>
      <point x="24" y="89"/>
      <point x="106" y="-20"/>
      <point x="251" y="-20" type="curve"/>
      <point x="257" y="-20"/>
      <point x="261" y="-11"/>
      <point x="260" y="53" type="curve"/>
      <point x="161" y="53"/>
      <point x="114" y="120"/>
      <point x="149" y="265" type="curve" smooth="yes"/>
      <point x="196" y="458" type="line" smooth="yes"/>
      <point x="230" y="598"/>
      <point x="292" y="647"/>
      <point x="382" y="647" type="curve" smooth="yes"/>
      <point x="421" y="647"/>
      <point x="463" y="647"/>
      <point x="491" y="647" type="curve"/>
      <point x="501" y="685"/>
      <point x="458" y="720"/>
    </contour>
    <contour>
      <point x="251" y="-20" type="curve" smooth="yes"/>
      <point x="388" y="-20"/>
      <point x="479" y="53"/>
      <point x="524" y="232" type="curve" smooth="yes"/>
      <point x="574" y="433" type="line" smooth="yes"/>
      <point x="618" y="611"/>
      <point x="536" y="720"/>
      <point x="391" y="720" type="curve"/>
      <point x="385" y="720"/>
      <point x="381" y="711"/>
      <point x="382" y="647" type="curve"/>
      <point x="480" y="647"/>
      <point x="528" y="580"/>
      <point x="493" y="435" type="curve" smooth="yes"/>
      <point x="446" y="242" type="line" smooth="yes"/>
      <point x="412" y="102"/>
      <point x="350" y="53"/>
      <point x="256" y="53" type="curve" smooth="yes"/>
      <point x="212" y="53"/>
      <point x="179" y="53"/>
      <point x="151" y="53" type="curve"/>
      <point x="141" y="15"/>
      <point x="183" y="-20"/>
    </contour>
  </outline>
</glyph>
<glyph name="one" format="1">
  <advance width="600"/>
  <unicode hex="0031"/>
  <outline>
    <contour>
      <point x="314" y="19" type="curve"/>
      <point x="371" y="247"/>
      <point x="428" y="474"/>
      <point x="484" y="699" type="curve" smooth="yes"/>
      <point x="486" y="706"/>
      <point x="483" y="710"/>
      <point x="476" y="710" type="curve" smooth="yes"/>
      <point x="406" y="710" type="line"/>
      <point x="351" y="493"/>
      <point x="295" y="269"/>
      <point x="241" y="51" type="curve" smooth="yes"/>
      <point x="235" y="25"/>
      <point x="266" y="19"/>
    </contour>
    <contour>
      <point x="38" y="74" type="line"/>
      <point x="33" y="52"/>
      <point x="29" y="34"/>
      <point x="23" y="11" type="curve" smooth="yes"/>
      <point x="22" y="8"/>
      <point x="22" y="5"/>
      <point x="24" y="3" type="curve" smooth="yes"/>
      <point x="25" y="1"/>
      <point x="28" y="0"/>
      <point x="31" y="0" type="curve" smooth="yes"/>
      <point x="477" y="0" type="line"/>
      <point x="481" y="20"/>
      <point x="487" y="39"/>
      <point x="493" y="63" type="curve" smooth="yes"/>
      <point x="494" y="69"/>
      <point x="490" y="74"/>
      <point x="484" y="74" type="curve" smooth="yes"/>
    </contour>
    <contour>
      <point x="151" y="453" type="curve" smooth="yes"/>
      <point x="161" y="453"/>
      <point x="167" y="455"/>
      <point x="404" y="626" type="curve" smooth="yes"/>
      <point x="426" y="641"/>
      <point x="446" y="655"/>
      <point x="447" y="662" type="curve" smooth="yes"/>
      <point x="453" y="681"/>
      <point x="451" y="710"/>
      <point x="412" y="710" type="curve"/>
      <point x="394" y="710" type="line"/>
      <point x="357" y="683"/>
      <point x="320" y="656"/>
      <point x="283" y="630" type="curve"/>
      <point x="245" y="603"/>
      <point x="208" y="576"/>
      <point x="170" y="548" type="curve"/>
      <point x="148" y="463" type="line" smooth="yes"/>
      <point x="146" y="456"/>
      <point x="147" y="453"/>
    </contour>
  </outline>
</glyph>
<glyph name="two" format="1">
  <advance width="600"/>
  <unicode hex="0032"/>
  <outline>
    <contour>
      <point x="523" y="603" type="curve"/>
      <point x="515" y="570"/>
      <point x="512" y="558"/>
      <point x="503" y="520" type="curve" smooth="yes"/>
      <point x="489" y="466"/>
      <point x="460" y="441"/>
      <point x="306" y="356" type="curve" smooth="yes"/>
      <point x="122" y="253"/>
      <point x="46" y="184"/>
      <point x="16" y="60" type="curve" smooth="yes"/>
      <point x="13" y="49"/>
      <point x="30" y="47"/>
      <point x="95" y="47" type="curve"/>
      <point x="122" y="155"/>
      <point x="155" y="187"/>
      <point x="343" y="292" type="curve" smooth="yes"/>
      <point x="502" y="381"/>
      <point x="559" y="422"/>
      <point x="581" y="511" type="curve" smooth="yes"/>
      <point x="589" y="542" type="line" smooth="yes"/>
      <point x="596" y="570"/>
      <point x="582" y="603"/>
    </contour>
    <contour>
      <point x="470" y="0" type="line"/>
      <point x="475" y="20"/>
      <point x="480" y="39"/>
      <point x="486" y="63" type="curve" smooth="yes"/>
      <point x="487" y="69"/>
      <point x="483" y="74"/>
      <point x="477" y="74" type="curve" smooth="yes"/>
      <point x="87" y="74" type="line" smooth="yes"/>
      <point x="63" y="74"/>
      <point x="40" y="72"/>
      <point x="16" y="60" type="curve"/>
      <point x="12" y="44"/>
      <point x="9" y="35"/>
      <point x="3" y="11" type="curve" smooth="yes"/>
      <point x="1" y="4"/>
      <point x="5" y="0"/>
      <point x="11" y="0" type="curve" smooth="yes"/>
    </contour>
    <contour>
      <point x="407" y="720" type="curve" smooth="yes"/>
      <point x="300" y="720"/>
      <point x="227" y="690"/>
      <point x="185" y="657" type="curve" smooth="yes"/>
      <point x="183" y="654"/>
      <point x="181" y="652"/>
      <point x="180" y="648" type="curve" smooth="yes"/>
      <point x="172" y="615"/>
      <point x="166" y="592"/>
      <point x="161" y="573" type="curve"/>
      <point x="175" y="573" type="line"/>
      <point x="249" y="624"/>
      <point x="312" y="644"/>
      <point x="394" y="644" type="curve" smooth="yes"/>
      <point x="486" y="644"/>
      <point x="524" y="607"/>
      <point x="507" y="540" type="curve" smooth="yes"/>
      <point x="501" y="512"/>
      <point x="496" y="493"/>
      <point x="490" y="469" type="curve"/>
      <point x="543" y="470"/>
      <point x="578" y="498"/>
      <point x="589" y="542" type="curve" smooth="yes"/>
      <point x="615" y="642"/>
      <point x="548" y="720"/>
    </contour>
  </outline>
</glyph>
<glyph name="three" format="1">
  <advance width="600"/>
  <unicode hex="0033"/>
  <outline>
    <contour>
      <point x="380" y="644" type="curve" smooth="yes"/>
      <point x="486" y="644"/>
      <point x="522" y="594"/>
      <point x="506" y="532" type="curve" smooth="yes"/>
      <point x="500" y="508"/>
      <point x="494" y="486"/>
      <point x="489" y="464" type="curve"/>
      <point x="533" y="464"/>
      <point x="574" y="475"/>
      <point x="585" y="516" type="curve" smooth="yes"/>
      <point x="591" y="540" type="line" smooth="yes"/>
      <point x="614" y="628"/>
      <point x="548" y="720"/>
      <point x="397" y="720" type="curve" smooth="yes"/>
      <point x="300" y="720"/>
      <point x="220" y="693"/>
      <point x="185" y="665" type="curve" smooth="yes"/>
      <point x="183" y="663"/>
      <point x="181" y="661"/>
      <point x="180" y="657" type="curve" smooth="yes"/>
      <point x="173" y="627"/>
      <point x="167" y="604"/>
      <point x="164" y="588" type="curve"/>
      <point x="177" y="588" type="line"/>
      <point x="246" y="627"/>
      <point x="297" y="644"/>
    </contour>
    <contour>
      <point x="196" y="340" type="curve" smooth="yes"/>
      <point x="410" y="340"/>
      <point x="554" y="390"/>
      <point x="585" y="516" type="curve" smooth="yes"/>
      <point x="593" y="546"/>
      <point x="563" y="590"/>
      <point x="521" y="590" type="curve"/>
      <point x="514" y="565"/>
      <point x="509" y="544"/>
      <point x="504" y="523" type="curve" smooth="yes"/>
      <point x="485" y="448"/>
      <point x="400" y="393"/>
      <point x="198" y="393" type="curve"/>
      <point x="195" y="380"/>
      <point x="191" y="364"/>
      <point x="188" y="351" type="curve" smooth="yes"/>
      <point x="186" y="345"/>
      <point x="189" y="340"/>
    </contour>
    <contour>
      <point x="191" y="320" type="curve" smooth="yes"/>
      <point x="370" y="320"/>
      <point x="451" y="278"/>
      <point x="429" y="186" type="curve" smooth="yes"/>
      <point x="422" y="163"/>
      <point x="418" y="146"/>
      <point x="411" y="117" type="curve"/>
      <point x="457" y="117"/>
      <point x="502" y="142"/>
      <point x="512" y="183" type="curve" smooth="yes"/>
      <point x="540" y="297"/>
      <point x="447" y="373"/>
      <point x="193" y="373" type="curve"/>
      <point x="190" y="360"/>
      <point x="186" y="346"/>
      <point x="183" y="331" type="curve" smooth="yes"/>
      <point x="181" y="324"/>
      <point x="184" y="320"/>
    </contour>
    <contour>
      <point x="232" y="56" type="curve" smooth="yes"/>
      <point x="147" y="56"/>
      <point x="100" y="73"/>
      <point x="47" y="116" type="curve"/>
      <point x="33" y="116" type="line"/>
      <point x="28" y="97"/>
      <point x="23" y="79"/>
      <point x="15" y="48" type="curve" smooth="yes"/>
      <point x="14" y="44"/>
      <point x="14" y="42"/>
      <point x="16" y="39" type="curve" smooth="yes"/>
      <point x="37" y="11"/>
      <point x="113" y="-20"/>
      <point x="219" y="-20" type="curve" smooth="yes"/>
      <point x="385" y="-20"/>
      <point x="480" y="53"/>
      <point x="504" y="153" type="curve" smooth="yes"/>
      <point x="512" y="183" type="line" smooth="yes"/>
      <point x="520" y="214"/>
      <point x="485" y="247"/>
      <point x="444" y="246" type="curve"/>
      <point x="437" y="219"/>
      <point x="432" y="199"/>
      <point x="426" y="178" type="curve" smooth="yes"/>
      <point x="410" y="110"/>
      <point x="345" y="56"/>
    </contour>
  </outline>
</glyph>
<glyph name="four" format="1">
  <advance width="600"/>
  <unicode hex="0034"/>
  <outline>
    <contour>
      <point x="106" y="196" type="curve"/>
      <point x="254" y="360"/>
      <point x="403" y="525"/>
      <point x="552" y="689" type="curve"/>
      <point x="555" y="700" type="line"/>
      <point x="515" y="700"/>
      <point x="486" y="700"/>
      <point x="475" y="700" type="curve" smooth="yes"/>
      <point x="470" y="700"/>
      <point x="462" y="700"/>
      <point x="455" y="691" type="curve" smooth="yes"/>
      <point x="254" y="467"/>
      <point x="40" y="226"/>
      <point x="39" y="222" type="curve" smooth="yes"/>
      <point x="35" y="204"/>
      <point x="77" y="196"/>
    </contour>
    <contour>
      <point x="532" y="153" type="line"/>
      <point x="537" y="174"/>
      <point x="542" y="194"/>
      <point x="547" y="216" type="curve" smooth="yes"/>
      <point x="549" y="222"/>
      <point x="545" y="227"/>
      <point x="539" y="227" type="curve" smooth="yes"/>
      <point x="385" y="227" type="line"/>
      <point x="303" y="227"/>
      <point x="167" y="224"/>
      <point x="39" y="222" type="curve"/>
      <point x="24" y="164" type="line" smooth="yes"/>
      <point x="24" y="161"/>
      <point x="24" y="158"/>
      <point x="25" y="156" type="curve" smooth="yes"/>
      <point x="27" y="154"/>
      <point x="30" y="153"/>
      <point x="33" y="153" type="curve" smooth="yes"/>
    </contour>
    <contour>
      <point x="413" y="0" type="curve"/>
      <point x="420" y="31"/>
      <point x="429" y="65"/>
      <point x="438" y="99" type="curve" smooth="yes"/>
      <point x="505" y="368" type="line" smooth="yes"/>
      <point x="507" y="375"/>
      <point x="504" y="379"/>
      <point x="497" y="379" type="curve" smooth="yes"/>
      <point x="437" y="379" type="line"/>
      <point x="419" y="326"/>
      <point x="403" y="273"/>
      <point x="386" y="219" type="curve"/>
      <point x="334" y="11" type="line" smooth="yes"/>
      <point x="332" y="5"/>
      <point x="336" y="0"/>
      <point x="342" y="0" type="curve" smooth="yes"/>
      <point x="366" y="0"/>
      <point x="389" y="0"/>
    </contour>
  </outline>
</glyph>
<glyph name="five" format="1">
  <advance width="600"/>
  <unicode hex="0035"/>
  <outline>
    <contour>
      <point x="269" y="700" type="line"/>
      <point x="263" y="678"/>
      <point x="258" y="660"/>
      <point x="253" y="638" type="curve" smooth="yes"/>
      <point x="253" y="635"/>
      <point x="253" y="632"/>
      <point x="254" y="630" type="curve" smooth="yes"/>
      <point x="256" y="628"/>
      <point x="259" y="627"/>
      <point x="262" y="627" type="curve" smooth="yes"/>
      <point x="597" y="627" type="line"/>
      <point x="601" y="644"/>
      <point x="606" y="665"/>
      <point x="612" y="689" type="curve" smooth="yes"/>
      <point x="614" y="695"/>
      <point x="610" y="700"/>
      <point x="604" y="700" type="curve" smooth="yes"/>
    </contour>
    <contour>
      <point x="177" y="327" type="line"/>
      <point x="319" y="677" type="line" smooth="yes"/>
      <point x="325" y="692"/>
      <point x="315" y="700"/>
      <point x="283" y="700" type="curve" smooth="yes"/>
      <point x="247" y="700" type="line"/>
      <point x="103" y="343" type="line" smooth="yes"/>
      <point x="99" y="332"/>
      <point x="102" y="327"/>
      <point x="110" y="327" type="curve" smooth="yes"/>
    </contour>
    <contour>
      <point x="163" y="376" type="curve"/>
      <point x="147" y="351"/>
      <point x="153" y="327"/>
      <point x="177" y="327" type="curve"/>
      <point x="220" y="344"/>
      <point x="266" y="355"/>
      <point x="316" y="355" type="curve" smooth="yes"/>
      <point x="435" y="355"/>
      <point x="457" y="294"/>
      <point x="437" y="213" type="curve" smooth="yes"/>
      <point x="434" y="199"/>
      <point x="429" y="179"/>
      <point x="424" y="163" type="curve"/>
      <point x="455" y="163"/>
      <point x="514" y="193"/>
      <point x="521" y="225" type="curve" smooth="yes"/>
      <point x="551" y="342"/>
      <point x="483" y="424"/>
      <point x="350" y="424" type="curve" smooth="yes"/>
      <point x="279" y="424"/>
      <point x="231" y="409"/>
    </contour>
    <contour>
      <point x="228" y="-20" type="curve" smooth="yes"/>
      <point x="385" y="-20"/>
      <point x="479" y="49"/>
      <point x="508" y="170" type="curve" smooth="yes"/>
      <point x="521" y="225" type="line" smooth="yes"/>
      <point x="530" y="259"/>
      <point x="500" y="302"/>
      <point x="458" y="296" type="curve"/>
      <point x="452" y="271"/>
      <point x="446" y="247"/>
      <point x="438" y="215" type="curve" smooth="yes"/>
      <point x="430" y="184" type="line" smooth="yes"/>
      <point x="409" y="98"/>
      <point x="342" y="56"/>
      <point x="239" y="56" type="curve" smooth="yes"/>
      <point x="146" y="56"/>
      <point x="102" y="71"/>
      <point x="53" y="114" type="curve"/>
      <point x="39" y="114" type="line"/>
      <point x="34" y="96"/>
      <point x="29" y="78"/>
      <point x="21" y="46" type="curve" smooth="yes"/>
      <point x="20" y="42"/>
      <point x="21" y="40"/>
      <point x="22" y="38" type="curve" smooth="yes"/>
      <point x="45" y="7"/>
      <point x="121" y="-20"/>
    </contour>
  </outline>
</glyph>
<glyph name="six" format="1">
  <advance width="600"/>
  <unicode hex="0036"/>
  <outline>
    <contour>
      <point x="161" y="51" type="curve"/>
      <point x="148" y="1"/>
      <point x="199" y="-20"/>
      <point x="264" y="-20" type="curve"/>
      <point x="421" y="-20"/>
      <point x="482" y="57"/>
      <point x="512" y="175" type="curve" smooth="yes"/>
      <point x="528" y="236" type="line" smooth="yes"/>
      <point x="538" y="275"/>
      <point x="506" y="302"/>
      <point x="464" y="302" type="curve"/>
      <point x="458" y="279"/>
      <point x="454" y="263"/>
      <point x="446" y="233" type="curve" smooth="yes"/>
      <point x="434" y="184" type="line" smooth="yes"/>
      <point x="412" y="98"/>
      <point x="365" y="51"/>
      <point x="266" y="51" type="curve" smooth="yes"/>
      <point x="222" y="51"/>
      <point x="185" y="51"/>
    </contour>
    <contour>
      <point x="337" y="644" type="curve"/>
      <point x="365" y="644"/>
      <point x="384" y="644"/>
      <point x="424" y="644" type="curve" smooth="yes"/>
      <point x="494" y="644"/>
      <point x="531" y="627"/>
      <point x="574" y="592" type="curve"/>
      <point x="587" y="592" type="line"/>
      <point x="592" y="610"/>
      <point x="597" y="628"/>
      <point x="604" y="659" type="curve" smooth="yes"/>
      <point x="605" y="663"/>
      <point x="605" y="665"/>
      <point x="603" y="667" type="curve" smooth="yes"/>
      <point x="584" y="691"/>
      <point x="519" y="720"/>
      <point x="439" y="720" type="curve" smooth="yes"/>
      <point x="362" y="720"/>
      <point x="347" y="684"/>
    </contour>
    <contour>
      <point x="109" y="433" type="curve" smooth="yes"/>
      <point x="73" y="286" type="line" smooth="yes"/>
      <point x="24" y="90"/>
      <point x="101" y="-20"/>
      <point x="264" y="-20" type="curve" smooth="yes"/>
      <point x="274" y="-20"/>
      <point x="273" y="-4"/>
      <point x="266" y="51" type="curve"/>
      <point x="160" y="51"/>
      <point x="113" y="119"/>
      <point x="152" y="274" type="curve" smooth="yes"/>
      <point x="189" y="422" type="line" smooth="yes"/>
      <point x="226" y="571"/>
      <point x="302" y="644"/>
      <point x="424" y="644" type="curve"/>
      <point x="463" y="707"/>
      <point x="446" y="720"/>
      <point x="439" y="720" type="curve" smooth="yes"/>
      <point x="281" y="720"/>
      <point x="161" y="644"/>
    </contour>
    <contour>
      <point x="363" y="431" type="curve" smooth="yes"/>
      <point x="289" y="431"/>
      <point x="218" y="403"/>
      <point x="175" y="369" type="curve" smooth="yes"/>
      <point x="165" y="361"/>
      <point x="156" y="344"/>
      <point x="144" y="296" type="curve"/>
      <point x="209" y="341"/>
      <point x="267" y="361"/>
      <point x="332" y="361" type="curve" smooth="yes"/>
      <point x="432" y="361"/>
      <point x="466" y="309"/>
      <point x="446" y="233" type="curve" smooth="yes"/>
      <point x="444" y="222"/>
      <point x="440" y="208"/>
      <point x="438" y="200" type="curve"/>
      <point x="505" y="203"/>
      <point x="524" y="219"/>
      <point x="528" y="236" type="curve" smooth="yes"/>
      <point x="556" y="350"/>
      <point x="490" y="431"/>
    </contour>
  </outline>
</glyph>
<glyph name="seven" format="1">
  <advance width="600"/>
  <unicode hex="0037"/>
  <outline>
    <contour>
      <point x="566" y="627" type="line" smooth="yes"/>
      <point x="589" y="627"/>
      <point x="613" y="628"/>
      <point x="636" y="630" type="curve"/>
      <point x="650" y="689" type="line"/>
      <point x="652" y="695"/>
      <point x="648" y="700"/>
      <point x="642" y="700" type="curve"/>
      <point x="179" y="700" type="line"/>
      <point x="170" y="664" type="line" smooth="yes"/>
      <point x="163" y="637"/>
      <point x="173" y="627"/>
      <point x="188" y="627" type="curve" smooth="yes"/>
    </contour>
    <contour>
      <point x="226" y="0" type="line"/>
      <point x="479" y="387"/>
      <point x="633" y="621"/>
      <point x="636" y="630" type="curve" smooth="yes"/>
      <point x="641" y="654"/>
      <point x="613" y="658"/>
      <point x="563" y="658" type="curve"/>
      <point x="315" y="282"/>
      <point x="144" y="18"/>
      <point x="142" y="11" type="curve" smooth="yes"/>
      <point x="140" y="4"/>
      <point x="143" y="0"/>
      <point x="150" y="0" type="curve" smooth="yes"/>
    </contour>
    <contour>
      <point x="209" y="495" type="curve"/>
      <point x="223" y="549"/>
      <point x="240" y="618"/>
      <point x="254" y="673" type="curve"/>
      <point x="259" y="692"/>
      <point x="240" y="700"/>
      <point x="190" y="700" type="curve" smooth="yes"/>
      <point x="179" y="700" type="line"/>
      <point x="164" y="640"/>
      <point x="145" y="566"/>
      <point x="131" y="506" type="curve"/>
      <point x="129" y="500"/>
      <point x="133" y="495"/>
      <point x="139" y="495" type="curve" smooth="yes"/>
      <point x="162" y="495"/>
      <point x="186" y="495"/>
    </contour>
  </outline>
</glyph>
<glyph name="eight" format="1">
  <advance width="600"/>
  <unicode hex="0038"/>
  <outline>
    <contour>
      <point x="388" y="356" type="curve" smooth="yes"/>
      <point x="298" y="391" type="line" smooth="yes"/>
      <point x="225" y="421"/>
      <point x="204" y="474"/>
      <point x="219" y="530" type="curve" smooth="yes"/>
      <point x="223" y="549"/>
      <point x="228" y="566"/>
      <point x="234" y="592" type="curve"/>
      <point x="194" y="592"/>
      <point x="150" y="568"/>
      <point x="140" y="530" type="curve" smooth="yes"/>
      <point x="119" y="447"/>
      <point x="154" y="379"/>
      <point x="265" y="333" type="curve" smooth="yes"/>
      <point x="353" y="297" type="line" smooth="yes"/>
      <point x="427" y="266"/>
      <point x="449" y="220"/>
      <point x="437" y="169" type="curve" smooth="yes"/>
      <point x="427" y="129"/>
      <point x="422" y="114"/>
      <point x="419" y="101" type="curve"/>
      <point x="458" y="106"/>
      <point x="507" y="141"/>
      <point x="516" y="173" type="curve"/>
      <point x="534" y="247"/>
      <point x="494" y="314"/>
    </contour>
    <contour>
      <point x="243" y="-20" type="curve" smooth="yes"/>
      <point x="402" y="-20"/>
      <point x="484" y="49"/>
      <point x="508" y="145" type="curve" smooth="yes"/>
      <point x="516" y="173" type="line" smooth="yes"/>
      <point x="521" y="200"/>
      <point x="495" y="222"/>
      <point x="451" y="224" type="curve"/>
      <point x="448" y="217"/>
      <point x="444" y="195"/>
      <point x="434" y="158" type="curve" smooth="yes"/>
      <point x="417" y="92"/>
      <point x="359" y="52"/>
      <point x="255" y="52" type="curve" smooth="yes"/>
      <point x="208" y="52"/>
      <point x="172" y="52"/>
      <point x="149" y="52" type="curve"/>
      <point x="139" y="15"/>
      <point x="192" y="-20"/>
    </contour>
    <contour>
      <point x="407" y="720" type="curve" smooth="yes"/>
      <point x="270" y="720"/>
      <point x="173" y="660"/>
      <point x="147" y="557" type="curve" smooth="yes"/>
      <point x="140" y="530" type="line" smooth="yes"/>
      <point x="131" y="494"/>
      <point x="150" y="467"/>
      <point x="203" y="467" type="curve"/>
      <point x="209" y="491"/>
      <point x="214" y="511"/>
      <point x="222" y="543" type="curve" smooth="yes"/>
      <point x="238" y="609"/>
      <point x="300" y="648"/>
      <point x="385" y="648" type="curve" smooth="yes"/>
      <point x="431" y="648"/>
      <point x="468" y="648"/>
      <point x="492" y="648" type="curve"/>
      <point x="503" y="692"/>
      <point x="462" y="720"/>
    </contour>
    <contour>
      <point x="365" y="345" type="curve" smooth="yes"/>
      <point x="446" y="345"/>
      <point x="559" y="418"/>
      <point x="582" y="501" type="curve" smooth="yes"/>
      <point x="589" y="529" type="line" smooth="yes"/>
      <point x="618" y="634"/>
      <point x="542" y="720"/>
      <point x="407" y="720" type="curve" smooth="yes"/>
      <point x="388" y="720"/>
      <point x="384" y="711"/>
      <point x="385" y="648" type="curve"/>
      <point x="488" y="648"/>
      <point x="528" y="597"/>
      <point x="507" y="519" type="curve" smooth="yes"/>
      <point x="504" y="507" type="line" smooth="yes"/>
      <point x="488" y="444"/>
      <point x="428" y="404"/>
      <point x="313" y="370" type="curve"/>
      <point x="320" y="354"/>
      <point x="340" y="345"/>
    </contour>
    <contour>
      <point x="255" y="52" type="curve"/>
      <point x="137" y="52"/>
      <point x="100" y="112"/>
      <point x="116" y="179" type="curve" smooth="yes"/>
      <point x="119" y="191" type="line" smooth="yes"/>
      <point x="134" y="257"/>
      <point x="203" y="305"/>
      <point x="316" y="324" type="curve"/>
      <point x="308" y="342"/>
      <point x="294" y="354"/>
      <point x="267" y="354" type="curve" smooth="yes"/>
      <point x="173" y="354"/>
      <point x="69" y="290"/>
      <point x="44" y="199" type="curve" smooth="yes"/>
      <point x="36" y="170" type="line" smooth="yes"/>
      <point x="9" y="68"/>
      <point x="84" y="-20"/>
      <point x="243" y="-20" type="curve" smooth="yes"/>
      <point x="248" y="-20"/>
      <point x="265" y="4"/>
    </contour>
  </outline>
</glyph>
<glyph name="nine" format="1">
  <advance width="600"/>
  <unicode hex="0039"/>
  <outline>
    <contour>
      <point x="482" y="648" type="curve"/>
      <point x="493" y="692"/>
      <point x="457" y="720"/>
      <point x="385" y="720" type="curve"/>
      <point x="243" y="720"/>
      <point x="162" y="645"/>
      <point x="132" y="525" type="curve" smooth="yes"/>
      <point x="115" y="462" type="line" smooth="yes"/>
      <point x="105" y="423"/>
      <point x="131" y="389"/>
      <point x="178" y="389" type="curve"/>
      <point x="184" y="414"/>
      <point x="190" y="434"/>
      <point x="197" y="465" type="curve" smooth="yes"/>
      <point x="210" y="517" type="line" smooth="yes"/>
      <point x="232" y="604"/>
      <point x="281" y="648"/>
      <point x="378" y="648" type="curve" smooth="yes"/>
      <point x="422" y="648"/>
      <point x="458" y="648"/>
    </contour>
    <contour>
      <point x="312" y="56" type="curve"/>
      <point x="284" y="56"/>
      <point x="264" y="56"/>
      <point x="223" y="56" type="curve" smooth="yes"/>
      <point x="157" y="56"/>
      <point x="114" y="66"/>
      <point x="68" y="101" type="curve"/>
      <point x="54" y="101" type="line"/>
      <point x="50" y="83"/>
      <point x="45" y="65"/>
      <point x="38" y="34" type="curve" smooth="yes"/>
      <point x="37" y="30"/>
      <point x="37" y="28"/>
      <point x="39" y="25" type="curve" smooth="yes"/>
      <point x="58" y="1"/>
      <point x="136" y="-20"/>
      <point x="212" y="-20" type="curve" smooth="yes"/>
      <point x="277" y="-20"/>
      <point x="300" y="6"/>
    </contour>
    <contour>
      <point x="531" y="256" type="curve" smooth="yes"/>
      <point x="571" y="412" type="line" smooth="yes"/>
      <point x="621" y="614"/>
      <point x="550" y="720"/>
      <point x="385" y="720" type="curve" smooth="yes"/>
      <point x="373" y="720"/>
      <point x="371" y="694"/>
      <point x="378" y="648" type="curve"/>
      <point x="484" y="648"/>
      <point x="531" y="582"/>
      <point x="491" y="423" type="curve" smooth="yes"/>
      <point x="451" y="268" type="line" smooth="yes"/>
      <point x="414" y="118"/>
      <point x="348" y="56"/>
      <point x="223" y="56" type="curve"/>
      <point x="198" y="14"/>
      <point x="204" y="-20"/>
      <point x="212" y="-20" type="curve" smooth="yes"/>
      <point x="392" y="-20"/>
      <point x="482" y="61"/>
    </contour>
    <contour>
      <point x="278" y="265" type="curve" smooth="yes"/>
      <point x="351" y="265"/>
      <point x="423" y="292"/>
      <point x="467" y="327" type="curve" smooth="yes"/>
      <point x="478" y="335"/>
      <point x="487" y="354"/>
      <point x="498" y="401" type="curve"/>
      <point x="433" y="355"/>
      <point x="374" y="336"/>
      <point x="307" y="336" type="curve" smooth="yes"/>
      <point x="210" y="336"/>
      <point x="178" y="388"/>
      <point x="197" y="465" type="curve" smooth="yes"/>
      <point x="200" y="477"/>
      <point x="204" y="494"/>
      <point x="206" y="503" type="curve"/>
      <point x="150" y="499"/>
      <point x="121" y="485"/>
      <point x="115" y="462" type="curve" smooth="yes"/>
      <point x="87" y="347"/>
      <point x="148" y="265"/>
    </contour>
  </outline>
</glyph>
<glyph name="colon" format="1">
  <advance width="300"/>
  <unicode hex="003A"/>
  <outline>
    <contour>
      <point x="256" y="392" type="curve"/>
      <point x="290" y="526" type="line" smooth="yes"/>
      <point x="291" y="532"/>
      <point x="288" y="537"/>
      <point x="282" y="537" type="curve" smooth="yes"/>
      <point x="241" y="537"/>
      <point x="185" y="537"/>
      <point x="145" y="537" type="curve"/>
      <point x="111" y="403" type="line" smooth="yes"/>
      <point x="110" y="397"/>
      <point x="113" y="392"/>
      <point x="119" y="392" type="curve" smooth="yes"/>
      <point x="160" y="392"/>
      <point x="216" y="392"/>
    </contour>
    <contour>
      <point x="155" y="-7" type="curve"/>
      <point x="189" y="127" type="line" smooth="yes"/>
      <point x="190" y="133"/>
      <point x="187" y="138"/>
      <point x="181" y="138" type="curve" smooth="yes"/>
      <point x="140" y="138"/>
      <point x="84" y="138"/>
      <point x="44" y="138" type="curve"/>
      <point x="10" y="4" type="line" smooth="yes"/>
      <point x="9" y="-2"/>
      <point x="12" y="-7"/>
      <point x="18" y="-7" type="curve" smooth="yes"/>
      <point x="59" y="-7"/>
      <point x="115" y="-7"/>
    </contour>
  </outline>
</glyph>
<glyph name="semicolon" format="1">
  <advance width="350"/>
  <unicode hex="003B"/>
  <outline>
    <contour>
      <point x="281" y="392" type="curve"/>
      <point x="314" y="526" type="line" smooth="yes"/>
      <point x="316" y="532"/>
      <point x="312" y="537"/>
      <point x="306" y="537" type="curve" smooth="yes"/>
      <point x="266" y="537"/>
      <point x="209" y="537"/>
      <point x="169" y="537" type="curve"/>
      <point x="136" y="403" type="line" smooth="yes"/>
      <point x="134" y="397"/>
      <point x="138" y="392"/>
      <point x="144" y="392" type="curve" smooth="yes"/>
      <point x="184" y="392"/>
      <point x="240" y="392"/>
    </contour>
    <contour>
      <point x="4" y="-206" type="curve" smooth="yes"/>
      <point x="9" y="-206"/>
      <point x="13" y="-205"/>
      <point x="17" y="-199" type="curve"/>
      <point x="82" y="-101"/>
      <point x="151" y="4"/>
      <point x="212" y="95" type="curve"/>
      <point x="217" y="103"/>
      <point x="215" y="108"/>
      <point x="207" y="108" type="curve" smooth="yes"/>
      <point x="161" y="108"/>
      <point x="134" y="108"/>
      <point x="80" y="108" type="curve"/>
      <point x="30" y="3"/>
      <point x="-20" y="-101"/>
      <point x="-70" y="-206" type="curve"/>
      <point x="-50" y="-206"/>
      <point x="-28" y="-206"/>
    </contour>
  </outline>
</glyph>
<glyph name="equal" format="1">
  <advance width="600"/>
  <unicode hex="003D"/>
  <outline>
    <contour>
      <point x="121" y="466" type="line"/>
      <point x="115" y="442"/>
      <point x="110" y="421"/>
      <point x="104" y="398" type="curve" smooth="yes"/>
      <point x="103" y="395"/>
      <point x="104" y="392"/>
      <point x="105" y="390" type="curve" smooth="yes"/>
      <point x="107" y="388"/>
      <point x="109" y="387"/>
      <point x="112" y="387" type="curve"/>
      <point x="559" y="387" type="line"/>
      <point x="565" y="410"/>
      <point x="571" y="431"/>
      <point x="576" y="455" type="curve" smooth="yes"/>
      <point x="578" y="461"/>
      <point x="574" y="466"/>
      <point x="568" y="466" type="curve"/>
    </contour>
    <contour>
      <point x="496" y="134" type="line"/>
      <point x="502" y="157"/>
      <point x="507" y="178"/>
      <point x="513" y="202" type="curve" smooth="yes"/>
      <point x="514" y="205"/>
      <point x="514" y="208"/>
      <point x="512" y="210" type="curve" smooth="yes"/>
      <point x="511" y="212"/>
      <point x="508" y="213"/>
      <point x="505" y="213" type="curve"/>
      <point x="58" y="213" type="line"/>
      <point x="52" y="189"/>
      <point x="47" y="168"/>
      <point x="41" y="145" type="curve" smooth="yes"/>
      <point x="39" y="139"/>
      <point x="43" y="134"/>
      <point x="49" y="134" type="curve"/>
    </contour>
  </outline>
</glyph>
<glyph name="greater" format="1">
  <advance width="566"/>
  <unicode hex="003E"/>
  <outline>
    <contour>
      <point x="40" y="107" type="curve"/>
      <point x="22" y="34" type="line"/>
      <point x="21" y="29"/>
      <point x="22" y="26"/>
      <point x="27" y="26" type="curve" smooth="yes"/>
      <point x="31" y="26"/>
      <point x="35" y="27"/>
      <point x="50" y="33" type="curve" smooth="yes"/>
      <point x="98" y="55"/>
      <point x="358" y="172"/>
      <point x="514" y="242" type="curve"/>
      <point x="539" y="342" type="line"/>
      <point x="526" y="327"/>
      <point x="514" y="319"/>
      <point x="481" y="305" type="curve"/>
      <point x="334" y="239"/>
      <point x="187" y="173"/>
    </contour>
    <contour>
      <point x="160" y="584" type="curve"/>
      <point x="153" y="558"/>
      <point x="148" y="534"/>
      <point x="141" y="508" type="curve" smooth="yes"/>
      <point x="139" y="499"/>
      <point x="139" y="496"/>
      <point x="146" y="492" type="curve" smooth="yes"/>
      <point x="245" y="434"/>
      <point x="344" y="376"/>
      <point x="446" y="318" type="curve" smooth="yes"/>
      <point x="452" y="314"/>
      <point x="452" y="311"/>
      <point x="450" y="305" type="curve" smooth="yes"/>
      <point x="446" y="288"/>
      <point x="441" y="268"/>
      <point x="435" y="244" type="curve"/>
      <point x="494" y="247"/>
      <point x="529" y="300"/>
      <point x="538" y="336" type="curve" smooth="yes"/>
      <point x="542" y="351" type="line" smooth="yes"/>
      <point x="544" y="360"/>
      <point x="542" y="365"/>
      <point x="534" y="369" type="curve" smooth="yes"/>
      <point x="410" y="440"/>
      <point x="285" y="512"/>
    </contour>
  </outline>
</glyph>
<glyph name="question" format="1">
  <advance width="600"/>
  <unicode hex="003F"/>
  <outline>
    <contour>
      <point x="412" y="720" type="curve" smooth="yes"/>
      <point x="322" y="720"/>
      <point x="233" y="693"/>
      <point x="186" y="655" type="curve" smooth="yes"/>
      <point x="183" y="653"/>
      <point x="181" y="650"/>
      <point x="180" y="646" type="curve" smooth="yes"/>
      <point x="172" y="612"/>
      <point x="165" y="587"/>
      <point x="162" y="572" type="curve"/>
      <point x="175" y="572" type="line"/>
      <point x="254" y="623"/>
      <point x="318" y="641"/>
      <point x="392" y="641" type="curve" smooth="yes"/>
      <point x="495" y="641"/>
      <point x="525" y="607"/>
      <point x="510" y="548" type="curve" smooth="yes"/>
      <point x="505" y="527"/>
      <point x="501" y="509"/>
      <point x="495" y="487" type="curve"/>
      <point x="548" y="487"/>
      <point x="585" y="521"/>
      <point x="594" y="558" type="curve" smooth="yes"/>
      <point x="617" y="650"/>
      <point x="562" y="720"/>
    </contour>
    <contour>
      <point x="527" y="615" type="curve"/>
      <point x="522" y="594"/>
      <point x="514" y="564"/>
      <point x="506" y="529" type="curve" smooth="yes"/>
      <point x="496" y="489"/>
      <point x="475" y="471"/>
      <point x="409" y="432" type="curve" smooth="yes"/>
      <point x="365" y="407" type="line" smooth="yes"/>
      <point x="276" y="355"/>
      <point x="249" y="323"/>
      <point x="235" y="266" type="curve" smooth="yes"/>
      <point x="232" y="252" type="line" smooth="yes"/>
      <point x="230" y="244"/>
      <point x="232" y="241"/>
      <point x="240" y="241" type="curve" smooth="yes"/>
      <point x="311" y="241" type="line"/>
      <point x="313" y="249" type="line" smooth="yes"/>
      <point x="324" y="293"/>
      <point x="335" y="307"/>
      <point x="407" y="350" type="curve" smooth="yes"/>
      <point x="454" y="378" type="line" smooth="yes"/>
      <point x="537" y="426"/>
      <point x="570" y="460"/>
      <point x="587" y="528" type="curve" smooth="yes"/>
      <point x="594" y="558" type="line" smooth="yes"/>
      <point x="603" y="592"/>
      <point x="587" y="615"/>
    </contour>
    <contour>
      <point x="289" y="-7" type="curve"/>
      <point x="321" y="124" type="line" smooth="yes"/>
      <point x="323" y="130"/>
      <point x="319" y="135"/>
      <point x="313" y="135" type="curve" smooth="yes"/>
      <point x="273" y="135"/>
      <point x="217" y="135"/>
      <point x="176" y="135" type="curve"/>
      <point x="144" y="4" type="line" smooth="yes"/>
      <point x="142" y="-2"/>
      <point x="146" y="-7"/>
      <point x="152" y="-7" type="curve" smooth="yes"/>
      <point x="192" y="-7"/>
      <point x="248" y="-7"/>
    </contour>
  </outline>
</glyph>
<glyph name="A" format="1">
  <advance width="600"/>
  <unicode hex="0041"/>
  <outline>
    <contour>
      <point x="47" y="0" type="curve"/>
      <point x="195" y="292"/>
      <point x="293" y="474"/>
      <point x="399" y="667" type="curve"/>
      <point x="408" y="688"/>
      <point x="429" y="699"/>
      <point x="471" y="707" type="curve"/>
      <point x="335" y="707" type="line"/>
      <point x="230" y="515"/>
      <point x="107" y="280"/>
      <point x="-31" y="14" type="curve"/>
      <point x="-35" y="5"/>
      <point x="-32" y="0"/>
      <point x="-24" y="0" type="curve" smooth="yes"/>
      <point x="-2" y="0"/>
      <point x="22" y="0"/>
    </contour>
    <contour>
      <point x="507" y="0" type="curve"/>
      <point x="499" y="247"/>
      <point x="492" y="481"/>
      <point x="483" y="694" type="curve"/>
      <point x="482" y="701"/>
      <point x="481" y="703"/>
      <point x="479" y="705" type="curve" smooth="yes"/>
      <point x="478" y="707"/>
      <point x="474" y="707"/>
      <point x="471" y="707" type="curve"/>
      <point x="398" y="707"/>
      <point x="375" y="693"/>
      <point x="358" y="627" type="curve"/>
      <point x="366" y="627"/>
      <point x="392" y="627"/>
      <point x="398" y="627" type="curve" smooth="yes"/>
      <point x="401" y="627"/>
      <point x="403" y="626"/>
      <point x="403" y="623" type="curve"/>
      <point x="411" y="440"/>
      <point x="420" y="253"/>
      <point x="425" y="16" type="curve"/>
      <point x="426" y="7"/>
      <point x="427" y="5"/>
      <point x="428" y="3" type="curve" smooth="yes"/>
      <point x="430" y="1"/>
      <point x="433" y="0"/>
      <point x="436" y="0" type="curve" smooth="yes"/>
      <point x="460" y="0"/>
      <point x="483" y="0"/>
    </contour>
    <contour>
      <point x="146" y="282" type="line"/>
      <point x="131" y="219" type="line" smooth="yes"/>
      <point x="130" y="216"/>
      <point x="130" y="213"/>
      <point x="132" y="211" type="curve" smooth="yes"/>
      <point x="133" y="209"/>
      <point x="136" y="208"/>
      <point x="139" y="208" type="curve"/>
      <point x="454" y="208" type="line"/>
      <point x="472" y="278"/>
      <point x="464" y="282"/>
      <point x="462" y="282" type="curve" smooth="yes"/>
    </contour>
    <contour>
      <point x="411" y="711" type="move" name="top"/>
    </contour>
    <contour>
      <point x="507" y="-1" type="move" name="ogonek"/>
    </contour>
    <contour>
      <point x="408" y="700" type="move" name="ring"/>
    </contour>
    <contour>
      <point x="233" y="-1" type="move" name="bottom"/>
    </contour>
  </outline>
</glyph>
<glyph name="C" format="1">
  <advance width="600"/>
  <unicode hex="0043"/>
  <outline>
    <contour>
      <point x="425" y="646" type="curve" smooth="yes"/>
      <point x="504" y="646"/>
      <point x="543" y="624"/>
      <point x="570" y="589" type="curve"/>
      <point x="613" y="622"/>
      <point x="621" y="629"/>
      <point x="623" y="638" type="curve" smooth="yes"/>
      <point x="625" y="649"/>
      <point x="625" y="652"/>
      <point x="621" y="657" type="curve" smooth="yes"/>
      <point x="595" y="690"/>
      <point x="530" y="720"/>
      <point x="431" y="720" type="curve" smooth="yes"/>
      <point x="268" y="720"/>
      <point x="160" y="637"/>
      <point x="114" y="456" type="curve" smooth="yes"/>
      <point x="65" y="257" type="line" smooth="yes"/>
      <point x="47" y="186"/>
      <point x="66" y="120"/>
      <point x="116" y="120" type="curve"/>
      <point x="128" y="164"/>
      <point x="136" y="197"/>
      <point x="150" y="252" type="curve" smooth="yes"/>
      <point x="199" y="447" type="line" smooth="yes"/>
      <point x="234" y="587"/>
      <point x="305" y="646"/>
    </contour>
    <contour>
      <point x="277" y="-20" type="curve" smooth="yes"/>
      <point x="360" y="-20"/>
      <point x="430" y="3"/>
      <point x="473" y="38" type="curve" smooth="yes"/>
      <point x="476" y="40"/>
      <point x="478" y="44"/>
      <point x="479" y="48" type="curve" smooth="yes"/>
      <point x="484" y="70"/>
      <point x="491" y="96"/>
      <point x="497" y="119" type="curve"/>
      <point x="482" y="119" type="line"/>
      <point x="417" y="77"/>
      <point x="364" y="56"/>
      <point x="287" y="56" type="curve" smooth="yes"/>
      <point x="167" y="56"/>
      <point x="118" y="126"/>
      <point x="150" y="252" type="curve"/>
      <point x="77" y="267"/>
      <point x="67" y="267"/>
      <point x="65" y="257" type="curve" smooth="yes"/>
      <point x="22" y="85"/>
      <point x="101" y="-20"/>
    </contour>
    <contour>
      <point x="585" y="487" type="curve"/>
      <point x="623" y="638" type="line" smooth="yes"/>
      <point x="626" y="651"/>
      <point x="609" y="656"/>
      <point x="550" y="656" type="curve"/>
      <point x="546" y="643"/>
      <point x="543" y="632"/>
      <point x="541" y="622" type="curve" smooth="yes"/>
      <point x="510" y="498" type="line"/>
      <point x="509" y="494"/>
      <point x="509" y="491"/>
      <point x="511" y="489" type="curve" smooth="yes"/>
      <point x="512" y="487"/>
      <point x="515" y="487"/>
      <point x="518" y="487" type="curve"/>
      <point x="540" y="487"/>
      <point x="562" y="487"/>
    </contour>
    <contour>
      <point x="435" y="711" type="move" name="top"/>
    </contour>
    <contour>
      <point x="264" y="-1" type="move" name="bottom"/>
    </contour>
  </outline>
</glyph>
<glyph name="D" format="1">
  <advance width="650"/>
  <unicode hex="0044"/>
  <outline>
    <contour>
      <point x="115" y="18" type="curve"/>
      <point x="275" y="660" type="line" smooth="yes"/>
      <point x="276" y="666"/>
      <point x="273" y="671"/>
      <point x="193" y="671" type="curve"/>
      <point x="32" y="27" type="line" smooth="yes"/>
      <point x="31" y="21"/>
      <point x="35" y="18"/>
    </contour>
    <contour>
      <point x="138" y="700" type="curve"/>
      <point x="133" y="678"/>
      <point x="128" y="657"/>
      <point x="122" y="634" type="curve"/>
      <point x="121" y="631"/>
      <point x="121" y="628"/>
      <point x="123" y="626" type="curve" smooth="yes"/>
      <point x="124" y="624"/>
      <point x="127" y="623"/>
      <point x="130" y="623" type="curve" smooth="yes"/>
      <point x="143" y="623"/>
      <point x="173" y="623"/>
      <point x="190" y="623" type="curve" smooth="yes"/>
      <point x="237" y="623"/>
      <point x="349" y="623"/>
      <point x="396" y="623" type="curve"/>
      <point x="448" y="623"/>
      <point x="473" y="623"/>
      <point x="511" y="623" type="curve"/>
      <point x="522" y="668"/>
      <point x="483" y="700"/>
      <point x="407" y="700" type="curve" smooth="yes"/>
      <point x="344" y="700"/>
      <point x="214" y="700"/>
    </contour>
    <contour>
      <point x="573" y="235" type="curve" smooth="yes"/>
      <point x="622" y="428" type="line" smooth="yes"/>
      <point x="668" y="611"/>
      <point x="581" y="700"/>
      <point x="407" y="700" type="curve" smooth="yes"/>
      <point x="396" y="700"/>
      <point x="392" y="688"/>
      <point x="396" y="623" type="curve"/>
      <point x="528" y="623"/>
      <point x="574" y="565"/>
      <point x="542" y="435" type="curve" smooth="yes"/>
      <point x="495" y="248" type="line" smooth="yes"/>
      <point x="465" y="129"/>
      <point x="389" y="77"/>
      <point x="258" y="77" type="curve" smooth="yes"/>
      <point x="205" y="77"/>
      <point x="97" y="77"/>
      <point x="54" y="77" type="curve"/>
      <point x="42" y="56"/>
      <point x="36" y="43"/>
      <point x="28" y="11" type="curve" smooth="yes"/>
      <point x="27" y="5"/>
      <point x="31" y="0"/>
      <point x="37" y="0" type="curve" smooth="yes"/>
      <point x="247" y="0" type="line" smooth="yes"/>
      <point x="431" y="0"/>
      <point x="533" y="74"/>
    </contour>
    <contour>
      <point x="416" y="711" type="move" name="top"/>
    </contour>
  </outline>
</glyph>
<glyph name="E" format="1">
  <advance width="550"/>
  <unicode hex="0045"/>
  <outline>
    <contour>
      <point x="132" y="700" type="line"/>
      <point x="126" y="678"/>
      <point x="121" y="657"/>
      <point x="115" y="634" type="curve" smooth="yes"/>
      <point x="114" y="631"/>
      <point x="115" y="628"/>
      <point x="116" y="626" type="curve" smooth="yes"/>
      <point x="118" y="624"/>
      <point x="120" y="623"/>
      <point x="123" y="623" type="curve" smooth="yes"/>
      <point x="582" y="623" type="line"/>
      <point x="588" y="646"/>
      <point x="593" y="667"/>
      <point x="599" y="689" type="curve" smooth="yes"/>
      <point x="600" y="692"/>
      <point x="599" y="695"/>
      <point x="598" y="697" type="curve" smooth="yes"/>
      <point x="596" y="699"/>
      <point x="594" y="700"/>
      <point x="591" y="700" type="curve" smooth="yes"/>
    </contour>
    <contour>
      <point x="116" y="50" type="curve"/>
      <point x="270" y="666" type="line" smooth="yes"/>
      <point x="271" y="672"/>
      <point x="268" y="677"/>
      <point x="188" y="677" type="curve"/>
      <point x="34" y="61" type="line"/>
      <point x="32" y="55"/>
      <point x="36" y="50"/>
    </contour>
    <contour>
      <point x="38" y="77" type="line"/>
      <point x="21" y="11" type="line" smooth="yes"/>
      <point x="20" y="5"/>
      <point x="24" y="0"/>
      <point x="30" y="0" type="curve" smooth="yes"/>
      <point x="427" y="0" type="line"/>
      <point x="432" y="22"/>
      <point x="437" y="43"/>
      <point x="443" y="66" type="curve" smooth="yes"/>
      <point x="444" y="72"/>
      <point x="441" y="77"/>
      <point x="435" y="77" type="curve" smooth="yes"/>
    </contour>
    <contour>
      <point x="152" y="393" type="line"/>
      <point x="135" y="322"/>
      <point x="139" y="317"/>
      <point x="145" y="317" type="curve" smooth="yes"/>
      <point x="453" y="317" type="line"/>
      <point x="458" y="338"/>
      <point x="463" y="358"/>
      <point x="469" y="382" type="curve" smooth="yes"/>
      <point x="470" y="385"/>
      <point x="469" y="388"/>
      <point x="468" y="390" type="curve" smooth="yes"/>
      <point x="466" y="392"/>
      <point x="464" y="393"/>
      <point x="461" y="393" type="curve" smooth="yes"/>
    </contour>
    <contour>
      <point x="368" y="711" type="move" name="top"/>
    </contour>
    <contour>
      <point x="423" y="-1" type="move" name="ogonek"/>
    </contour>
    <contour>
      <point x="190" y="-1" type="move" name="bottom"/>
    </contour>
  </outline>
</glyph>
<glyph name="F" format="1">
  <advance width="550"/>
  <unicode hex="0046"/>
  <outline>
    <contour>
      <point x="123" y="0" type="curve"/>
      <point x="131" y="33"/>
      <point x="140" y="66"/>
      <point x="148" y="98" type="curve" smooth="yes"/>
      <point x="289" y="663" type="line"/>
      <point x="291" y="670"/>
      <point x="283" y="675"/>
      <point x="208" y="675" type="curve"/>
      <point x="41" y="11" type="line" smooth="yes"/>
      <point x="40" y="5"/>
      <point x="44" y="0"/>
      <point x="50" y="0" type="curve" smooth="yes"/>
      <point x="74" y="0"/>
      <point x="99" y="0"/>
    </contour>
    <contour>
      <point x="152" y="700" type="line"/>
      <point x="146" y="678"/>
      <point x="141" y="657"/>
      <point x="135" y="634" type="curve" smooth="yes"/>
      <point x="134" y="631"/>
      <point x="135" y="628"/>
      <point x="136" y="626" type="curve" smooth="yes"/>
      <point x="138" y="624"/>
      <point x="140" y="623"/>
      <point x="143" y="623" type="curve"/>
      <point x="579" y="623" type="line"/>
      <point x="585" y="646"/>
      <point x="590" y="667"/>
      <point x="596" y="689" type="curve" smooth="yes"/>
      <point x="596" y="692"/>
      <point x="596" y="695"/>
      <point x="595" y="697" type="curve" smooth="yes"/>
      <point x="593" y="699"/>
      <point x="590" y="700"/>
      <point x="587" y="700" type="curve"/>
    </contour>
    <contour>
      <point x="167" y="369" type="line"/>
      <point x="150" y="303"/>
      <point x="152" y="293"/>
      <point x="159" y="293" type="curve"/>
      <point x="453" y="293" type="line"/>
      <point x="458" y="315"/>
      <point x="464" y="336"/>
      <point x="469" y="358" type="curve"/>
      <point x="470" y="361"/>
      <point x="470" y="364"/>
      <point x="468" y="366" type="curve" smooth="yes"/>
      <point x="467" y="368"/>
      <point x="464" y="369"/>
      <point x="461" y="369" type="curve"/>
    </contour>
  </outline>
</glyph>
<glyph name="G" format="1">
  <advance width="650"/>
  <unicode hex="0047"/>
  <outline>
    <contour>
      <point x="440" y="644" type="curve" smooth="yes"/>
      <point x="529" y="644"/>
      <point x="577" y="627"/>
      <point x="618" y="582" type="curve"/>
      <point x="659" y="620"/>
      <point x="664" y="628"/>
      <point x="665" y="634" type="curve" smooth="yes"/>
      <point x="667" y="644"/>
      <point x="667" y="648"/>
      <point x="664" y="653" type="curve" smooth="yes"/>
      <point x="639" y="686"/>
      <point x="568" y="720"/>
      <point x="450" y="720" type="curve" smooth="yes"/>
      <point x="272" y="720"/>
      <point x="161" y="637"/>
      <point x="113" y="446" type="curve" smooth="yes"/>
      <point x="64" y="250" type="line" smooth="yes"/>
      <point x="48" y="187"/>
      <point x="65" y="124"/>
      <point x="115" y="123" type="curve"/>
      <point x="125" y="162"/>
      <point x="134" y="199"/>
      <point x="147" y="249" type="curve" smooth="yes"/>
      <point x="195" y="442" type="line" smooth="yes"/>
      <point x="231" y="585"/>
      <point x="307" y="644"/>
    </contour>
    <contour>
      <point x="297" y="56" type="curve" smooth="yes"/>
      <point x="174" y="56"/>
      <point x="115" y="125"/>
      <point x="147" y="249" type="curve"/>
      <point x="77" y="257"/>
      <point x="66" y="258"/>
      <point x="64" y="250" type="curve" smooth="yes"/>
      <point x="24" y="92"/>
      <point x="104" y="-20"/>
      <point x="286" y="-20" type="curve" smooth="yes"/>
      <point x="455" y="-20"/>
      <point x="523" y="64"/>
      <point x="529" y="84" type="curve" smooth="yes"/>
      <point x="583" y="300" type="line" smooth="yes"/>
      <point x="585" y="311"/>
      <point x="542" y="314"/>
      <point x="509" y="314" type="curve"/>
      <point x="491" y="248"/>
      <point x="475" y="182"/>
      <point x="458" y="116" type="curve" smooth="yes"/>
      <point x="456" y="105"/>
      <point x="401" y="56"/>
    </contour>
    <contour>
      <point x="362" y="356" type="line"/>
      <point x="356" y="334"/>
      <point x="351" y="315"/>
      <point x="346" y="294" type="curve" smooth="yes"/>
      <point x="345" y="291"/>
      <point x="346" y="288"/>
      <point x="347" y="286" type="curve" smooth="yes"/>
      <point x="349" y="284"/>
      <point x="351" y="283"/>
      <point x="354" y="283" type="curve"/>
      <point x="621" y="283" type="line"/>
      <point x="637" y="345" type="line" smooth="yes"/>
      <point x="639" y="351"/>
      <point x="635" y="356"/>
      <point x="629" y="356" type="curve" smooth="yes"/>
    </contour>
    <contour>
      <point x="630" y="494" type="curve"/>
      <point x="665" y="634" type="line" smooth="yes"/>
      <point x="667" y="644"/>
      <point x="659" y="655"/>
      <point x="592" y="655" type="curve"/>
      <point x="589" y="642"/>
      <point x="586" y="632"/>
      <point x="584" y="622" type="curve" smooth="yes"/>
      <point x="555" y="505" type="line" smooth="yes"/>
      <point x="553" y="498"/>
      <point x="556" y="494"/>
      <point x="563" y="494" type="curve" smooth="yes"/>
      <point x="586" y="494"/>
      <point x="608" y="494"/>
    </contour>
    <contour>
      <point x="454" y="711" type="move" name="top"/>
    </contour>
    <contour>
      <point x="276" y="-1" type="move" name="bottom"/>
    </contour>
  </outline>
</glyph>
<glyph name="H" format="1">
  <advance width="650"/>
  <unicode hex="0048"/>
  <outline>
    <contour>
      <point x="192" y="700" type="curve"/>
      <point x="184" y="666"/>
      <point x="175" y="632"/>
      <point x="167" y="598" type="curve" smooth="yes"/>
      <point x="20" y="11" type="line" smooth="yes"/>
      <point x="18" y="5"/>
      <point x="22" y="0"/>
      <point x="28" y="0" type="curve" smooth="yes"/>
      <point x="53" y="0"/>
      <point x="77" y="0"/>
      <point x="102" y="0" type="curve"/>
      <point x="274" y="689" type="line" smooth="yes"/>
      <point x="275" y="692"/>
      <point x="274" y="695"/>
      <point x="273" y="697" type="curve" smooth="yes"/>
      <point x="271" y="699"/>
      <point x="269" y="700"/>
      <point x="266" y="700" type="curve" smooth="yes"/>
      <point x="241" y="700"/>
      <point x="217" y="700"/>
    </contour>
    <contour>
      <point x="500" y="0" type="curve"/>
      <point x="508" y="33"/>
      <point x="517" y="68"/>
      <point x="525" y="103" type="curve" smooth="yes"/>
      <point x="672" y="689" type="line" smooth="yes"/>
      <point x="673" y="695"/>
      <point x="670" y="700"/>
      <point x="664" y="700" type="curve" smooth="yes"/>
      <point x="639" y="700"/>
      <point x="615" y="700"/>
      <point x="590" y="700" type="curve"/>
      <point x="418" y="11" type="line" smooth="yes"/>
      <point x="417" y="8"/>
      <point x="417" y="5"/>
      <point x="419" y="3" type="curve" smooth="yes"/>
      <point x="420" y="1"/>
      <point x="423" y="0"/>
      <point x="426" y="0" type="curve" smooth="yes"/>
      <point x="451" y="0"/>
      <point x="475" y="0"/>
    </contour>
    <contour>
      <point x="160" y="393" type="line"/>
      <point x="143" y="327" type="line" smooth="yes"/>
      <point x="142" y="324"/>
      <point x="143" y="321"/>
      <point x="144" y="319" type="curve" smooth="yes"/>
      <point x="146" y="317"/>
      <point x="148" y="316"/>
      <point x="151" y="316" type="curve"/>
      <point x="543" y="316" type="line"/>
      <point x="561" y="389"/>
      <point x="557" y="393"/>
      <point x="551" y="393" type="curve" smooth="yes"/>
    </contour>
    <contour>
      <point x="436" y="711" type="move" name="top"/>
    </contour>
  </outline>
</glyph>
<glyph name="I" format="1">
  <advance width="500"/>
  <unicode hex="0049"/>
  <outline>
    <contour>
      <point x="233" y="29" type="curve"/>
      <point x="391" y="662" type="line" smooth="yes"/>
      <point x="393" y="668"/>
      <point x="388" y="671"/>
      <point x="309" y="671" type="curve"/>
      <point x="151" y="40" type="line" smooth="yes"/>
      <point x="150" y="34"/>
      <point x="154" y="29"/>
    </contour>
    <contour>
      <point x="185" y="700" type="line"/>
      <point x="180" y="678"/>
      <point x="174" y="657"/>
      <point x="169" y="634" type="curve"/>
      <point x="168" y="631"/>
      <point x="168" y="628"/>
      <point x="170" y="626" type="curve" smooth="yes"/>
      <point x="171" y="624"/>
      <point x="174" y="623"/>
      <point x="177" y="623" type="curve" smooth="yes"/>
      <point x="512" y="623" type="line"/>
      <point x="518" y="646"/>
      <point x="523" y="667"/>
      <point x="529" y="689" type="curve" smooth="yes"/>
      <point x="530" y="695"/>
      <point x="527" y="700"/>
      <point x="521" y="700" type="curve" smooth="yes"/>
    </contour>
    <contour>
      <point x="29" y="77" type="line"/>
      <point x="24" y="54"/>
      <point x="19" y="33"/>
      <point x="13" y="11" type="curve"/>
      <point x="12" y="8"/>
      <point x="12" y="5"/>
      <point x="14" y="3" type="curve" smooth="yes"/>
      <point x="15" y="1"/>
      <point x="18" y="0"/>
      <point x="21" y="0" type="curve" smooth="yes"/>
      <point x="357" y="0" type="line"/>
      <point x="362" y="22"/>
      <point x="367" y="44"/>
      <point x="373" y="66" type="curve" smooth="yes"/>
      <point x="374" y="72"/>
      <point x="371" y="77"/>
      <point x="365" y="77" type="curve" smooth="yes"/>
    </contour>
    <contour>
      <point x="361" y="711" type="move" name="top"/>
    </contour>
    <contour>
      <point x="356" y="-1" type="move" name="ogonek"/>
    </contour>
    <contour>
      <point x="183" y="-1" type="move" name="bottom"/>
    </contour>
  </outline>
</glyph>
<glyph name="J" format="1">
  <advance width="500"/>
  <unicode hex="004A"/>
  <outline>
    <contour>
      <point x="199" y="700" type="line"/>
      <point x="193" y="678"/>
      <point x="188" y="657"/>
      <point x="182" y="634" type="curve" smooth="yes"/>
      <point x="182" y="631"/>
      <point x="182" y="628"/>
      <point x="183" y="626" type="curve" smooth="yes"/>
      <point x="185" y="624"/>
      <point x="188" y="623"/>
      <point x="191" y="623" type="curve" smooth="yes"/>
      <point x="481" y="623" type="line"/>
      <point x="492" y="665"/>
      <point x="492" y="700"/>
      <point x="469" y="700" type="curve"/>
    </contour>
    <contour>
      <point x="417" y="215" type="curve" smooth="yes"/>
      <point x="535" y="689" type="line" smooth="yes"/>
      <point x="537" y="696"/>
      <point x="535" y="700"/>
      <point x="527" y="700" type="curve" smooth="yes"/>
      <point x="457" y="700" type="line"/>
      <point x="338" y="225" type="line" smooth="yes"/>
      <point x="325" y="168"/>
      <point x="318" y="142"/>
      <point x="308" y="103" type="curve"/>
      <point x="349" y="103"/>
      <point x="397" y="132"/>
    </contour>
    <contour>
      <point x="156" y="59" type="curve" smooth="yes"/>
      <point x="105" y="59"/>
      <point x="65" y="73"/>
      <point x="27" y="100" type="curve"/>
      <point x="13" y="100" type="line"/>
      <point x="7" y="77"/>
      <point x="2" y="58"/>
      <point x="-3" y="37" type="curve"/>
      <point x="-4" y="33"/>
      <point x="-4" y="29"/>
      <point x="-2" y="27" type="curve" smooth="yes"/>
      <point x="16" y="8"/>
      <point x="73" y="-17"/>
      <point x="144" y="-17" type="curve" smooth="yes"/>
      <point x="155" y="-17" type="line" smooth="yes"/>
      <point x="288" y="-17"/>
      <point x="376" y="50"/>
      <point x="417" y="215" type="curve"/>
      <point x="420" y="224"/>
      <point x="416" y="241"/>
      <point x="338" y="225" type="curve"/>
      <point x="309" y="108"/>
      <point x="252" y="59"/>
    </contour>
    <contour>
      <point x="366" y="711" type="move" name="top"/>
    </contour>
  </outline>
</glyph>
<glyph name="L" format="1">
  <advance width="550"/>
  <unicode hex="004C"/>
  <outline>
    <contour>
      <point x="114" y="50" type="curve"/>
      <point x="274" y="689" type="line" smooth="yes"/>
      <point x="275" y="692"/>
      <point x="274" y="695"/>
      <point x="273" y="697" type="curve" smooth="yes"/>
      <point x="271" y="699"/>
      <point x="269" y="700"/>
      <point x="266" y="700" type="curve" smooth="yes"/>
      <point x="241" y="700"/>
      <point x="217" y="700"/>
      <point x="192" y="700" type="curve"/>
      <point x="184" y="667"/>
      <point x="176" y="634"/>
      <point x="167" y="601" type="curve" smooth="yes"/>
      <point x="32" y="61" type="line" smooth="yes"/>
      <point x="31" y="55"/>
      <point x="35" y="50"/>
    </contour>
    <contour>
      <point x="36" y="77" type="line"/>
      <point x="20" y="11" type="line" smooth="yes"/>
      <point x="18" y="4"/>
      <point x="21" y="0"/>
      <point x="28" y="0" type="curve" smooth="yes"/>
      <point x="427" y="0" type="line"/>
      <point x="432" y="22"/>
      <point x="437" y="43"/>
      <point x="443" y="66" type="curve" smooth="yes"/>
      <point x="444" y="72"/>
      <point x="441" y="77"/>
      <point x="435" y="77" type="curve" smooth="yes"/>
    </contour>
    <contour>
      <point x="462" y="550" type="move" name="caronslovak"/>
    </contour>
    <contour>
      <point x="238" y="711" type="move" name="top"/>
    </contour>
    <contour>
      <point x="472" y="400" type="move" name="dot"/>
    </contour>
    <contour>
      <point x="222" y="-1" type="move" name="bottom"/>
    </contour>
  </outline>
</glyph>
<glyph name="M" format="1">
  <advance width="800"/>
  <unicode hex="004D"/>
  <outline>
    <contour>
      <point x="97" y="0" type="curve"/>
      <point x="114" y="67"/>
      <point x="131" y="134"/>
      <point x="147" y="201" type="curve" smooth="yes"/>
      <point x="186" y="364"/>
      <point x="225" y="528"/>
      <point x="264" y="689" type="curve" smooth="yes"/>
      <point x="265" y="692"/>
      <point x="264" y="695"/>
      <point x="263" y="697" type="curve" smooth="yes"/>
      <point x="261" y="699"/>
      <point x="259" y="700"/>
      <point x="256" y="700" type="curve" smooth="yes"/>
      <point x="234" y="700"/>
      <point x="214" y="700"/>
      <point x="193" y="700" type="curve"/>
      <point x="184" y="663"/>
      <point x="174" y="625"/>
      <point x="165" y="588" type="curve" smooth="yes"/>
      <point x="117" y="396"/>
      <point x="69" y="203"/>
      <point x="21" y="11" type="curve" smooth="yes"/>
      <point x="20" y="8"/>
      <point x="20" y="5"/>
      <point x="22" y="3" type="curve" smooth="yes"/>
      <point x="23" y="1"/>
      <point x="26" y="0"/>
      <point x="29" y="0" type="curve" smooth="yes"/>
      <point x="52" y="0"/>
      <point x="74" y="0"/>
    </contour>
    <contour>
      <point x="650" y="0" type="curve"/>
      <point x="659" y="37"/>
      <point x="668" y="75"/>
      <point x="678" y="112" type="curve" smooth="yes"/>
      <point x="726" y="304"/>
      <point x="774" y="497"/>
      <point x="822" y="689" type="curve"/>
      <point x="823" y="692"/>
      <point x="822" y="695"/>
      <point x="821" y="697" type="curve" smooth="yes"/>
      <point x="819" y="699"/>
      <point x="817" y="700"/>
      <point x="814" y="700" type="curve" smooth="yes"/>
      <point x="749" y="700" type="line"/>
      <point x="748" y="693"/>
      <point x="746" y="686"/>
      <point x="744" y="679" type="curve"/>
      <point x="702" y="520"/>
      <point x="660" y="360"/>
      <point x="618" y="201" type="curve" smooth="yes"/>
      <point x="603" y="139"/>
      <point x="587" y="76"/>
      <point x="571" y="14" type="curve" smooth="yes"/>
      <point x="570" y="8"/>
      <point x="571" y="5"/>
      <point x="572" y="3" type="curve" smooth="yes"/>
      <point x="574" y="1"/>
      <point x="575" y="0"/>
      <point x="579" y="0" type="curve" smooth="yes"/>
      <point x="603" y="0"/>
      <point x="626" y="0"/>
    </contour>
    <contour>
      <point x="307" y="687" type="curve" smooth="yes"/>
      <point x="305" y="696"/>
      <point x="302" y="700"/>
      <point x="294" y="700" type="curve"/>
      <point x="227" y="700" type="line"/>
      <point x="230" y="683"/>
      <point x="236" y="667"/>
      <point x="239" y="649" type="curve" smooth="yes"/>
      <point x="269" y="477"/>
      <point x="299" y="305"/>
      <point x="328" y="133" type="curve"/>
      <point x="329" y="129"/>
      <point x="333" y="126"/>
      <point x="337" y="126" type="curve" smooth="yes"/>
      <point x="346" y="126"/>
      <point x="350" y="130"/>
      <point x="395" y="187" type="curve"/>
      <point x="365" y="354"/>
      <point x="336" y="520"/>
    </contour>
    <contour>
      <point x="702" y="700" type="curve"/>
      <point x="587" y="529"/>
      <point x="472" y="358"/>
      <point x="357" y="187" type="curve"/>
      <point x="330" y="135"/>
      <point x="332" y="128"/>
      <point x="337" y="126" type="curve"/>
      <point x="397" y="126" type="line"/>
      <point x="519" y="307"/>
      <point x="642" y="488"/>
      <point x="764" y="669" type="curve" smooth="yes"/>
      <point x="782" y="695"/>
      <point x="777" y="700"/>
      <point x="772" y="700" type="curve" smooth="yes"/>
      <point x="758" y="700"/>
      <point x="714" y="700"/>
    </contour>
  </outline>
</glyph>
<glyph name="N" format="1">
  <advance width="700"/>
  <unicode hex="004E"/>
  <outline>
    <contour>
      <point x="98" y="0" type="curve"/>
      <point x="230" y="525" type="line"/>
      <point x="253" y="643"/>
      <point x="263" y="694"/>
      <point x="260" y="697" type="curve" smooth="yes"/>
      <point x="259" y="699"/>
      <point x="256" y="700"/>
      <point x="253" y="700" type="curve"/>
      <point x="236" y="700"/>
      <point x="203" y="700"/>
      <point x="192" y="700" type="curve"/>
      <point x="180" y="653"/>
      <point x="169" y="607"/>
      <point x="157" y="560" type="curve" smooth="yes"/>
      <point x="20" y="11" type="line"/>
      <point x="18" y="5"/>
      <point x="22" y="0"/>
      <point x="28" y="0" type="curve"/>
      <point x="51" y="0"/>
      <point x="75" y="0"/>
    </contour>
    <contour>
      <point x="550" y="0" type="line"/>
      <point x="722" y="689" type="line"/>
      <point x="723" y="695"/>
      <point x="720" y="700"/>
      <point x="714" y="700" type="curve"/>
      <point x="643" y="700" type="line"/>
      <point x="509" y="161" type="line"/>
      <point x="492" y="65"/>
      <point x="482" y="5"/>
      <point x="484" y="3" type="curve" smooth="yes"/>
      <point x="485" y="1"/>
      <point x="488" y="0"/>
      <point x="491" y="0" type="curve"/>
    </contour>
    <contour>
      <point x="250" y="700" type="line"/>
      <point x="235" y="688"/>
      <point x="234" y="686"/>
      <point x="212" y="655" type="curve"/>
      <point x="293" y="439"/>
      <point x="373" y="223"/>
      <point x="454" y="7" type="curve"/>
      <point x="455" y="2"/>
      <point x="459" y="0"/>
      <point x="465" y="0" type="curve" smooth="yes"/>
      <point x="483" y="0"/>
      <point x="488" y="0"/>
      <point x="509" y="0" type="curve"/>
      <point x="511" y="8"/>
      <point x="516" y="47"/>
      <point x="517" y="75" type="curve"/>
      <point x="439" y="280"/>
      <point x="362" y="485"/>
      <point x="286" y="690" type="curve"/>
      <point x="283" y="698"/>
      <point x="280" y="700"/>
      <point x="271" y="700" type="curve"/>
    </contour>
    <contour>
      <point x="461" y="711" type="move" name="top"/>
    </contour>
    <contour>
      <point x="283" y="-1" type="move" name="bottom"/>
    </contour>
  </outline>
</glyph>
<glyph name="P" format="1">
  <advance width="600"/>
  <unicode hex="0050"/>
  <outline>
    <contour>
      <point x="108" y="0" type="curve"/>
      <point x="116" y="32"/>
      <point x="125" y="66"/>
      <point x="133" y="100" type="curve" smooth="yes"/>
      <point x="273" y="660" type="line" smooth="yes"/>
      <point x="275" y="666"/>
      <point x="271" y="671"/>
      <point x="193" y="671" type="curve"/>
      <point x="29" y="11" type="line" smooth="yes"/>
      <point x="28" y="8"/>
      <point x="28" y="5"/>
      <point x="30" y="3" type="curve" smooth="yes"/>
      <point x="31" y="1"/>
      <point x="34" y="0"/>
      <point x="37" y="0" type="curve" smooth="yes"/>
      <point x="61" y="0"/>
      <point x="84" y="0"/>
    </contour>
    <contour>
      <point x="142" y="700" type="curve"/>
      <point x="136" y="678"/>
      <point x="132" y="659"/>
      <point x="126" y="637" type="curve"/>
      <point x="125" y="634"/>
      <point x="125" y="631"/>
      <point x="127" y="629" type="curve" smooth="yes"/>
      <point x="128" y="627"/>
      <point x="131" y="626"/>
      <point x="134" y="626" type="curve" smooth="yes"/>
      <point x="152" y="626"/>
      <point x="174" y="626"/>
      <point x="198" y="626" type="curve" smooth="yes"/>
      <point x="253" y="626"/>
      <point x="348" y="626"/>
      <point x="400" y="626" type="curve" smooth="yes"/>
      <point x="453" y="626"/>
      <point x="466" y="626"/>
      <point x="493" y="626" type="curve"/>
      <point x="503" y="669"/>
      <point x="485" y="700"/>
      <point x="418" y="700" type="curve" smooth="yes"/>
      <point x="344" y="700"/>
      <point x="232" y="700"/>
    </contour>
    <contour>
      <point x="579" y="429" type="curve" smooth="yes"/>
      <point x="596" y="498" type="line" smooth="yes"/>
      <point x="630" y="633"/>
      <point x="549" y="700"/>
      <point x="418" y="700" type="curve"/>
      <point x="416" y="700"/>
      <point x="396" y="686"/>
      <point x="400" y="626" type="curve"/>
      <point x="500" y="626"/>
      <point x="532" y="587"/>
      <point x="513" y="507" type="curve" smooth="yes"/>
      <point x="495" y="437" type="line" smooth="yes"/>
      <point x="476" y="362"/>
      <point x="421" y="324"/>
      <point x="332" y="324" type="curve" smooth="yes"/>
      <point x="280" y="324"/>
      <point x="218" y="324"/>
      <point x="163" y="324" type="curve"/>
      <point x="157" y="300"/>
      <point x="154" y="287"/>
      <point x="147" y="261" type="curve" smooth="yes"/>
      <point x="146" y="255"/>
      <point x="150" y="250"/>
      <point x="156" y="250" type="curve" smooth="yes"/>
      <point x="319" y="250" type="line" smooth="yes"/>
      <point x="455" y="250"/>
      <point x="548" y="305"/>
    </contour>
  </outline>
</glyph>
<glyph name="Q" format="1">
  <advance width="650"/>
  <unicode hex="0051"/>
  <outline>
    <contour>
      <point x="422" y="720" type="curve" smooth="yes"/>
      <point x="264" y="720"/>
      <point x="159" y="622"/>
      <point x="117" y="456" type="curve" smooth="yes"/>
      <point x="65" y="252" type="line" smooth="yes"/>
      <point x="21" y="77"/>
      <point x="115" y="-20"/>
      <point x="270" y="-20" type="curve" smooth="yes"/>
      <point x="272" y="-20"/>
      <point x="285" y="-7"/>
      <point x="281" y="57" type="curve"/>
      <point x="164" y="57"/>
      <point x="116" y="130"/>
      <point x="146" y="246" type="curve" smooth="yes"/>
      <point x="198" y="452" type="line" smooth="yes"/>
      <point x="226" y="563"/>
      <point x="294" y="643"/>
      <point x="411" y="643" type="curve" smooth="yes"/>
      <point x="455" y="643"/>
      <point x="499" y="643"/>
      <point x="526" y="643" type="curve"/>
      <point x="535" y="682"/>
      <point x="496" y="720"/>
    </contour>
    <contour>
      <point x="270" y="-20" type="curve" smooth="yes"/>
      <point x="427" y="-20"/>
      <point x="530" y="67"/>
      <point x="573" y="236" type="curve" smooth="yes"/>
      <point x="625" y="444" type="line" smooth="yes"/>
      <point x="671" y="621"/>
      <point x="576" y="720"/>
      <point x="422" y="720" type="curve" smooth="yes"/>
      <point x="419" y="720"/>
      <point x="406" y="709"/>
      <point x="411" y="643" type="curve"/>
      <point x="528" y="643"/>
      <point x="576" y="569"/>
      <point x="546" y="454" type="curve" smooth="yes"/>
      <point x="494" y="250" type="line" smooth="yes"/>
      <point x="467" y="138"/>
      <point x="398" y="57"/>
      <point x="281" y="57" type="curve" smooth="yes"/>
      <point x="237" y="57"/>
      <point x="193" y="57"/>
      <point x="166" y="57" type="curve"/>
      <point x="156" y="18"/>
      <point x="195" y="-20"/>
    </contour>
    <contour>
      <point x="405" y="67" type="line"/>
      <point x="334" y="37"/>
      <point x="329" y="31"/>
      <point x="334" y="19" type="curve" smooth="yes"/>
      <point x="384" y="-94" type="line" smooth="yes"/>
      <point x="402" y="-136"/>
      <point x="422" y="-153"/>
      <point x="473" y="-153" type="curve" smooth="yes"/>
      <point x="497" y="-153" type="line" smooth="yes"/>
      <point x="504" y="-153"/>
      <point x="509" y="-149"/>
      <point x="511" y="-142" type="curve" smooth="yes"/>
      <point x="517" y="-118"/>
      <point x="523" y="-93"/>
      <point x="529" y="-69" type="curve"/>
      <point x="521" y="-69" type="line"/>
      <point x="516" y="-69"/>
      <point x="508" y="-69"/>
      <point x="500" y="-69" type="curve" smooth="yes"/>
      <point x="475" y="-69"/>
      <point x="463" y="-64"/>
      <point x="452" y="-40" type="curve" smooth="yes"/>
    </contour>
  </outline>
</glyph>
<glyph name="R" format="1">
  <advance width="600"/>
  <unicode hex="0052"/>
  <outline>
    <contour>
      <point x="108" y="0" type="curve"/>
      <point x="116" y="32"/>
      <point x="125" y="66"/>
      <point x="133" y="100" type="curve" smooth="yes"/>
      <point x="273" y="660" type="line" smooth="yes"/>
      <point x="275" y="666"/>
      <point x="271" y="671"/>
      <point x="193" y="671" type="curve"/>
      <point x="29" y="11" type="line" smooth="yes"/>
      <point x="28" y="8"/>
      <point x="28" y="5"/>
      <point x="30" y="3" type="curve" smooth="yes"/>
      <point x="31" y="1"/>
      <point x="34" y="0"/>
      <point x="37" y="0" type="curve" smooth="yes"/>
      <point x="61" y="0"/>
      <point x="84" y="0"/>
    </contour>
    <contour>
      <point x="142" y="700" type="curve"/>
      <point x="136" y="678"/>
      <point x="132" y="659"/>
      <point x="126" y="637" type="curve"/>
      <point x="125" y="634"/>
      <point x="125" y="631"/>
      <point x="127" y="629" type="curve" smooth="yes"/>
      <point x="128" y="627"/>
      <point x="131" y="626"/>
      <point x="134" y="626" type="curve" smooth="yes"/>
      <point x="152" y="626"/>
      <point x="174" y="626"/>
      <point x="198" y="626" type="curve" smooth="yes"/>
      <point x="252" y="626"/>
      <point x="348" y="626"/>
      <point x="399" y="626" type="curve" smooth="yes"/>
      <point x="452" y="626"/>
      <point x="465" y="626"/>
      <point x="493" y="626" type="curve"/>
      <point x="503" y="669"/>
      <point x="482" y="700"/>
      <point x="415" y="700" type="curve" smooth="yes"/>
      <point x="341" y="700"/>
      <point x="232" y="700"/>
    </contour>
    <contour>
      <point x="566" y="443" type="curve" smooth="yes"/>
      <point x="579" y="493" type="line" smooth="yes"/>
      <point x="616" y="639"/>
      <point x="534" y="700"/>
      <point x="415" y="700" type="curve"/>
      <point x="414" y="700"/>
      <point x="395" y="686"/>
      <point x="399" y="626" type="curve"/>
      <point x="491" y="626"/>
      <point x="516" y="582"/>
      <point x="496" y="503" type="curve" smooth="yes"/>
      <point x="483" y="451" type="line" smooth="yes"/>
      <point x="464" y="374"/>
      <point x="415" y="345"/>
      <point x="332" y="345" type="curve" smooth="yes"/>
      <point x="280" y="345"/>
      <point x="222" y="345"/>
      <point x="169" y="345" type="curve"/>
      <point x="163" y="322"/>
      <point x="159" y="310"/>
      <point x="153" y="285" type="curve" smooth="yes"/>
      <point x="152" y="279"/>
      <point x="155" y="274"/>
      <point x="161" y="274" type="curve" smooth="yes"/>
      <point x="323" y="274" type="line" smooth="yes"/>
      <point x="448" y="274"/>
      <point x="536" y="322"/>
    </contour>
    <contour>
      <point x="373" y="332" type="line"/>
      <point x="299" y="309"/>
      <point x="300" y="302"/>
      <point x="304" y="290" type="curve" smooth="yes"/>
      <point x="365" y="71" type="line" smooth="yes"/>
      <point x="379" y="18"/>
      <point x="404" y="-3"/>
      <point x="457" y="-3" type="curve" smooth="yes"/>
      <point x="481" y="-3" type="line" smooth="yes"/>
      <point x="488" y="-3"/>
      <point x="493" y="1"/>
      <point x="495" y="8" type="curve" smooth="yes"/>
      <point x="501" y="31"/>
      <point x="507" y="52"/>
      <point x="512" y="75" type="curve"/>
      <point x="504" y="75" type="line"/>
      <point x="499" y="75"/>
      <point x="490" y="75"/>
      <point x="483" y="75" type="curve" smooth="yes"/>
      <point x="455" y="75"/>
      <point x="443" y="83"/>
      <point x="434" y="115" type="curve" smooth="yes"/>
    </contour>
    <contour>
      <point x="408" y="711" type="move" name="top"/>
    </contour>
    <contour>
      <point x="230" y="-1" type="move" name="bottom"/>
    </contour>
  </outline>
</glyph>
<glyph name="S" format="1">
  <advance width="600"/>
  <unicode hex="0053"/>
  <outline>
    <contour>
      <point x="424" y="717" type="curve" smooth="yes"/>
      <point x="279" y="717"/>
      <point x="186" y="665"/>
      <point x="158" y="556" type="curve" smooth="yes"/>
      <point x="148" y="515" type="line" smooth="yes"/>
      <point x="142" y="490"/>
      <point x="169" y="457"/>
      <point x="211" y="450" type="curve"/>
      <point x="216" y="471"/>
      <point x="228" y="522"/>
      <point x="234" y="544" type="curve" smooth="yes"/>
      <point x="252" y="614"/>
      <point x="312" y="645"/>
      <point x="407" y="645" type="curve" smooth="yes"/>
      <point x="479" y="645"/>
      <point x="542" y="627"/>
      <point x="570" y="595" type="curve"/>
      <point x="608" y="629"/>
      <point x="611" y="635"/>
      <point x="613" y="641" type="curve" smooth="yes"/>
      <point x="615" y="652"/>
      <point x="614" y="654"/>
      <point x="610" y="660" type="curve" smooth="yes"/>
      <point x="586" y="690"/>
      <point x="513" y="717"/>
    </contour>
    <contour>
      <point x="398" y="370" type="curve" smooth="yes"/>
      <point x="310" y="398" type="line" smooth="yes"/>
      <point x="226" y="425"/>
      <point x="213" y="458"/>
      <point x="227" y="515" type="curve" smooth="yes"/>
      <point x="234" y="543"/>
      <point x="237" y="558"/>
      <point x="250" y="606" type="curve"/>
      <point x="194" y="597"/>
      <point x="166" y="585"/>
      <point x="148" y="515" type="curve" smooth="yes"/>
      <point x="130" y="442"/>
      <point x="154" y="372"/>
      <point x="270" y="334" type="curve" smooth="yes"/>
      <point x="359" y="305" type="line" smooth="yes"/>
      <point x="436" y="280"/>
      <point x="450" y="253"/>
      <point x="434" y="188" type="curve" smooth="yes"/>
      <point x="429" y="166"/>
      <point x="418" y="123"/>
      <point x="411" y="96" type="curve"/>
      <point x="445" y="96"/>
      <point x="503" y="145"/>
      <point x="514" y="187" type="curve"/>
      <point x="535" y="271"/>
      <point x="505" y="336"/>
    </contour>
    <contour>
      <point x="244" y="-17" type="curve" smooth="yes"/>
      <point x="389" y="-17"/>
      <point x="475" y="31"/>
      <point x="501" y="136" type="curve" smooth="yes"/>
      <point x="514" y="187" type="line" smooth="yes"/>
      <point x="518" y="203"/>
      <point x="491" y="229"/>
      <point x="445" y="229" type="curve"/>
      <point x="439" y="204"/>
      <point x="429" y="170"/>
      <point x="423" y="145" type="curve" smooth="yes"/>
      <point x="409" y="90"/>
      <point x="352" y="57"/>
      <point x="256" y="57" type="curve" smooth="yes"/>
      <point x="159" y="57"/>
      <point x="106" y="81"/>
      <point x="54" y="132" type="curve"/>
      <point x="40" y="132" type="line"/>
      <point x="35" y="116"/>
      <point x="30" y="98"/>
      <point x="22" y="67" type="curve" smooth="yes"/>
      <point x="21" y="63"/>
      <point x="21" y="60"/>
      <point x="23" y="57" type="curve" smooth="yes"/>
      <point x="52" y="18"/>
      <point x="132" y="-17"/>
    </contour>
    <contour>
      <point x="582" y="517" type="curve"/>
      <point x="613" y="641" type="line" smooth="yes"/>
      <point x="616" y="653"/>
      <point x="611" y="664"/>
      <point x="539" y="664" type="curve"/>
      <point x="537" y="657"/>
      <point x="535" y="650"/>
      <point x="533" y="641" type="curve" smooth="yes"/>
      <point x="504" y="528" type="line" smooth="yes"/>
      <point x="503" y="523"/>
      <point x="504" y="520"/>
      <point x="505" y="519" type="curve" smooth="yes"/>
      <point x="507" y="517"/>
      <point x="510" y="517"/>
      <point x="513" y="517" type="curve" smooth="yes"/>
      <point x="536" y="517"/>
      <point x="559" y="517"/>
    </contour>
    <contour>
      <point x="418" y="711" type="move" name="top"/>
    </contour>
    <contour>
      <point x="235" y="-1" type="move" name="bottom"/>
    </contour>
  </outline>
</glyph>
<glyph name="T" format="1">
  <advance width="600"/>
  <unicode hex="0054"/>
  <outline>
    <contour>
      <point x="165" y="700" type="line"/>
      <point x="160" y="679"/>
      <point x="155" y="658"/>
      <point x="150" y="637" type="curve" smooth="yes"/>
      <point x="149" y="634"/>
      <point x="149" y="631"/>
      <point x="151" y="629" type="curve" smooth="yes"/>
      <point x="152" y="627"/>
      <point x="155" y="626"/>
      <point x="158" y="626" type="curve" smooth="yes"/>
      <point x="633" y="626" type="line"/>
      <point x="638" y="647"/>
      <point x="643" y="668"/>
      <point x="649" y="689" type="curve" smooth="yes"/>
      <point x="651" y="695"/>
      <point x="647" y="700"/>
      <point x="641" y="700" type="curve" smooth="yes"/>
    </contour>
    <contour>
      <point x="276" y="0" type="curve"/>
      <point x="284" y="32"/>
      <point x="292" y="66"/>
      <point x="301" y="100" type="curve" smooth="yes"/>
      <point x="440" y="660" type="line" smooth="yes"/>
      <point x="442" y="666"/>
      <point x="438" y="671"/>
      <point x="359" y="671" type="curve"/>
      <point x="194" y="11" type="line" smooth="yes"/>
      <point x="193" y="7"/>
      <point x="193" y="4"/>
      <point x="195" y="2" type="curve" smooth="yes"/>
      <point x="197" y="0"/>
      <point x="199" y="0"/>
      <point x="202" y="0" type="curve" smooth="yes"/>
      <point x="227" y="0"/>
      <point x="251" y="0"/>
    </contour>
    <contour>
      <point x="411" y="711" type="move" name="top"/>
    </contour>
    <contour>
      <point x="233" y="-1" type="move" name="bottom"/>
    </contour>
  </outline>
</glyph>
<glyph name="U" format="1">
  <advance width="650"/>
  <unicode hex="0055"/>
  <outline>
    <contour>
      <point x="189" y="700" type="curve"/>
      <point x="181" y="667"/>
      <point x="172" y="633"/>
      <point x="164" y="599" type="curve" smooth="yes"/>
      <point x="59" y="179" type="line"/>
      <point x="51" y="149"/>
      <point x="65" y="112"/>
      <point x="125" y="108" type="curve"/>
      <point x="135" y="146"/>
      <point x="137" y="155"/>
      <point x="147" y="194" type="curve"/>
      <point x="270" y="689" type="line"/>
      <point x="272" y="695"/>
      <point x="268" y="700"/>
      <point x="262" y="700" type="curve"/>
      <point x="238" y="700"/>
      <point x="213" y="700"/>
    </contour>
    <contour>
      <point x="208" y="-17" type="curve" smooth="yes"/>
      <point x="306" y="-17"/>
      <point x="384" y="34"/>
      <point x="453" y="117" type="curve" smooth="yes"/>
      <point x="478" y="150"/>
      <point x="499" y="188"/>
      <point x="484" y="226" type="curve"/>
      <point x="389" y="112"/>
      <point x="313" y="63"/>
      <point x="231" y="63" type="curve" smooth="yes"/>
      <point x="156" y="63"/>
      <point x="125" y="108"/>
      <point x="147" y="194" type="curve"/>
      <point x="86" y="193"/>
      <point x="60" y="185"/>
      <point x="59" y="179" type="curve" smooth="yes"/>
      <point x="30" y="66"/>
      <point x="81" y="-17"/>
    </contour>
    <contour>
      <point x="500" y="0" type="curve"/>
      <point x="508" y="33"/>
      <point x="517" y="68"/>
      <point x="525" y="103" type="curve" smooth="yes"/>
      <point x="672" y="689" type="line" smooth="yes"/>
      <point x="673" y="695"/>
      <point x="670" y="700"/>
      <point x="664" y="700" type="curve" smooth="yes"/>
      <point x="639" y="700"/>
      <point x="615" y="700"/>
      <point x="590" y="700" type="curve"/>
      <point x="418" y="11" type="line" smooth="yes"/>
      <point x="417" y="8"/>
      <point x="417" y="5"/>
      <point x="419" y="3" type="curve" smooth="yes"/>
      <point x="420" y="1"/>
      <point x="423" y="0"/>
      <point x="426" y="0" type="curve" smooth="yes"/>
      <point x="451" y="0"/>
      <point x="475" y="0"/>
    </contour>
    <contour>
      <point x="434" y="711" type="move" name="top"/>
    </contour>
    <contour>
      <point x="499" y="-1" type="move" name="ogonek"/>
    </contour>
    <contour>
      <point x="434" y="711" type="move" name="ring"/>
    </contour>
    <contour>
      <point x="256" y="-1" type="move" name="bottom"/>
    </contour>
  </outline>
</glyph>
<glyph name="V" format="1">
  <advance width="650"/>
  <unicode hex="0056"/>
  <outline>
    <contour>
      <point x="216" y="700" type="curve"/>
      <point x="143" y="700" type="line"/>
      <point x="157" y="469"/>
      <point x="170" y="237"/>
      <point x="184" y="5" type="curve"/>
      <point x="184" y="-3"/>
      <point x="190" y="-7"/>
      <point x="196" y="-7" type="curve"/>
      <point x="229" y="-7"/>
      <point x="276" y="3"/>
      <point x="307" y="67" type="curve"/>
      <point x="290" y="67"/>
      <point x="281" y="67"/>
      <point x="270" y="67" type="curve" smooth="yes"/>
      <point x="262" y="67"/>
      <point x="261" y="68"/>
      <point x="260" y="79" type="curve"/>
      <point x="248" y="283"/>
      <point x="236" y="487"/>
      <point x="225" y="691" type="curve"/>
      <point x="225" y="697"/>
      <point x="222" y="700"/>
    </contour>
    <contour>
      <point x="713" y="700" type="curve"/>
      <point x="636" y="700" type="line"/>
      <point x="516" y="484"/>
      <point x="395" y="266"/>
      <point x="274" y="50" type="curve"/>
      <point x="255" y="12"/>
      <point x="224" y="0"/>
      <point x="196" y="-7" type="curve"/>
      <point x="329" y="-7" type="line"/>
      <point x="458" y="224"/>
      <point x="587" y="455"/>
      <point x="717" y="686" type="curve"/>
      <point x="721" y="694"/>
      <point x="719" y="700"/>
    </contour>
  </outline>
</glyph>
<glyph name="W" format="1">
  <advance width="900"/>
  <unicode hex="0057"/>
  <outline>
    <contour>
      <point x="147" y="700" type="curve"/>
      <point x="143" y="471"/>
      <point x="137" y="240"/>
      <point x="132" y="12" type="curve"/>
      <point x="132" y="4"/>
      <point x="138" y="0"/>
      <point x="145" y="0" type="curve"/>
      <point x="164" y="0" type="line" smooth="yes"/>
      <point x="181" y="0"/>
      <point x="206" y="13"/>
      <point x="212" y="28" type="curve"/>
      <point x="218" y="247"/>
      <point x="225" y="468"/>
      <point x="231" y="687" type="curve"/>
      <point x="232" y="694"/>
      <point x="231" y="696"/>
      <point x="230" y="698" type="curve" smooth="yes"/>
      <point x="229" y="699"/>
      <point x="227" y="700"/>
      <point x="224" y="700" type="curve"/>
      <point x="197" y="700"/>
      <point x="173" y="700"/>
    </contour>
    <contour>
      <point x="880" y="700" type="curve"/>
      <point x="777" y="484"/>
      <point x="675" y="266"/>
      <point x="573" y="49" type="curve"/>
      <point x="561" y="19"/>
      <point x="552" y="7"/>
      <point x="538" y="0" type="curve"/>
      <point x="635" y="0" type="line"/>
      <point x="745" y="229"/>
      <point x="854" y="459"/>
      <point x="964" y="688" type="curve" smooth="yes"/>
      <point x="967" y="693"/>
      <point x="967" y="696"/>
      <point x="965" y="698" type="curve" smooth="yes"/>
      <point x="964" y="699"/>
      <point x="963" y="700"/>
      <point x="959" y="700" type="curve"/>
      <point x="933" y="700"/>
      <point x="906" y="700"/>
    </contour>
    <contour>
      <point x="553" y="608" type="curve"/>
      <point x="491" y="608" type="line"/>
      <point x="392" y="422"/>
      <point x="294" y="235"/>
      <point x="195" y="49" type="curve"/>
      <point x="180" y="17"/>
      <point x="164" y="10"/>
      <point x="145" y="0" type="curve"/>
      <point x="247" y="0" type="line"/>
      <point x="351" y="196"/>
      <point x="454" y="392"/>
      <point x="558" y="588" type="curve" smooth="yes"/>
      <point x="565" y="602"/>
      <point x="562" y="608"/>
    </contour>
    <contour>
      <point x="570" y="608" type="curve"/>
      <point x="505" y="608" type="line"/>
      <point x="510" y="409"/>
      <point x="514" y="210"/>
      <point x="519" y="12" type="curve" smooth="yes"/>
      <point x="519" y="4"/>
      <point x="525" y="0"/>
      <point x="531" y="0" type="curve"/>
      <point x="564" y="0" type="line"/>
      <point x="574" y="0"/>
      <point x="591" y="10"/>
      <point x="591" y="25" type="curve"/>
      <point x="587" y="216"/>
      <point x="582" y="407"/>
      <point x="578" y="597" type="curve" smooth="yes"/>
      <point x="577" y="606"/>
      <point x="574" y="608"/>
    </contour>
    <contour>
      <point x="559" y="711" type="move" name="top"/>
    </contour>
  </outline>
</glyph>
<glyph name="X" format="1">
  <advance width="650"/>
  <unicode hex="0058"/>
  <outline>
    <contour>
      <point x="477" y="0" type="curve" smooth="yes"/>
      <point x="505" y="0"/>
      <point x="527" y="0"/>
      <point x="554" y="0" type="curve"/>
      <point x="498" y="123"/>
      <point x="443" y="245"/>
      <point x="386" y="370" type="curve" smooth="yes"/>
      <point x="381" y="383"/>
      <point x="371" y="389"/>
      <point x="367" y="400" type="curve" smooth="yes"/>
      <point x="323" y="498"/>
      <point x="280" y="595"/>
      <point x="236" y="691" type="curve" smooth="yes"/>
      <point x="233" y="698"/>
      <point x="228" y="700"/>
      <point x="219" y="700" type="curve" smooth="yes"/>
      <point x="143" y="700" type="line"/>
      <point x="195" y="580"/>
      <point x="248" y="462"/>
      <point x="300" y="342" type="curve" smooth="yes"/>
      <point x="305" y="330"/>
      <point x="316" y="321"/>
      <point x="321" y="309" type="curve" smooth="yes"/>
      <point x="367" y="210"/>
      <point x="415" y="107"/>
      <point x="461" y="9" type="curve" smooth="yes"/>
      <point x="464" y="1"/>
      <point x="469" y="0"/>
    </contour>
    <contour>
      <point x="711" y="700" type="curve" smooth="yes"/>
      <point x="626" y="700" type="line"/>
      <point x="523" y="590"/>
      <point x="422" y="481"/>
      <point x="319" y="371" type="curve"/>
      <point x="303" y="353"/>
      <point x="325" y="338"/>
      <point x="374" y="322" type="curve"/>
      <point x="487" y="442"/>
      <point x="600" y="561"/>
      <point x="715" y="684" type="curve"/>
      <point x="721" y="691"/>
      <point x="721" y="694"/>
      <point x="719" y="697" type="curve" smooth="yes"/>
      <point x="718" y="699"/>
      <point x="715" y="700"/>
    </contour>
    <contour>
      <point x="-33" y="0" type="curve"/>
      <point x="53" y="0" type="line"/>
      <point x="155" y="110"/>
      <point x="258" y="219"/>
      <point x="360" y="329" type="curve"/>
      <point x="377" y="347"/>
      <point x="354" y="362"/>
      <point x="306" y="378" type="curve"/>
      <point x="192" y="258"/>
      <point x="76" y="136"/>
      <point x="-37" y="17" type="curve" smooth="yes"/>
      <point x="-42" y="11"/>
      <point x="-43" y="6"/>
      <point x="-41" y="3" type="curve" smooth="yes"/>
      <point x="-40" y="1"/>
      <point x="-37" y="0"/>
    </contour>
  </outline>
</glyph>
<glyph name="Y" format="1">
  <advance width="600"/>
  <unicode hex="0059"/>
  <outline>
    <contour>
      <point x="141" y="700" type="line"/>
      <point x="181" y="556"/>
      <point x="224" y="406"/>
      <point x="264" y="262" type="curve"/>
      <point x="266" y="256"/>
      <point x="272" y="255"/>
      <point x="279" y="255" type="curve"/>
      <point x="306" y="255"/>
      <point x="323" y="297"/>
      <point x="325" y="325" type="curve"/>
      <point x="293" y="445"/>
      <point x="261" y="568"/>
      <point x="230" y="688" type="curve"/>
      <point x="228" y="695"/>
      <point x="226" y="700"/>
      <point x="215" y="700" type="curve" smooth="yes"/>
    </contour>
    <contour>
      <point x="579" y="700" type="line"/>
      <point x="484" y="575"/>
      <point x="390" y="448"/>
      <point x="295" y="323" type="curve"/>
      <point x="273" y="290"/>
      <point x="281" y="263"/>
      <point x="279" y="255" type="curve"/>
      <point x="328" y="255" type="line"/>
      <point x="438" y="396"/>
      <point x="555" y="544"/>
      <point x="666" y="685" type="curve"/>
      <point x="672" y="693"/>
      <point x="668" y="700"/>
      <point x="662" y="700" type="curve"/>
    </contour>
    <contour>
      <point x="273" y="0" type="curve"/>
      <point x="281" y="32"/>
      <point x="289" y="66"/>
      <point x="298" y="100" type="curve" smooth="yes"/>
      <point x="348" y="303" type="line" smooth="yes"/>
      <point x="350" y="309"/>
      <point x="346" y="314"/>
      <point x="267" y="314" type="curve"/>
      <point x="191" y="11" type="line" smooth="yes"/>
      <point x="190" y="8"/>
      <point x="190" y="5"/>
      <point x="192" y="3" type="curve" smooth="yes"/>
      <point x="193" y="1"/>
      <point x="196" y="0"/>
      <point x="199" y="0" type="curve" smooth="yes"/>
      <point x="224" y="0"/>
      <point x="248" y="0"/>
    </contour>
    <contour>
      <point x="411" y="711" type="move" name="top"/>
    </contour>
  </outline>
</glyph>
<glyph name="Z" format="1">
  <advance width="600"/>
  <unicode hex="005A"/>
  <outline>
    <contour>
      <point x="202" y="700" type="line"/>
      <point x="196" y="678"/>
      <point x="192" y="659"/>
      <point x="186" y="637" type="curve" smooth="yes"/>
      <point x="185" y="634"/>
      <point x="185" y="631"/>
      <point x="187" y="629" type="curve" smooth="yes"/>
      <point x="188" y="627"/>
      <point x="191" y="626"/>
      <point x="194" y="626" type="curve" smooth="yes"/>
      <point x="534" y="626" type="line" smooth="yes"/>
      <point x="556" y="626"/>
      <point x="592" y="627"/>
      <point x="620" y="630" type="curve" smooth="yes"/>
      <point x="626" y="631"/>
      <point x="632" y="631"/>
      <point x="635" y="631" type="curve"/>
      <point x="649" y="689" type="line" smooth="yes"/>
      <point x="651" y="695"/>
      <point x="647" y="700"/>
      <point x="641" y="700" type="curve" smooth="yes"/>
    </contour>
    <contour>
      <point x="560" y="662" type="curve"/>
      <point x="377" y="467"/>
      <point x="190" y="264"/>
      <point x="7" y="69" type="curve"/>
      <point x="70" y="41"/>
      <point x="84" y="40"/>
      <point x="91" y="47" type="curve" smooth="yes"/>
      <point x="338" y="310"/>
      <point x="634" y="630"/>
      <point x="635" y="631" type="curve"/>
      <point x="584" y="667"/>
      <point x="569" y="670"/>
    </contour>
    <contour>
      <point x="478" y="0" type="line"/>
      <point x="484" y="22"/>
      <point x="488" y="39"/>
      <point x="494" y="63" type="curve" smooth="yes"/>
      <point x="495" y="66"/>
      <point x="495" y="69"/>
      <point x="493" y="71" type="curve" smooth="yes"/>
      <point x="491" y="73"/>
      <point x="489" y="74"/>
      <point x="486" y="74" type="curve" smooth="yes"/>
      <point x="110" y="74" type="line" smooth="yes"/>
      <point x="79" y="74"/>
      <point x="41" y="73"/>
      <point x="7" y="69" type="curve"/>
      <point x="-7" y="11" type="line" smooth="yes"/>
      <point x="-8" y="5"/>
      <point x="-5" y="0"/>
      <point x="1" y="0" type="curve" smooth="yes"/>
    </contour>
    <contour>
      <point x="220" y="537" type="curve"/>
      <point x="232" y="585"/>
      <point x="243" y="629"/>
      <point x="255" y="677" type="curve"/>
      <point x="259" y="694"/>
      <point x="252" y="700"/>
      <point x="236" y="700" type="curve" smooth="yes"/>
      <point x="179" y="700" type="line"/>
      <point x="166" y="648"/>
      <point x="154" y="600"/>
      <point x="141" y="548" type="curve"/>
      <point x="140" y="542"/>
      <point x="144" y="537"/>
      <point x="150" y="537" type="curve" smooth="yes"/>
      <point x="173" y="537"/>
      <point x="197" y="537"/>
    </contour>
    <contour>
      <point x="411" y="711" type="move" name="top"/>
    </contour>
  </outline>
</glyph>
<glyph name="bracketleft" format="1">
  <advance width="400"/>
  <unicode hex="005B"/>
  <outline>
    <contour>
      <point x="153" y="650" type="curve" smooth="yes"/>
      <point x="-27" y="-74" type="line" smooth="yes"/>
      <point x="-30" y="-84"/>
      <point x="-11" y="-85"/>
      <point x="54" y="-85" type="curve"/>
      <point x="262" y="746" type="line" smooth="yes"/>
      <point x="263" y="752"/>
      <point x="257" y="757"/>
      <point x="230" y="757" type="curve" smooth="yes"/>
      <point x="211" y="757"/>
      <point x="200" y="757"/>
      <point x="180" y="757" type="curve"/>
      <point x="171" y="721"/>
      <point x="162" y="686"/>
    </contour>
    <contour>
      <point x="476" y="678" type="line"/>
      <point x="482" y="701"/>
      <point x="487" y="723"/>
      <point x="493" y="746" type="curve" smooth="yes"/>
      <point x="494" y="749"/>
      <point x="493" y="752"/>
      <point x="491" y="754" type="curve" smooth="yes"/>
      <point x="490" y="756"/>
      <point x="488" y="757"/>
      <point x="484" y="757" type="curve" smooth="yes"/>
      <point x="230" y="757" type="line"/>
      <point x="212" y="683"/>
      <point x="217" y="678"/>
      <point x="221" y="678" type="curve"/>
    </contour>
    <contour>
      <point x="269" y="-151" type="line"/>
      <point x="275" y="-127"/>
      <point x="280" y="-108"/>
      <point x="286" y="-84" type="curve" smooth="yes"/>
      <point x="287" y="-78"/>
      <point x="283" y="-73"/>
      <point x="277" y="-73" type="curve" smooth="yes"/>
      <point x="-27" y="-73" type="line"/>
      <point x="-44" y="-140" type="line" smooth="yes"/>
      <point x="-46" y="-146"/>
      <point x="-41" y="-151"/>
      <point x="-35" y="-151" type="curve" smooth="yes"/>
    </contour>
  </outline>
</glyph>
<glyph name="bracketright" format="1">
  <advance width="400"/>
  <unicode hex="005D"/>
  <outline>
    <contour>
      <point x="265" y="-44" type="curve" smooth="yes"/>
      <point x="446" y="680" type="line" smooth="yes"/>
      <point x="449" y="690"/>
      <point x="430" y="691"/>
      <point x="365" y="691" type="curve"/>
      <point x="157" y="-140" type="line" smooth="yes"/>
      <point x="156" y="-146"/>
      <point x="162" y="-151"/>
      <point x="189" y="-151" type="curve" smooth="yes"/>
      <point x="208" y="-151"/>
      <point x="219" y="-151"/>
      <point x="239" y="-151" type="curve"/>
      <point x="248" y="-115"/>
      <point x="256" y="-80"/>
    </contour>
    <contour>
      <point x="-57" y="-72" type="line"/>
      <point x="-63" y="-95"/>
      <point x="-68" y="-116"/>
      <point x="-74" y="-140" type="curve" smooth="yes"/>
      <point x="-75" y="-143"/>
      <point x="-74" y="-146"/>
      <point x="-73" y="-148" type="curve" smooth="yes"/>
      <point x="-71" y="-150"/>
      <point x="-69" y="-151"/>
      <point x="-65" y="-151" type="curve" smooth="yes"/>
      <point x="189" y="-151" type="line"/>
      <point x="207" y="-77"/>
      <point x="202" y="-72"/>
      <point x="198" y="-72" type="curve"/>
    </contour>
    <contour>
      <point x="150" y="758" type="line"/>
      <point x="144" y="734"/>
      <point x="139" y="714"/>
      <point x="133" y="690" type="curve" smooth="yes"/>
      <point x="132" y="684"/>
      <point x="136" y="679"/>
      <point x="142" y="679" type="curve" smooth="yes"/>
      <point x="446" y="679" type="line"/>
      <point x="463" y="747" type="line" smooth="yes"/>
      <point x="465" y="753"/>
      <point x="460" y="758"/>
      <point x="454" y="758" type="curve" smooth="yes"/>
    </contour>
  </outline>
</glyph>
<glyph name="asciicircum" format="1">
  <advance width="600"/>
  <unicode hex="005E"/>
  <outline>
    <contour>
      <point x="157" y="369" type="line"/>
      <point x="255" y="500"/>
      <point x="308" y="570"/>
      <point x="407" y="701" type="curve"/>
      <point x="428" y="731"/>
      <point x="436" y="739"/>
      <point x="453" y="750" type="curve"/>
      <point x="356" y="750" type="line"/>
      <point x="251" y="611"/>
      <point x="122" y="440"/>
      <point x="90" y="397" type="curve" smooth="yes"/>
      <point x="80" y="384"/>
      <point x="78" y="380"/>
      <point x="77" y="376" type="curve" smooth="yes"/>
      <point x="76" y="372"/>
      <point x="79" y="369"/>
      <point x="84" y="369" type="curve"/>
    </contour>
    <contour>
      <point x="572" y="370" type="curve"/>
      <point x="536" y="512"/>
      <point x="516" y="596"/>
      <point x="481" y="738" type="curve" smooth="yes"/>
      <point x="479" y="747"/>
      <point x="474" y="750"/>
      <point x="465" y="750" type="curve" smooth="yes"/>
      <point x="444" y="750" type="line" smooth="yes"/>
      <point x="408" y="750"/>
      <point x="355" y="725"/>
      <point x="339" y="670" type="curve"/>
      <point x="362" y="670"/>
      <point x="382" y="670"/>
      <point x="399" y="670" type="curve" smooth="yes"/>
      <point x="406" y="670"/>
      <point x="408" y="669"/>
      <point x="410" y="662" type="curve" smooth="yes"/>
      <point x="440" y="546"/>
      <point x="454" y="492"/>
      <point x="483" y="379" type="curve" smooth="yes"/>
      <point x="485" y="371"/>
      <point x="488" y="370"/>
      <point x="497" y="370" type="curve" smooth="yes"/>
      <point x="523" y="370"/>
      <point x="546" y="370"/>
    </contour>
  </outline>
</glyph>
<glyph name="underscore" format="1">
  <advance width="600"/>
  <unicode hex="005F"/>
  <outline>
    <contour>
      <point x="-20" y="-84" type="line"/>
      <point x="-25" y="-108"/>
      <point x="-31" y="-129"/>
      <point x="-36" y="-152" type="curve" smooth="yes"/>
      <point x="-37" y="-155"/>
      <point x="-37" y="-158"/>
      <point x="-35" y="-160" type="curve" smooth="yes"/>
      <point x="-34" y="-162"/>
      <point x="-31" y="-163"/>
      <point x="-28" y="-163" type="curve"/>
      <point x="425" y="-163" type="line"/>
      <point x="431" y="-140"/>
      <point x="436" y="-119"/>
      <point x="442" y="-95" type="curve" smooth="yes"/>
      <point x="443" y="-89"/>
      <point x="440" y="-84"/>
      <point x="434" y="-84" type="curve"/>
    </contour>
  </outline>
</glyph>
<glyph name="grave" format="1">
  <advance width="428"/>
  <unicode hex="0060"/>
  <outline>
    <contour>
      <point x="348" y="404" type="curve"/>
      <point x="350" y="508"/>
      <point x="352" y="613"/>
      <point x="354" y="717" type="curve"/>
      <point x="300" y="717"/>
      <point x="273" y="717"/>
      <point x="227" y="717" type="curve" smooth="yes"/>
      <point x="219" y="717"/>
      <point x="215" y="712"/>
      <point x="216" y="704" type="curve" smooth="yes"/>
      <point x="232" y="613"/>
      <point x="249" y="509"/>
      <point x="265" y="411" type="curve" smooth="yes"/>
      <point x="266" y="405"/>
      <point x="268" y="404"/>
      <point x="273" y="404" type="curve" smooth="yes"/>
      <point x="306" y="404"/>
      <point x="328" y="404"/>
    </contour>
  </outline>
</glyph>
<glyph name="b" format="1">
  <advance width="600"/>
  <unicode hex="0062"/>
  <outline>
    <contour>
      <point x="31" y="0" type="line"/>
      <point x="46" y="0"/>
      <point x="61" y="0"/>
      <point x="76" y="0" type="curve" smooth="yes"/>
      <point x="89" y="0"/>
      <point x="130" y="65"/>
      <point x="138" y="95" type="curve" smooth="yes"/>
      <point x="301" y="739" type="line"/>
      <point x="303" y="745"/>
      <point x="299" y="750"/>
      <point x="293" y="750" type="curve" smooth="yes"/>
      <point x="269" y="750"/>
      <point x="245" y="750"/>
      <point x="221" y="750" type="curve"/>
      <point x="211" y="713"/>
      <point x="201" y="674"/>
      <point x="191" y="635" type="curve" smooth="yes"/>
    </contour>
    <contour>
      <point x="411" y="541" type="curve" smooth="yes"/>
      <point x="343" y="541"/>
      <point x="284" y="510"/>
      <point x="226" y="459" type="curve" smooth="yes"/>
      <point x="192" y="427"/>
      <point x="176" y="394"/>
      <point x="178" y="359" type="curve"/>
      <point x="268" y="436"/>
      <point x="326" y="465"/>
      <point x="392" y="465" type="curve" smooth="yes"/>
      <point x="460" y="465"/>
      <point x="488" y="423"/>
      <point x="464" y="327" type="curve"/>
      <point x="525" y="310"/>
      <point x="545" y="319"/>
      <point x="548" y="330" type="curve" smooth="yes"/>
      <point x="579" y="450"/>
      <point x="529" y="541"/>
    </contour>
    <contour>
      <point x="295" y="-10" type="curve" smooth="yes"/>
      <point x="402" y="-10"/>
      <point x="478" y="43"/>
      <point x="517" y="204" type="curve" smooth="yes"/>
      <point x="548" y="330" type="line" smooth="yes"/>
      <point x="561" y="384"/>
      <point x="541" y="467"/>
      <point x="500" y="467" type="curve"/>
      <point x="484" y="467"/>
      <point x="473" y="462"/>
      <point x="469" y="451" type="curve"/>
      <point x="480" y="413"/>
      <point x="481" y="391"/>
      <point x="464" y="327" type="curve" smooth="yes"/>
      <point x="438" y="217" type="line" smooth="yes"/>
      <point x="410" y="102"/>
      <point x="360" y="65"/>
      <point x="290" y="65" type="curve" smooth="yes"/>
      <point x="222" y="65"/>
      <point x="176" y="90"/>
      <point x="139" y="164" type="curve"/>
      <point x="129" y="157"/>
      <point x="113" y="126"/>
      <point x="116" y="113" type="curve" smooth="yes"/>
      <point x="129" y="54"/>
      <point x="189" y="-10"/>
    </contour>
  </outline>
</glyph>
<glyph name="c" format="1">
  <advance width="500"/>
  <unicode hex="0063"/>
  <outline>
    <contour>
      <point x="369" y="541" type="curve" smooth="yes"/>
      <point x="223" y="541"/>
      <point x="122" y="477"/>
      <point x="83" y="322" type="curve" smooth="yes"/>
      <point x="59" y="228" type="line" smooth="yes"/>
      <point x="23" y="80"/>
      <point x="89" y="-11"/>
      <point x="241" y="-11" type="curve" smooth="yes"/>
      <point x="257" y="-11"/>
      <point x="260" y="3"/>
      <point x="251" y="66" type="curve"/>
      <point x="149" y="66"/>
      <point x="118" y="129"/>
      <point x="142" y="229" type="curve" smooth="yes"/>
      <point x="164" y="315" type="line" smooth="yes"/>
      <point x="191" y="422"/>
      <point x="254" y="464"/>
      <point x="352" y="464" type="curve" smooth="yes"/>
      <point x="412" y="464"/>
      <point x="446" y="447"/>
      <point x="472" y="430" type="curve"/>
      <point x="487" y="430" type="line"/>
      <point x="492" y="453"/>
      <point x="497" y="471"/>
      <point x="502" y="493" type="curve"/>
      <point x="503" y="497"/>
      <point x="503" y="500"/>
      <point x="501" y="504" type="curve" smooth="yes"/>
      <point x="491" y="517"/>
      <point x="443" y="541"/>
    </contour>
    <contour>
      <point x="241" y="-11" type="curve" smooth="yes"/>
      <point x="323" y="-11"/>
      <point x="363" y="11"/>
      <point x="382" y="26" type="curve" smooth="yes"/>
      <point x="385" y="28"/>
      <point x="387" y="31"/>
      <point x="388" y="34" type="curve"/>
      <point x="393" y="55"/>
      <point x="400" y="85"/>
      <point x="406" y="107" type="curve"/>
      <point x="391" y="107" type="line"/>
      <point x="350" y="82"/>
      <point x="309" y="66"/>
      <point x="251" y="66" type="curve" smooth="yes"/>
      <point x="169" y="66"/>
      <point x="130" y="91"/>
      <point x="95" y="146" type="curve"/>
      <point x="53" y="74"/>
      <point x="113" y="-11"/>
    </contour>
    <contour>
      <point x="350" y="541" type="move" name="top"/>
    </contour>
    <contour>
      <point x="215" y="-1" type="move" name="bottom"/>
    </contour>
  </outline>
</glyph>
<glyph name="d" format="1">
  <advance width="600"/>
  <unicode hex="0064"/>
  <outline>
    <contour>
      <point x="305" y="541" type="curve" smooth="yes"/>
      <point x="204" y="541"/>
      <point x="126" y="494"/>
      <point x="91" y="355" type="curve" smooth="yes"/>
      <point x="50" y="191" type="line" smooth="yes"/>
      <point x="36" y="134"/>
      <point x="63" y="66"/>
      <point x="104" y="66" type="curve" smooth="yes"/>
      <point x="121" y="66"/>
      <point x="132" y="72"/>
      <point x="135" y="82" type="curve"/>
      <point x="124" y="116"/>
      <point x="121" y="140"/>
      <point x="138" y="207" type="curve" smooth="yes"/>
      <point x="171" y="342" type="line" smooth="yes"/>
      <point x="194" y="435"/>
      <point x="243" y="465"/>
      <point x="313" y="465" type="curve" smooth="yes"/>
      <point x="366" y="465"/>
      <point x="424" y="432"/>
      <point x="456" y="366" type="curve"/>
      <point x="467" y="369"/>
      <point x="482" y="399"/>
      <point x="478" y="414" type="curve" smooth="yes"/>
      <point x="464" y="473"/>
      <point x="396" y="541"/>
    </contour>
    <contour>
      <point x="182" y="-10" type="curve" smooth="yes"/>
      <point x="253" y="-10"/>
      <point x="315" y="20"/>
      <point x="375" y="79" type="curve" smooth="yes"/>
      <point x="410" y="112"/>
      <point x="421" y="147"/>
      <point x="419" y="180" type="curve"/>
      <point x="326" y="96"/>
      <point x="271" y="66"/>
      <point x="216" y="66" type="curve" smooth="yes"/>
      <point x="140" y="66"/>
      <point x="113" y="111"/>
      <point x="138" y="207" type="curve"/>
      <point x="86" y="214"/>
      <point x="52" y="197"/>
      <point x="50" y="191" type="curve" smooth="yes"/>
      <point x="22" y="75"/>
      <point x="73" y="-10"/>
    </contour>
    <contour>
      <point x="542" y="750" type="curve"/>
      <point x="534" y="716"/>
      <point x="525" y="682"/>
      <point x="517" y="650" type="curve" smooth="yes"/>
      <point x="355" y="11" type="line"/>
      <point x="355" y="8"/>
      <point x="355" y="5"/>
      <point x="356" y="3" type="curve" smooth="yes"/>
      <point x="357" y="1"/>
      <point x="360" y="0"/>
      <point x="363" y="0" type="curve" smooth="yes"/>
      <point x="387" y="0"/>
      <point x="411" y="0"/>
      <point x="435" y="0" type="curve"/>
      <point x="443" y="30"/>
      <point x="453" y="69"/>
      <point x="465" y="115" type="curve" smooth="yes"/>
      <point x="622" y="739" type="line"/>
      <point x="623" y="742"/>
      <point x="622" y="745"/>
      <point x="621" y="747" type="curve" smooth="yes"/>
      <point x="620" y="749"/>
      <point x="617" y="750"/>
      <point x="614" y="750" type="curve" smooth="yes"/>
      <point x="590" y="750"/>
      <point x="566" y="750"/>
    </contour>
    <contour>
      <point x="684" y="711" type="move" name="caronslovak"/>
    </contour>
  </outline>
</glyph>
<glyph name="e" format="1">
  <advance width="600"/>
  <unicode hex="0065"/>
  <outline>
    <contour>
      <point x="341" y="468" type="curve" smooth="yes"/>
      <point x="422" y="468"/>
      <point x="467" y="443"/>
      <point x="478" y="378" type="curve"/>
      <point x="495" y="386"/>
      <point x="512" y="401"/>
      <point x="516" y="421" type="curve"/>
      <point x="533" y="488"/>
      <point x="440" y="541"/>
      <point x="356" y="541" type="curve"/>
      <point x="224" y="541"/>
      <point x="135" y="484"/>
      <point x="93" y="321" type="curve" smooth="yes"/>
      <point x="69" y="223" type="line" smooth="yes"/>
      <point x="30" y="71"/>
      <point x="124" y="-11"/>
      <point x="271" y="-11" type="curve" smooth="yes"/>
      <point x="289" y="-11"/>
      <point x="286" y="3"/>
      <point x="285" y="66" type="curve"/>
      <point x="171" y="66"/>
      <point x="123" y="117"/>
      <point x="148" y="217" type="curve" smooth="yes"/>
      <point x="172" y="313" type="line" smooth="yes"/>
      <point x="199" y="424"/>
      <point x="249" y="468"/>
    </contour>
    <contour>
      <point x="440" y="35" type="curve" smooth="yes"/>
      <point x="444" y="38"/>
      <point x="445" y="40"/>
      <point x="447" y="45" type="curve" smooth="yes"/>
      <point x="453" y="69"/>
      <point x="459" y="90"/>
      <point x="464" y="111" type="curve"/>
      <point x="449" y="111" type="line"/>
      <point x="400" y="84"/>
      <point x="355" y="66"/>
      <point x="285" y="66" type="curve" smooth="yes"/>
      <point x="198" y="66"/>
      <point x="165" y="87"/>
      <point x="124" y="124" type="curve"/>
      <point x="96" y="62"/>
      <point x="165" y="-11"/>
      <point x="271" y="-11" type="curve" smooth="yes"/>
      <point x="368" y="-11"/>
      <point x="417" y="13"/>
    </contour>
    <contour>
      <point x="497" y="234" type="line" smooth="yes"/>
      <point x="504" y="234"/>
      <point x="509" y="238"/>
      <point x="511" y="245" type="curve" smooth="yes"/>
      <point x="529" y="320" type="line" smooth="yes"/>
      <point x="566" y="470"/>
      <point x="490" y="541"/>
      <point x="356" y="541" type="curve" smooth="yes"/>
      <point x="346" y="541"/>
      <point x="339" y="530"/>
      <point x="341" y="468" type="curve"/>
      <point x="437" y="468"/>
      <point x="476" y="427"/>
      <point x="449" y="323" type="curve" smooth="yes"/>
      <point x="443" y="297" type="line" smooth="yes"/>
      <point x="443" y="296"/>
      <point x="442" y="296"/>
      <point x="441" y="296" type="curve" smooth="yes"/>
      <point x="296" y="296"/>
      <point x="234" y="296"/>
      <point x="115" y="296" type="curve"/>
      <point x="107" y="265"/>
      <point x="107" y="254"/>
      <point x="114" y="245" type="curve" smooth="yes"/>
      <point x="120" y="237"/>
      <point x="128" y="234"/>
      <point x="138" y="234" type="curve" smooth="yes"/>
    </contour>
    <contour>
      <point x="374" y="541" type="move" name="top"/>
    </contour>
    <contour>
      <point x="380" y="6" type="move" name="ogonek"/>
    </contour>
    <contour>
      <point x="240" y="-1" type="move" name="bottom"/>
    </contour>
  </outline>
</glyph>
<glyph name="f" format="1">
  <advance width="450"/>
  <unicode hex="0066"/>
  <outline>
    <contour>
      <point x="167" y="0" type="curve"/>
      <point x="176" y="33"/>
      <point x="184" y="66"/>
      <point x="192" y="100" type="curve" smooth="yes"/>
      <point x="301" y="533" type="line" smooth="yes"/>
      <point x="304" y="546"/>
      <point x="307" y="557"/>
      <point x="310" y="570" type="curve" smooth="yes"/>
      <point x="330" y="648"/>
      <point x="365" y="690"/>
      <point x="434" y="690" type="curve"/>
      <point x="460" y="754"/>
      <point x="456" y="763"/>
      <point x="446" y="763" type="curve" smooth="yes"/>
      <point x="343" y="763"/>
      <point x="264" y="713"/>
      <point x="234" y="587" type="curve" smooth="yes"/>
      <point x="89" y="11" type="line" smooth="yes"/>
      <point x="87" y="5"/>
      <point x="91" y="0"/>
      <point x="97" y="0" type="curve" smooth="yes"/>
      <point x="121" y="0"/>
      <point x="145" y="0"/>
    </contour>
    <contour>
      <point x="320" y="658" type="curve"/>
      <point x="357" y="681"/>
      <point x="392" y="690"/>
      <point x="434" y="690" type="curve" smooth="yes"/>
      <point x="472" y="690"/>
      <point x="501" y="681"/>
      <point x="526" y="668" type="curve"/>
      <point x="540" y="668" type="line"/>
      <point x="546" y="689"/>
      <point x="550" y="707"/>
      <point x="556" y="728" type="curve"/>
      <point x="557" y="732"/>
      <point x="556" y="734"/>
      <point x="555" y="736" type="curve" smooth="yes"/>
      <point x="546" y="746"/>
      <point x="499" y="763"/>
      <point x="446" y="763" type="curve" smooth="yes"/>
      <point x="377" y="763"/>
      <point x="304" y="699"/>
    </contour>
    <contour>
      <point x="113" y="530" type="curve"/>
      <point x="107" y="507"/>
      <point x="102" y="488"/>
      <point x="97" y="465" type="curve" smooth="yes"/>
      <point x="96" y="462"/>
      <point x="96" y="459"/>
      <point x="98" y="457" type="curve" smooth="yes"/>
      <point x="99" y="455"/>
      <point x="102" y="454"/>
      <point x="105" y="454" type="curve" smooth="yes"/>
      <point x="194" y="454"/>
      <point x="346" y="454"/>
      <point x="446" y="454" type="curve"/>
      <point x="452" y="477"/>
      <point x="457" y="496"/>
      <point x="463" y="519" type="curve" smooth="yes"/>
      <point x="464" y="525"/>
      <point x="460" y="530"/>
      <point x="454" y="530" type="curve" smooth="yes"/>
      <point x="373" y="530"/>
      <point x="194" y="530"/>
    </contour>
  </outline>
</glyph>
<glyph name="g" format="1">
  <advance width="600"/>
  <unicode hex="0067"/>
  <outline>
    <contour>
      <point x="346" y="466" type="curve" smooth="yes"/>
      <point x="434" y="466"/>
      <point x="545" y="466"/>
      <point x="610" y="466" type="curve" smooth="yes"/>
      <point x="616" y="466"/>
      <point x="622" y="471"/>
      <point x="624" y="477" type="curve" smooth="yes"/>
      <point x="629" y="497"/>
      <point x="634" y="517"/>
      <point x="639" y="537" type="curve"/>
      <point x="546" y="537"/>
      <point x="453" y="537"/>
      <point x="361" y="537" type="curve" smooth="yes"/>
      <point x="222" y="537"/>
      <point x="131" y="482"/>
      <point x="105" y="377" type="curve" smooth="yes"/>
      <point x="97" y="343" type="line" smooth="yes"/>
      <point x="72" y="243"/>
      <point x="145" y="175"/>
      <point x="274" y="173" type="curve"/>
      <point x="285" y="173"/>
      <point x="297" y="193"/>
      <point x="288" y="241" type="curve"/>
      <point x="214" y="241"/>
      <point x="161" y="276"/>
      <point x="176" y="334" type="curve" smooth="yes"/>
      <point x="185" y="369" type="line" smooth="yes"/>
      <point x="201" y="434"/>
      <point x="264" y="466"/>
    </contour>
    <contour>
      <point x="288" y="241" type="curve" smooth="yes"/>
      <point x="229" y="241"/>
      <point x="178" y="256"/>
      <point x="147" y="284" type="curve"/>
      <point x="118" y="243"/>
      <point x="185" y="173"/>
      <point x="274" y="173" type="curve" smooth="yes"/>
      <point x="405" y="173"/>
      <point x="489" y="223"/>
      <point x="514" y="321" type="curve" smooth="yes"/>
      <point x="521" y="351" type="line" smooth="yes"/>
      <point x="535" y="409"/>
      <point x="494" y="476"/>
      <point x="431" y="476" type="curve" smooth="yes"/>
      <point x="421" y="476"/>
      <point x="412" y="475"/>
      <point x="398" y="473" type="curve"/>
      <point x="443" y="436"/>
      <point x="449" y="387"/>
      <point x="440" y="352" type="curve" smooth="yes"/>
      <point x="434" y="328" type="line" smooth="yes"/>
      <point x="419" y="268"/>
      <point x="369" y="241"/>
    </contour>
    <contour>
      <point x="108" y="92" type="curve" smooth="yes"/>
      <point x="106" y="86" type="line" smooth="yes"/>
      <point x="92" y="29"/>
      <point x="125" y="-6"/>
      <point x="190" y="-6" type="curve" smooth="yes"/>
      <point x="307" y="-6" type="line" smooth="yes"/>
      <point x="383" y="-6"/>
      <point x="404" y="-38"/>
      <point x="392" y="-84" type="curve" smooth="yes"/>
      <point x="387" y="-105" type="line" smooth="yes"/>
      <point x="379" y="-136"/>
      <point x="345" y="-183"/>
      <point x="254" y="-183" type="curve"/>
      <point x="222" y="-237"/>
      <point x="218" y="-250"/>
      <point x="233" y="-250" type="curve" smooth="yes"/>
      <point x="364" y="-250"/>
      <point x="450" y="-195"/>
      <point x="473" y="-97" type="curve" smooth="yes"/>
      <point x="477" y="-80" type="line" smooth="yes"/>
      <point x="498" y="4"/>
      <point x="445" y="67"/>
      <point x="324" y="67" type="curve" smooth="yes"/>
      <point x="215" y="67" type="line" smooth="yes"/>
      <point x="191" y="67"/>
      <point x="183" y="77"/>
      <point x="189" y="100" type="curve" smooth="yes"/>
      <point x="191" y="109" type="line" smooth="yes"/>
      <point x="197" y="132"/>
      <point x="212" y="160"/>
      <point x="237" y="188" type="curve"/>
      <point x="238" y="194"/>
      <point x="234" y="199"/>
      <point x="220" y="199" type="curve" smooth="yes"/>
      <point x="174" y="199"/>
      <point x="119" y="137"/>
    </contour>
    <contour>
      <point x="385" y="-156" type="curve"/>
      <point x="335" y="-181"/>
      <point x="304" y="-183"/>
      <point x="254" y="-183" type="curve" smooth="yes"/>
      <point x="148" y="-183" type="line" smooth="yes"/>
      <point x="64" y="-183"/>
      <point x="29" y="-156"/>
      <point x="43" y="-100" type="curve" smooth="yes"/>
      <point x="48" y="-79" type="line" smooth="yes"/>
      <point x="58" y="-39"/>
      <point x="82" y="-8"/>
      <point x="155" y="14" type="curve"/>
      <point x="156" y="32"/>
      <point x="150" y="48"/>
      <point x="128" y="46" type="curve" smooth="yes"/>
      <point x="42" y="35"/>
      <point x="-19" y="-14"/>
      <point x="-35" y="-86" type="curve" smooth="yes"/>
      <point x="-40" y="-104" type="line" smooth="yes"/>
      <point x="-59" y="-188"/>
      <point x="-4" y="-250"/>
      <point x="112" y="-250" type="curve" smooth="yes"/>
      <point x="233" y="-250" type="line" smooth="yes"/>
      <point x="290" y="-250"/>
      <point x="378" y="-217"/>
    </contour>
  </outline>
</glyph>
<glyph name="h" format="1">
  <advance width="600"/>
  <unicode hex="0068"/>
  <outline>
    <contour>
      <point x="115" y="0" type="curve"/>
      <point x="303" y="740" type="line" smooth="yes"/>
      <point x="304" y="743"/>
      <point x="304" y="746"/>
      <point x="302" y="748" type="curve" smooth="yes"/>
      <point x="300" y="750"/>
      <point x="298" y="751"/>
      <point x="295" y="751" type="curve" smooth="yes"/>
      <point x="272" y="751"/>
      <point x="248" y="751"/>
      <point x="222" y="751" type="curve"/>
      <point x="217" y="731"/>
      <point x="208" y="696"/>
      <point x="197" y="651" type="curve" smooth="yes"/>
      <point x="34" y="11" type="line" smooth="yes"/>
      <point x="33" y="5"/>
      <point x="36" y="0"/>
      <point x="42" y="0" type="curve" smooth="yes"/>
      <point x="66" y="0"/>
      <point x="91" y="0"/>
    </contour>
    <contour>
      <point x="426" y="541" type="curve" smooth="yes"/>
      <point x="353" y="541"/>
      <point x="291" y="505"/>
      <point x="222" y="438" type="curve" smooth="yes"/>
      <point x="195" y="412"/>
      <point x="185" y="381"/>
      <point x="177" y="327" type="curve"/>
      <point x="270" y="422"/>
      <point x="335" y="464"/>
      <point x="395" y="464" type="curve" smooth="yes"/>
      <point x="450" y="464"/>
      <point x="479" y="437"/>
      <point x="466" y="362" type="curve"/>
      <point x="518" y="367"/>
      <point x="533" y="372"/>
      <point x="539" y="391" type="curve" smooth="yes"/>
      <point x="558" y="468"/>
      <point x="521" y="541"/>
    </contour>
    <contour>
      <point x="439" y="0" type="curve"/>
      <point x="448" y="33"/>
      <point x="457" y="66"/>
      <point x="465" y="98" type="curve" smooth="yes"/>
      <point x="539" y="391" type="line"/>
      <point x="550" y="433"/>
      <point x="515" y="463"/>
      <point x="460" y="446" type="curve"/>
      <point x="460" y="422"/>
      <point x="461" y="415"/>
      <point x="451" y="373" type="curve" smooth="yes"/>
      <point x="358" y="11" type="line" smooth="yes"/>
      <point x="356" y="5"/>
      <point x="360" y="0"/>
      <point x="366" y="0" type="curve" smooth="yes"/>
      <point x="390" y="0"/>
      <point x="415" y="0"/>
    </contour>
    <contour>
      <point x="257" y="730" type="move" name="top"/>
    </contour>
  </outline>
</glyph>
<glyph name="i" format="1">
  <advance width="350"/>
  <unicode hex="0069"/>
  <outline>
    <contour>
      <point x="114" y="530" type="curve"/>
      <point x="109" y="510"/>
      <point x="104" y="485"/>
      <point x="99" y="464" type="curve" smooth="yes"/>
      <point x="97" y="458"/>
      <point x="101" y="453"/>
      <point x="107" y="453" type="curve" smooth="yes"/>
      <point x="150" y="453"/>
      <point x="212" y="453"/>
      <point x="243" y="453" type="curve"/>
      <point x="257" y="507"/>
      <point x="255" y="530"/>
      <point x="244" y="530" type="curve" smooth="yes"/>
      <point x="195" y="530"/>
      <point x="164" y="530"/>
    </contour>
    <contour>
      <point x="173" y="0" type="curve"/>
      <point x="183" y="39"/>
      <point x="191" y="77"/>
      <point x="201" y="115" type="curve" smooth="yes"/>
      <point x="305" y="519" type="line" smooth="yes"/>
      <point x="306" y="525"/>
      <point x="303" y="530"/>
      <point x="297" y="530" type="curve" smooth="yes"/>
      <point x="221" y="530" type="line"/>
      <point x="89" y="11" type="line" smooth="yes"/>
      <point x="87" y="5"/>
      <point x="91" y="0"/>
      <point x="97" y="0" type="curve" smooth="yes"/>
      <point x="125" y="0"/>
      <point x="147" y="0"/>
    </contour>
    <contour>
      <point x="355" y="665" type="curve"/>
      <point x="378" y="757" type="line" smooth="yes"/>
      <point x="380" y="763"/>
      <point x="376" y="768"/>
      <point x="370" y="768" type="curve" smooth="yes"/>
      <point x="337" y="768"/>
      <point x="298" y="768"/>
      <point x="265" y="768" type="curve"/>
      <point x="241" y="676" type="line" smooth="yes"/>
      <point x="240" y="670"/>
      <point x="244" y="665"/>
      <point x="250" y="665" type="curve" smooth="yes"/>
      <point x="283" y="665"/>
      <point x="322" y="665"/>
    </contour>
    <contour>
      <point x="383" y="-1" type="move" name="ogonek"/>
    </contour>
    <contour>
      <point x="233" y="-1" type="move" name="bottom"/>
    </contour>
  </outline>
</glyph>
<glyph name="j" format="1">
  <advance width="350"/>
  <unicode hex="006A"/>
  <outline>
    <contour>
      <point x="117" y="530" type="curve"/>
      <point x="112" y="508"/>
      <point x="107" y="484"/>
      <point x="102" y="462" type="curve" smooth="yes"/>
      <point x="100" y="456"/>
      <point x="104" y="451"/>
      <point x="110" y="451" type="curve" smooth="yes"/>
      <point x="166" y="451"/>
      <point x="210" y="451"/>
      <point x="266" y="451" type="curve"/>
      <point x="276" y="490"/>
      <point x="275" y="530"/>
      <point x="254" y="530" type="curve" smooth="yes"/>
      <point x="204" y="530"/>
      <point x="168" y="530"/>
    </contour>
    <contour>
      <point x="169" y="-87" type="curve" smooth="yes"/>
      <point x="322" y="513" type="line" smooth="yes"/>
      <point x="323" y="517"/>
      <point x="322" y="521"/>
      <point x="320" y="523" type="curve" smooth="yes"/>
      <point x="317" y="528"/>
      <point x="310" y="530"/>
      <point x="300" y="530" type="curve" smooth="yes"/>
      <point x="240" y="530" type="line"/>
      <point x="85" y="-80" type="line" smooth="yes"/>
      <point x="69" y="-144"/>
      <point x="55" y="-165"/>
      <point x="6" y="-202" type="curve"/>
      <point x="59" y="-223"/>
      <point x="148" y="-175"/>
    </contour>
    <contour>
      <point x="-7" y="-170" type="curve" smooth="yes"/>
      <point x="-45" y="-170"/>
      <point x="-61" y="-166"/>
      <point x="-82" y="-150" type="curve"/>
      <point x="-97" y="-150" type="line"/>
      <point x="-103" y="-173"/>
      <point x="-106" y="-189"/>
      <point x="-111" y="-212" type="curve" smooth="yes"/>
      <point x="-113" y="-216"/>
      <point x="-113" y="-219"/>
      <point x="-111" y="-222" type="curve" smooth="yes"/>
      <point x="-104" y="-231"/>
      <point x="-76" y="-250"/>
      <point x="-19" y="-250" type="curve" smooth="yes"/>
      <point x="85" y="-250"/>
      <point x="141" y="-201"/>
      <point x="169" y="-87" type="curve" smooth="yes"/>
      <point x="172" y="-77"/>
      <point x="160" y="-70"/>
      <point x="121" y="-73" type="curve"/>
      <point x="85" y="-140"/>
      <point x="43" y="-170"/>
    </contour>
    <contour>
      <point x="377" y="665" type="curve"/>
      <point x="400" y="757" type="line" smooth="yes"/>
      <point x="401" y="763"/>
      <point x="397" y="768"/>
      <point x="391" y="768" type="curve" smooth="yes"/>
      <point x="358" y="768"/>
      <point x="319" y="768"/>
      <point x="286" y="768" type="curve"/>
      <point x="263" y="676" type="line" smooth="yes"/>
      <point x="261" y="670"/>
      <point x="265" y="665"/>
      <point x="271" y="665" type="curve" smooth="yes"/>
      <point x="304" y="665"/>
      <point x="343" y="665"/>
    </contour>
  </outline>
</glyph>
<glyph name="l" format="1">
  <advance width="300"/>
  <unicode hex="006C"/>
  <outline>
    <contour>
      <point x="181" y="640" type="curve"/>
      <point x="56" y="140" type="line" smooth="yes"/>
      <point x="40" y="75"/>
      <point x="72" y="32"/>
      <point x="125" y="47" type="curve"/>
      <point x="124" y="79"/>
      <point x="130" y="111"/>
      <point x="138" y="143" type="curve" smooth="yes"/>
      <point x="287" y="739" type="line" smooth="yes"/>
      <point x="288" y="742"/>
      <point x="287" y="745"/>
      <point x="286" y="747" type="curve" smooth="yes"/>
      <point x="284" y="749"/>
      <point x="282" y="750"/>
      <point x="279" y="750" type="curve" smooth="yes"/>
      <point x="255" y="750"/>
      <point x="232" y="750"/>
      <point x="208" y="750" type="curve"/>
      <point x="199" y="713"/>
      <point x="190" y="677"/>
    </contour>
    <contour>
      <point x="227" y="77" type="curve"/>
      <point x="214" y="77" type="line"/>
      <point x="204" y="77"/>
      <point x="195" y="77"/>
      <point x="185" y="77" type="curve" smooth="yes"/>
      <point x="138" y="77"/>
      <point x="125" y="92"/>
      <point x="138" y="143" type="curve"/>
      <point x="88" y="154"/>
      <point x="62" y="164"/>
      <point x="56" y="140" type="curve" smooth="yes"/>
      <point x="31" y="40"/>
      <point x="76" y="0"/>
      <point x="159" y="0" type="curve" smooth="yes"/>
      <point x="197" y="0" type="line" smooth="yes"/>
      <point x="200" y="0"/>
      <point x="203" y="1"/>
      <point x="206" y="3" type="curve" smooth="yes"/>
      <point x="208" y="5"/>
      <point x="210" y="7"/>
      <point x="211" y="11" type="curve" smooth="yes"/>
      <point x="217" y="34"/>
      <point x="221" y="53"/>
    </contour>
    <contour>
      <point x="442" y="711" type="move" name="caronslovak"/>
    </contour>
    <contour>
      <point x="245" y="730" type="move" name="top"/>
    </contour>
    <contour>
      <point x="364" y="400" type="move" name="dot"/>
    </contour>
    <contour>
      <point x="114" y="-1" type="move" name="bottom"/>
    </contour>
  </outline>
</glyph>
<glyph name="m" format="1">
  <advance width="850"/>
  <unicode hex="006D"/>
  <outline>
    <contour>
      <point x="116" y="0" type="curve"/>
      <point x="247" y="519" type="line" smooth="yes"/>
      <point x="248" y="522"/>
      <point x="248" y="525"/>
      <point x="246" y="527" type="curve" smooth="yes"/>
      <point x="245" y="529"/>
      <point x="242" y="530"/>
      <point x="239" y="530" type="curve" smooth="yes"/>
      <point x="216" y="530"/>
      <point x="192" y="530"/>
      <point x="166" y="530" type="curve"/>
      <point x="161" y="511"/>
      <point x="152" y="475"/>
      <point x="141" y="431" type="curve" smooth="yes"/>
      <point x="34" y="11" type="line" smooth="yes"/>
      <point x="32" y="5"/>
      <point x="36" y="0"/>
      <point x="42" y="0" type="curve" smooth="yes"/>
      <point x="67" y="0"/>
      <point x="91" y="0"/>
    </contour>
    <contour>
      <point x="407" y="541" type="curve" smooth="yes"/>
      <point x="346" y="541"/>
      <point x="285" y="507"/>
      <point x="225" y="444" type="curve" smooth="yes"/>
      <point x="200" y="419"/>
      <point x="186" y="391"/>
      <point x="190" y="337" type="curve"/>
      <point x="268" y="428"/>
      <point x="326" y="461"/>
      <point x="375" y="461" type="curve" smooth="yes"/>
      <point x="413" y="461"/>
      <point x="428" y="428"/>
      <point x="412" y="366" type="curve"/>
      <point x="461" y="358"/>
      <point x="497" y="371"/>
      <point x="503" y="391" type="curve" smooth="yes"/>
      <point x="521" y="464"/>
      <point x="496" y="541"/>
    </contour>
    <contour>
      <point x="403" y="0" type="curve"/>
      <point x="503" y="391" type="line"/>
      <point x="508" y="412"/>
      <point x="498" y="451"/>
      <point x="435" y="454" type="curve"/>
      <point x="427" y="425"/>
      <point x="418" y="394"/>
      <point x="412" y="366" type="curve" smooth="yes"/>
      <point x="321" y="11" type="line" smooth="yes"/>
      <point x="320" y="5"/>
      <point x="324" y="0"/>
      <point x="330" y="0" type="curve" smooth="yes"/>
      <point x="355" y="0"/>
      <point x="377" y="0"/>
    </contour>
    <contour>
      <point x="686" y="541" type="curve" smooth="yes"/>
      <point x="624" y="541"/>
      <point x="565" y="509"/>
      <point x="504" y="447" type="curve" smooth="yes"/>
      <point x="479" y="423"/>
      <point x="469" y="399"/>
      <point x="470" y="347" type="curve"/>
      <point x="551" y="427"/>
      <point x="604" y="461"/>
      <point x="656" y="461" type="curve" smooth="yes"/>
      <point x="695" y="461"/>
      <point x="717" y="437"/>
      <point x="700" y="373" type="curve"/>
      <point x="743" y="366"/>
      <point x="785" y="371"/>
      <point x="790" y="390" type="curve" smooth="yes"/>
      <point x="809" y="465"/>
      <point x="780" y="541"/>
    </contour>
    <contour>
      <point x="691" y="0" type="curve"/>
      <point x="699" y="33"/>
      <point x="708" y="65"/>
      <point x="715" y="96" type="curve" smooth="yes"/>
      <point x="790" y="390" type="line"/>
      <point x="796" y="413"/>
      <point x="783" y="450"/>
      <point x="722" y="454" type="curve"/>
      <point x="714" y="424"/>
      <point x="708" y="403"/>
      <point x="700" y="373" type="curve" smooth="yes"/>
      <point x="609" y="11" type="line" smooth="yes"/>
      <point x="608" y="5"/>
      <point x="611" y="0"/>
      <point x="617" y="0" type="curve" smooth="yes"/>
      <point x="643" y="0"/>
      <point x="666" y="0"/>
    </contour>
  </outline>
</glyph>
<glyph name="n" format="1">
  <advance width="600"/>
  <unicode hex="006E"/>
  <outline>
    <contour>
      <point x="115" y="0" type="curve"/>
      <point x="246" y="519" type="line" smooth="yes"/>
      <point x="247" y="523"/>
      <point x="247" y="526"/>
      <point x="245" y="528" type="curve" smooth="yes"/>
      <point x="243" y="530"/>
      <point x="241" y="530"/>
      <point x="238" y="530" type="curve" smooth="yes"/>
      <point x="215" y="530"/>
      <point x="191" y="530"/>
      <point x="165" y="530" type="curve"/>
      <point x="160" y="511"/>
      <point x="151" y="475"/>
      <point x="140" y="431" type="curve" smooth="yes"/>
      <point x="34" y="11" type="line" smooth="yes"/>
      <point x="32" y="5"/>
      <point x="36" y="0"/>
      <point x="42" y="0" type="curve" smooth="yes"/>
      <point x="66" y="0"/>
      <point x="91" y="0"/>
    </contour>
    <contour>
      <point x="427" y="541" type="curve" smooth="yes"/>
      <point x="353" y="541"/>
      <point x="289" y="502"/>
      <point x="220" y="430" type="curve" smooth="yes"/>
      <point x="194" y="402"/>
      <point x="177" y="363"/>
      <point x="178" y="316" type="curve"/>
      <point x="267" y="418"/>
      <point x="336" y="460"/>
      <point x="393" y="460" type="curve" smooth="yes"/>
      <point x="442" y="460"/>
      <point x="462" y="428"/>
      <point x="447" y="366" type="curve"/>
      <point x="521" y="367"/>
      <point x="533" y="376"/>
      <point x="536" y="388" type="curve" smooth="yes"/>
      <point x="556" y="467"/>
      <point x="521" y="541"/>
    </contour>
    <contour>
      <point x="439" y="0" type="curve"/>
      <point x="447" y="33"/>
      <point x="456" y="66"/>
      <point x="464" y="97" type="curve" smooth="yes"/>
      <point x="536" y="388" type="line"/>
      <point x="545" y="420"/>
      <point x="513" y="456"/>
      <point x="459" y="442" type="curve"/>
      <point x="459" y="419"/>
      <point x="457" y="406"/>
      <point x="447" y="366" type="curve" smooth="yes"/>
      <point x="358" y="11" type="line" smooth="yes"/>
      <point x="356" y="5"/>
      <point x="360" y="0"/>
      <point x="366" y="0" type="curve" smooth="yes"/>
      <point x="390" y="0"/>
      <point x="415" y="0"/>
    </contour>
    <contour>
      <point x="437" y="711" type="move" name="caronslovak"/>
    </contour>
    <contour>
      <point x="391" y="541" type="move" name="top"/>
    </contour>
    <contour>
      <point x="213" y="-1" type="move" name="bottom"/>
    </contour>
  </outline>
</glyph>
<glyph name="p" format="1">
  <advance width="600"/>
  <unicode hex="0070"/>
  <outline>
    <contour>
      <point x="61" y="-214" type="curve"/>
      <point x="246" y="519" type="line" smooth="yes"/>
      <point x="247" y="522"/>
      <point x="247" y="526"/>
      <point x="245" y="528" type="curve" smooth="yes"/>
      <point x="243" y="530"/>
      <point x="241" y="530"/>
      <point x="238" y="530" type="curve"/>
      <point x="214" y="530"/>
      <point x="190" y="530"/>
      <point x="166" y="530" type="curve"/>
      <point x="157" y="497"/>
      <point x="149" y="464"/>
      <point x="141" y="430" type="curve" smooth="yes"/>
      <point x="-20" y="-202" type="line" smooth="yes"/>
      <point x="-21" y="-209"/>
      <point x="-17" y="-214"/>
      <point x="-11" y="-214" type="curve"/>
      <point x="13" y="-214"/>
      <point x="37" y="-214"/>
    </contour>
    <contour>
      <point x="409" y="541" type="curve" smooth="yes"/>
      <point x="339" y="541"/>
      <point x="284" y="509"/>
      <point x="227" y="459" type="curve" smooth="yes"/>
      <point x="194" y="427"/>
      <point x="177" y="394"/>
      <point x="178" y="359" type="curve"/>
      <point x="268" y="435"/>
      <point x="321" y="465"/>
      <point x="385" y="465" type="curve" smooth="yes"/>
      <point x="459" y="465"/>
      <point x="487" y="414"/>
      <point x="464" y="323" type="curve"/>
      <point x="533" y="315"/>
      <point x="548" y="322"/>
      <point x="549" y="330" type="curve" smooth="yes"/>
      <point x="577" y="444"/>
      <point x="525" y="541"/>
    </contour>
    <contour>
      <point x="293" y="-11" type="curve" smooth="yes"/>
      <point x="401" y="-11"/>
      <point x="479" y="48"/>
      <point x="519" y="208" type="curve" smooth="yes"/>
      <point x="549" y="331" type="line" smooth="yes"/>
      <point x="564" y="386"/>
      <point x="538" y="467"/>
      <point x="496" y="467" type="curve" smooth="yes"/>
      <point x="480" y="467"/>
      <point x="469" y="462"/>
      <point x="465" y="451" type="curve"/>
      <point x="478" y="415"/>
      <point x="481" y="391"/>
      <point x="464" y="323" type="curve" smooth="yes"/>
      <point x="438" y="219" type="line" smooth="yes"/>
      <point x="409" y="103"/>
      <point x="357" y="64"/>
      <point x="291" y="64" type="curve" smooth="yes"/>
      <point x="222" y="64"/>
      <point x="181" y="84"/>
      <point x="128" y="157" type="curve"/>
      <point x="112" y="135"/>
      <point x="106" y="118"/>
      <point x="110" y="106" type="curve" smooth="yes"/>
      <point x="131" y="50"/>
      <point x="190" y="-11"/>
    </contour>
  </outline>
</glyph>
<glyph name="s" format="1">
  <advance width="550"/>
  <unicode hex="0073"/>
  <outline>
    <contour>
      <point x="359" y="540" type="curve" smooth="yes"/>
      <point x="351" y="540" type="line" smooth="yes"/>
      <point x="219" y="540"/>
      <point x="137" y="486"/>
      <point x="116" y="402" type="curve" smooth="yes"/>
      <point x="105" y="361"/>
      <point x="142" y="340"/>
      <point x="183" y="340" type="curve"/>
      <point x="186" y="357"/>
      <point x="192" y="380"/>
      <point x="196" y="393" type="curve" smooth="yes"/>
      <point x="207" y="436"/>
      <point x="256" y="462"/>
      <point x="339" y="462" type="curve" smooth="yes"/>
      <point x="411" y="462"/>
      <point x="452" y="450"/>
      <point x="492" y="429" type="curve"/>
      <point x="506" y="429" type="line"/>
      <point x="512" y="452"/>
      <point x="516" y="471"/>
      <point x="522" y="494" type="curve"/>
      <point x="523" y="497"/>
      <point x="523" y="500"/>
      <point x="521" y="502" type="curve" smooth="yes"/>
      <point x="510" y="516"/>
      <point x="448" y="540"/>
    </contour>
    <contour>
      <point x="343" y="295" type="curve" smooth="yes"/>
      <point x="261" y="313" type="line" smooth="yes"/>
      <point x="193" y="330"/>
      <point x="187" y="357"/>
      <point x="196" y="393" type="curve" smooth="yes"/>
      <point x="200" y="407"/>
      <point x="204" y="427"/>
      <point x="210" y="450" type="curve"/>
      <point x="163" y="450"/>
      <point x="123" y="431"/>
      <point x="116" y="402" type="curve"/>
      <point x="97" y="329"/>
      <point x="127" y="273"/>
      <point x="226" y="252" type="curve" smooth="yes"/>
      <point x="305" y="234" type="line" smooth="yes"/>
      <point x="381" y="216"/>
      <point x="390" y="184"/>
      <point x="380" y="147" type="curve" smooth="yes"/>
      <point x="375" y="129"/>
      <point x="373" y="113"/>
      <point x="368" y="95" type="curve"/>
      <point x="423" y="96"/>
      <point x="455" y="113"/>
      <point x="461" y="137" type="curve" smooth="yes"/>
      <point x="478" y="204"/>
      <point x="453" y="271"/>
    </contour>
    <contour>
      <point x="224" y="68" type="curve" smooth="yes"/>
      <point x="141" y="68"/>
      <point x="92" y="85"/>
      <point x="46" y="124" type="curve"/>
      <point x="31" y="124" type="line"/>
      <point x="26" y="104"/>
      <point x="21" y="83"/>
      <point x="14" y="55" type="curve" smooth="yes"/>
      <point x="13" y="51"/>
      <point x="13" y="50"/>
      <point x="15" y="47" type="curve" smooth="yes"/>
      <point x="31" y="26"/>
      <point x="104" y="-9"/>
      <point x="210" y="-9" type="curve" smooth="yes"/>
      <point x="219" y="-9" type="line" smooth="yes"/>
      <point x="346" y="-9"/>
      <point x="435" y="36"/>
      <point x="461" y="137" type="curve" smooth="yes"/>
      <point x="468" y="169"/>
      <point x="440" y="203"/>
      <point x="394" y="203" type="curve"/>
      <point x="389" y="182"/>
      <point x="384" y="165"/>
      <point x="380" y="147" type="curve" smooth="yes"/>
      <point x="368" y="101"/>
      <point x="321" y="68"/>
    </contour>
    <contour>
      <point x="268" y="541" type="move" name="top"/>
    </contour>
    <contour>
      <point x="268" y="-1" type="move" name="bottom"/>
    </contour>
  </outline>
</glyph>
<glyph name="t" format="1">
  <advance width="500"/>
  <unicode hex="0074"/>
  <outline>
    <contour>
      <point x="261" y="700" type="curve"/>
      <point x="136" y="201" type="line" smooth="yes"/>
      <point x="114" y="111"/>
      <point x="149" y="37"/>
      <point x="231" y="48" type="curve"/>
      <point x="205" y="101"/>
      <point x="197" y="122"/>
      <point x="218" y="205" type="curve" smooth="yes"/>
      <point x="339" y="689" type="line" smooth="yes"/>
      <point x="341" y="695"/>
      <point x="337" y="700"/>
      <point x="331" y="700" type="curve" smooth="yes"/>
      <point x="309" y="700"/>
      <point x="285" y="700"/>
    </contour>
    <contour>
      <point x="386" y="77" type="curve"/>
      <point x="373" y="77" type="line"/>
      <point x="351" y="77"/>
      <point x="341" y="77"/>
      <point x="305" y="77" type="curve" smooth="yes"/>
      <point x="218" y="77"/>
      <point x="194" y="109"/>
      <point x="218" y="205" type="curve"/>
      <point x="155" y="221"/>
      <point x="141" y="216"/>
      <point x="136" y="201" type="curve" smooth="yes"/>
      <point x="102" y="61"/>
      <point x="165" y="0"/>
      <point x="284" y="0" type="curve" smooth="yes"/>
      <point x="356" y="0" type="line" smooth="yes"/>
      <point x="359" y="0"/>
      <point x="362" y="1"/>
      <point x="365" y="3" type="curve" smooth="yes"/>
      <point x="367" y="5"/>
      <point x="369" y="7"/>
      <point x="370" y="11" type="curve" smooth="yes"/>
      <point x="375" y="34"/>
      <point x="380" y="54"/>
    </contour>
    <contour>
      <point x="113" y="530" type="line"/>
      <point x="107" y="507"/>
      <point x="102" y="489"/>
      <point x="97" y="465" type="curve" smooth="yes"/>
      <point x="96" y="462"/>
      <point x="96" y="459"/>
      <point x="98" y="457" type="curve" smooth="yes"/>
      <point x="99" y="455"/>
      <point x="102" y="454"/>
      <point x="105" y="454" type="curve"/>
      <point x="480" y="454" type="line"/>
      <point x="486" y="478"/>
      <point x="491" y="496"/>
      <point x="496" y="519" type="curve" smooth="yes"/>
      <point x="498" y="525"/>
      <point x="494" y="530"/>
      <point x="488" y="530" type="curve"/>
    </contour>
    <contour>
      <point x="503" y="711" type="move" name="caronslovak"/>
    </contour>
    <contour>
      <point x="225" y="-1" type="move" name="bottom"/>
    </contour>
  </outline>
</glyph>
<glyph name="u" format="1">
  <advance width="600"/>
  <unicode hex="0075"/>
  <outline>
    <contour>
      <point x="489" y="530" type="curve"/>
      <point x="357" y="11" type="line" smooth="yes"/>
      <point x="356" y="7"/>
      <point x="356" y="4"/>
      <point x="358" y="2" type="curve" smooth="yes"/>
      <point x="359" y="1"/>
      <point x="362" y="0"/>
      <point x="366" y="0" type="curve" smooth="yes"/>
      <point x="388" y="0"/>
      <point x="412" y="0"/>
      <point x="439" y="0" type="curve"/>
      <point x="444" y="20"/>
      <point x="452" y="55"/>
      <point x="463" y="99" type="curve" smooth="yes"/>
      <point x="570" y="519" type="line" smooth="yes"/>
      <point x="571" y="525"/>
      <point x="568" y="530"/>
      <point x="562" y="530" type="curve" smooth="yes"/>
      <point x="537" y="530"/>
      <point x="513" y="530"/>
    </contour>
    <contour>
      <point x="176" y="-11" type="curve" smooth="yes"/>
      <point x="249" y="-11"/>
      <point x="315" y="29"/>
      <point x="383" y="102" type="curve" smooth="yes"/>
      <point x="409" y="129"/>
      <point x="427" y="167"/>
      <point x="425" y="214" type="curve"/>
      <point x="336" y="112"/>
      <point x="268" y="70"/>
      <point x="211" y="70" type="curve" smooth="yes"/>
      <point x="159" y="70"/>
      <point x="137" y="95"/>
      <point x="156" y="166" type="curve"/>
      <point x="84" y="165"/>
      <point x="70" y="159"/>
      <point x="67" y="144" type="curve" smooth="yes"/>
      <point x="47" y="62"/>
      <point x="82" y="-11"/>
    </contour>
    <contour>
      <point x="165" y="530" type="curve"/>
      <point x="156" y="497"/>
      <point x="147" y="465"/>
      <point x="139" y="433" type="curve" smooth="yes"/>
      <point x="67" y="144" type="line"/>
      <point x="59" y="111"/>
      <point x="90" y="74"/>
      <point x="144" y="88" type="curve"/>
      <point x="144" y="112"/>
      <point x="146" y="125"/>
      <point x="156" y="166" type="curve" smooth="yes"/>
      <point x="246" y="519" type="line" smooth="yes"/>
      <point x="247" y="525"/>
      <point x="244" y="530"/>
      <point x="238" y="530" type="curve" smooth="yes"/>
      <point x="213" y="530"/>
      <point x="189" y="530"/>
    </contour>
    <contour>
      <point x="369" y="541" type="move" name="top"/>
    </contour>
    <contour>
      <point x="438" y="-1" type="move" name="ogonek"/>
    </contour>
    <contour>
      <point x="206" y="-1" type="move" name="bottom"/>
    </contour>
  </outline>
</glyph>
<glyph name="v" format="1">
  <advance width="600"/>
  <unicode hex="0076"/>
  <outline>
    <contour>
      <point x="605" y="530" type="curve" smooth="yes"/>
      <point x="530" y="530" type="line"/>
      <point x="434" y="370"/>
      <point x="337" y="210"/>
      <point x="241" y="49" type="curve"/>
      <point x="224" y="18"/>
      <point x="216" y="9"/>
      <point x="195" y="0" type="curve"/>
      <point x="295" y="0" type="line"/>
      <point x="401" y="173"/>
      <point x="506" y="344"/>
      <point x="611" y="517" type="curve"/>
      <point x="616" y="525"/>
      <point x="612" y="530"/>
    </contour>
    <contour>
      <point x="188" y="530" type="curve" smooth="yes"/>
      <point x="114" y="530" type="line"/>
      <point x="133" y="357"/>
      <point x="150" y="185"/>
      <point x="169" y="12" type="curve"/>
      <point x="169" y="4"/>
      <point x="174" y="0"/>
      <point x="183" y="0" type="curve" smooth="yes"/>
      <point x="201" y="0" type="line" smooth="yes"/>
      <point x="236" y="0"/>
      <point x="300" y="19"/>
      <point x="316" y="75" type="curve"/>
      <point x="292" y="75"/>
      <point x="270" y="75"/>
      <point x="250" y="75" type="curve" smooth="yes"/>
      <point x="244" y="75"/>
      <point x="243" y="78"/>
      <point x="242" y="84" type="curve"/>
      <point x="228" y="230"/>
      <point x="214" y="370"/>
      <point x="200" y="517" type="curve"/>
      <point x="199" y="526"/>
      <point x="196" y="530"/>
    </contour>
  </outline>
</glyph>
<glyph name="y" format="1">
  <advance width="600"/>
  <unicode hex="0079"/>
  <outline>
    <contour>
      <point x="605" y="530" type="curve" smooth="yes"/>
      <point x="579" y="530"/>
      <point x="554" y="530"/>
      <point x="531" y="530" type="curve"/>
      <point x="411" y="317"/>
      <point x="213" y="-31"/>
      <point x="169" y="-108" type="curve" smooth="yes"/>
      <point x="143" y="-154"/>
      <point x="109" y="-174"/>
      <point x="64" y="-174" type="curve" smooth="yes"/>
      <point x="-25" y="-174" type="line"/>
      <point x="-41" y="-239" type="line" smooth="yes"/>
      <point x="-42" y="-247"/>
      <point x="-39" y="-250"/>
      <point x="-33" y="-250" type="curve" smooth="yes"/>
      <point x="54" y="-250" type="line" smooth="yes"/>
      <point x="140" y="-250"/>
      <point x="192" y="-216"/>
      <point x="245" y="-121" type="curve" smooth="yes"/>
      <point x="345" y="56"/>
      <point x="493" y="308"/>
      <point x="613" y="514" type="curve" smooth="yes"/>
      <point x="619" y="524"/>
      <point x="612" y="530"/>
    </contour>
    <contour>
      <point x="183" y="530" type="curve" smooth="yes"/>
      <point x="157" y="530"/>
      <point x="135" y="530"/>
      <point x="112" y="530" type="curve"/>
      <point x="134" y="361"/>
      <point x="179" y="17"/>
      <point x="180" y="9" type="curve" smooth="yes"/>
      <point x="181" y="3"/>
      <point x="184" y="0"/>
      <point x="190" y="0" type="curve" smooth="yes"/>
      <point x="261" y="0" type="line" smooth="yes"/>
      <point x="281" y="0"/>
      <point x="300" y="16"/>
      <point x="315" y="70" type="curve"/>
      <point x="259" y="70" type="line"/>
      <point x="255" y="70"/>
      <point x="253" y="71"/>
      <point x="253" y="76" type="curve" smooth="yes"/>
      <point x="250" y="95"/>
      <point x="203" y="449"/>
      <point x="199" y="518" type="curve" smooth="yes"/>
      <point x="197" y="528"/>
      <point x="194" y="530"/>
    </contour>
    <contour>
      <point x="358" y="541" type="move" name="top"/>
    </contour>
  </outline>
</glyph>
<glyph name="z" format="1">
  <advance width="550"/>
  <unicode hex="007A"/>
  <outline>
    <contour>
      <point x="144" y="530" type="line"/>
      <point x="138" y="507"/>
      <point x="134" y="490"/>
      <point x="129" y="466" type="curve" smooth="yes"/>
      <point x="128" y="463"/>
      <point x="128" y="460"/>
      <point x="130" y="458" type="curve" smooth="yes"/>
      <point x="131" y="456"/>
      <point x="134" y="455"/>
      <point x="137" y="455" type="curve" smooth="yes"/>
      <point x="442" y="455" type="line" smooth="yes"/>
      <point x="473" y="455"/>
      <point x="507" y="454"/>
      <point x="531" y="458" type="curve"/>
      <point x="545" y="519" type="line" smooth="yes"/>
      <point x="546" y="522"/>
      <point x="546" y="525"/>
      <point x="544" y="527" type="curve" smooth="yes"/>
      <point x="543" y="529"/>
      <point x="540" y="530"/>
      <point x="537" y="530" type="curve" smooth="yes"/>
    </contour>
    <contour>
      <point x="455" y="486" type="curve"/>
      <point x="312" y="348"/>
      <point x="171" y="210"/>
      <point x="28" y="72" type="curve"/>
      <point x="16" y="28"/>
      <point x="82" y="26"/>
      <point x="113" y="55" type="curve" smooth="yes"/>
      <point x="271" y="204"/>
      <point x="531" y="457"/>
      <point x="531" y="458" type="curve"/>
      <point x="536" y="480"/>
      <point x="506" y="486"/>
    </contour>
    <contour>
      <point x="413" y="0" type="line"/>
      <point x="419" y="23"/>
      <point x="423" y="41"/>
      <point x="429" y="64" type="curve"/>
      <point x="430" y="70"/>
      <point x="427" y="75"/>
      <point x="421" y="75" type="curve" smooth="yes"/>
      <point x="120" y="75" type="line" smooth="yes"/>
      <point x="86" y="75"/>
      <point x="63" y="77"/>
      <point x="28" y="72" type="curve"/>
      <point x="12" y="12" type="line" smooth="yes"/>
      <point x="11" y="7"/>
      <point x="11" y="5"/>
      <point x="13" y="3" type="curve" smooth="yes"/>
      <point x="15" y="1"/>
      <point x="18" y="0"/>
      <point x="21" y="0" type="curve" smooth="yes"/>
    </contour>
    <contour>
      <point x="278" y="541" type="move" name="top"/>
    </contour>
  </outline>
</glyph>
<glyph name="braceleft" format="1">
  <advance width="500"/>
  <unicode hex="007B"/>
  <outline>
    <contour>
      <point x="423" y="681" type="curve" smooth="yes"/>
      <point x="482" y="681"/>
      <point x="508" y="681"/>
      <point x="562" y="681" type="curve"/>
      <point x="582" y="681" type="line"/>
      <point x="587" y="704"/>
      <point x="593" y="726"/>
      <point x="599" y="749" type="curve"/>
      <point x="600" y="756"/>
      <point x="597" y="760"/>
      <point x="590" y="760" type="curve" smooth="yes"/>
      <point x="420" y="760" type="line" smooth="yes"/>
      <point x="341" y="760"/>
      <point x="299" y="700"/>
      <point x="290" y="664" type="curve" smooth="yes"/>
      <point x="289" y="660" type="line" smooth="yes"/>
      <point x="287" y="650"/>
      <point x="294" y="648"/>
      <point x="361" y="633" type="curve"/>
      <point x="374" y="667"/>
      <point x="391" y="681"/>
    </contour>
    <contour>
      <point x="389" y="447" type="curve" smooth="yes"/>
      <point x="410" y="533"/>
      <point x="346" y="564"/>
      <point x="359" y="614" type="curve" smooth="yes"/>
      <point x="363" y="629"/>
      <point x="371" y="662"/>
      <point x="376" y="683" type="curve"/>
      <point x="297" y="674"/>
      <point x="292" y="670"/>
      <point x="290" y="664" type="curve" smooth="yes"/>
      <point x="278" y="614" type="line" smooth="yes"/>
      <point x="258" y="536"/>
      <point x="324" y="513"/>
      <point x="307" y="445" type="curve" smooth="yes"/>
      <point x="290" y="379"/>
      <point x="206" y="339"/>
      <point x="85" y="339" type="curve" smooth="yes"/>
      <point x="53" y="339" type="line"/>
      <point x="41" y="288" type="line" smooth="yes"/>
      <point x="38" y="280"/>
      <point x="44" y="274"/>
      <point x="53" y="274" type="curve" smooth="yes"/>
      <point x="69" y="274" type="line" smooth="yes"/>
      <point x="247" y="274"/>
      <point x="364" y="347"/>
    </contour>
    <contour>
      <point x="315" y="152" type="curve" smooth="yes"/>
      <point x="340" y="253"/>
      <point x="263" y="326"/>
      <point x="82" y="326" type="curve" smooth="yes"/>
      <point x="71" y="326"/>
      <point x="61" y="326"/>
      <point x="50" y="326" type="curve"/>
      <point x="36" y="272" type="line" smooth="yes"/>
      <point x="35" y="265"/>
      <point x="38" y="261"/>
      <point x="45" y="261" type="curve" smooth="yes"/>
      <point x="66" y="261" type="line" smooth="yes"/>
      <point x="186" y="261"/>
      <point x="250" y="218"/>
      <point x="234" y="153" type="curve" smooth="yes"/>
      <point x="217" y="85"/>
      <point x="140" y="63"/>
      <point x="120" y="-15" type="curve" smooth="yes"/>
      <point x="108" y="-65" type="line" smooth="yes"/>
      <point x="106" y="-70"/>
      <point x="111" y="-75"/>
      <point x="185" y="-81" type="curve"/>
      <point x="190" y="-59"/>
      <point x="196" y="-37"/>
      <point x="201" y="-15" type="curve" smooth="yes"/>
      <point x="214" y="35"/>
      <point x="293" y="66"/>
    </contour>
    <contour>
      <point x="233" y="-82" type="curve" smooth="yes"/>
      <point x="200" y="-82"/>
      <point x="190" y="-68"/>
      <point x="194" y="-34" type="curve"/>
      <point x="121" y="-49"/>
      <point x="111" y="-51"/>
      <point x="109" y="-61" type="curve" smooth="yes"/>
      <point x="108" y="-65" type="line" smooth="yes"/>
      <point x="99" y="-101"/>
      <point x="111" y="-161"/>
      <point x="190" y="-161" type="curve" smooth="yes"/>
      <point x="360" y="-161" type="line" smooth="yes"/>
      <point x="367" y="-161"/>
      <point x="372" y="-157"/>
      <point x="374" y="-150" type="curve"/>
      <point x="391" y="-82" type="line"/>
      <point x="371" y="-82" type="line"/>
      <point x="317" y="-82"/>
      <point x="291" y="-82"/>
    </contour>
  </outline>
</glyph>
<glyph name="bar" format="1">
  <advance width="300"/>
  <unicode hex="007C"/>
  <outline>
    <contour>
      <point x="232" y="760" type="curve"/>
      <point x="223" y="726"/>
      <point x="215" y="692"/>
      <point x="206" y="658" type="curve" smooth="yes"/>
      <point x="4" y="-150" type="line" smooth="yes"/>
      <point x="3" y="-156"/>
      <point x="6" y="-161"/>
      <point x="12" y="-161" type="curve" smooth="yes"/>
      <point x="37" y="-161"/>
      <point x="61" y="-161"/>
      <point x="86" y="-161" type="curve"/>
      <point x="313" y="749" type="line" smooth="yes"/>
      <point x="314" y="752"/>
      <point x="314" y="755"/>
      <point x="312" y="757" type="curve" smooth="yes"/>
      <point x="311" y="759"/>
      <point x="308" y="760"/>
      <point x="305" y="760" type="curve" smooth="yes"/>
      <point x="280" y="760"/>
      <point x="256" y="760"/>
    </contour>
  </outline>
</glyph>
<glyph name="braceright" format="1">
  <advance width="500"/>
  <unicode hex="007D"/>
  <outline>
    <contour>
      <point x="97" y="-70" type="curve" smooth="yes"/>
      <point x="39" y="-70"/>
      <point x="13" y="-70"/>
      <point x="-41" y="-70" type="curve"/>
      <point x="-61" y="-70" type="line"/>
      <point x="-67" y="-92"/>
      <point x="-73" y="-115"/>
      <point x="-78" y="-137" type="curve"/>
      <point x="-80" y="-144"/>
      <point x="-77" y="-148"/>
      <point x="-70" y="-148" type="curve" smooth="yes"/>
      <point x="100" y="-148" type="line" smooth="yes"/>
      <point x="179" y="-148"/>
      <point x="221" y="-89"/>
      <point x="230" y="-52" type="curve" smooth="yes"/>
      <point x="231" y="-48" type="line" smooth="yes"/>
      <point x="234" y="-39"/>
      <point x="226" y="-36"/>
      <point x="160" y="-21" type="curve"/>
      <point x="146" y="-56"/>
      <point x="129" y="-70"/>
    </contour>
    <contour>
      <point x="132" y="165" type="curve" smooth="yes"/>
      <point x="110" y="79"/>
      <point x="174" y="48"/>
      <point x="161" y="-3" type="curve" smooth="yes"/>
      <point x="158" y="-17"/>
      <point x="149" y="-51"/>
      <point x="144" y="-71" type="curve"/>
      <point x="224" y="-62"/>
      <point x="229" y="-58"/>
      <point x="230" y="-52" type="curve" smooth="yes"/>
      <point x="243" y="-2" type="line" smooth="yes"/>
      <point x="262" y="75"/>
      <point x="196" y="99"/>
      <point x="213" y="166" type="curve" smooth="yes"/>
      <point x="230" y="232"/>
      <point x="314" y="272"/>
      <point x="435" y="272" type="curve" smooth="yes"/>
      <point x="467" y="272" type="line"/>
      <point x="480" y="323" type="line" smooth="yes"/>
      <point x="482" y="332"/>
      <point x="476" y="338"/>
      <point x="467" y="338" type="curve" smooth="yes"/>
      <point x="451" y="338" type="line" smooth="yes"/>
      <point x="274" y="338"/>
      <point x="157" y="265"/>
    </contour>
    <contour>
      <point x="206" y="460" type="curve" smooth="yes"/>
      <point x="180" y="358"/>
      <point x="257" y="285"/>
      <point x="438" y="285" type="curve" smooth="yes"/>
      <point x="449" y="285"/>
      <point x="459" y="285"/>
      <point x="470" y="285" type="curve"/>
      <point x="484" y="340" type="line" smooth="yes"/>
      <point x="486" y="347"/>
      <point x="483" y="351"/>
      <point x="476" y="351" type="curve" smooth="yes"/>
      <point x="455" y="351" type="line" smooth="yes"/>
      <point x="334" y="351"/>
      <point x="270" y="393"/>
      <point x="286" y="459" type="curve" smooth="yes"/>
      <point x="303" y="526"/>
      <point x="381" y="549"/>
      <point x="400" y="626" type="curve" smooth="yes"/>
      <point x="413" y="676" type="line" smooth="yes"/>
      <point x="414" y="682"/>
      <point x="410" y="686"/>
      <point x="335" y="693" type="curve"/>
      <point x="330" y="671"/>
      <point x="324" y="648"/>
      <point x="319" y="627" type="curve" smooth="yes"/>
      <point x="306" y="577"/>
      <point x="227" y="546"/>
    </contour>
    <contour>
      <point x="288" y="694" type="curve" smooth="yes"/>
      <point x="320" y="694"/>
      <point x="330" y="680"/>
      <point x="326" y="645" type="curve"/>
      <point x="399" y="660"/>
      <point x="409" y="663"/>
      <point x="412" y="672" type="curve" smooth="yes"/>
      <point x="413" y="676" type="line" smooth="yes"/>
      <point x="422" y="713"/>
      <point x="410" y="773"/>
      <point x="330" y="773" type="curve" smooth="yes"/>
      <point x="160" y="773" type="line" smooth="yes"/>
      <point x="153" y="773"/>
      <point x="148" y="769"/>
      <point x="147" y="762" type="curve"/>
      <point x="130" y="694" type="line"/>
      <point x="150" y="694" type="line"/>
      <point x="203" y="694"/>
      <point x="230" y="694"/>
    </contour>
  </outline>
</glyph>
<glyph name="exclamdown" format="1">
  <advance width="400"/>
  <unicode hex="00A1"/>
  <outline>
    <contour>
      <point x="170" y="275" type="line"/>
      <point x="143" y="193"/>
      <point x="116" y="110"/>
      <point x="89" y="28" type="curve"/>
      <point x="42" y="-159" type="line" smooth="yes"/>
      <point x="40" y="-166"/>
      <point x="43" y="-170"/>
      <point x="49" y="-170" type="curve" smooth="yes"/>
      <point x="86" y="-170"/>
      <point x="117" y="-170"/>
      <point x="143" y="-170" type="curve"/>
      <point x="153" y="-132"/>
      <point x="162" y="-97"/>
      <point x="171" y="-60" type="curve" smooth="yes"/>
      <point x="193" y="28" type="line"/>
      <point x="234" y="262"/>
      <point x="234" y="268"/>
      <point x="231" y="272" type="curve" smooth="yes"/>
      <point x="229" y="274"/>
      <point x="228" y="275"/>
      <point x="224" y="275" type="curve"/>
    </contour>
    <contour>
      <point x="194" y="537" type="curve"/>
      <point x="161" y="403" type="line" smooth="yes"/>
      <point x="159" y="397"/>
      <point x="163" y="392"/>
      <point x="169" y="392" type="curve" smooth="yes"/>
      <point x="209" y="392"/>
      <point x="265" y="392"/>
      <point x="306" y="392" type="curve"/>
      <point x="339" y="526" type="line" smooth="yes"/>
      <point x="341" y="532"/>
      <point x="337" y="537"/>
      <point x="331" y="537" type="curve" smooth="yes"/>
      <point x="291" y="537"/>
      <point x="234" y="537"/>
    </contour>
  </outline>
</glyph>
<glyph name="cent" format="1">
  <advance width="600"/>
  <unicode hex="00A2"/>
  <outline>
    <contour>
      <point x="396" y="397" type="line"/>
      <point x="523" y="757" type="line" smooth="yes"/>
      <point x="526" y="766"/>
      <point x="522" y="770"/>
      <point x="516" y="770" type="curve" smooth="yes"/>
      <point x="484" y="770"/>
      <point x="470" y="770"/>
      <point x="438" y="770" type="curve"/>
      <point x="431" y="741"/>
      <point x="424" y="711"/>
      <point x="416" y="681" type="curve"/>
      <point x="351" y="420" type="line" smooth="yes"/>
      <point x="349" y="412"/>
      <point x="352" y="408"/>
      <point x="358" y="407" type="curve" smooth="yes"/>
    </contour>
    <contour>
      <point x="322" y="303" type="line"/>
      <point x="195" y="-57" type="line" smooth="yes"/>
      <point x="192" y="-66"/>
      <point x="196" y="-70"/>
      <point x="202" y="-70" type="curve" smooth="yes"/>
      <point x="234" y="-70"/>
      <point x="247" y="-70"/>
      <point x="279" y="-70" type="curve"/>
      <point x="287" y="-40"/>
      <point x="294" y="-11"/>
      <point x="302" y="19" type="curve"/>
      <point x="367" y="280" type="line" smooth="yes"/>
      <point x="369" y="288"/>
      <point x="366" y="292"/>
      <point x="360" y="294" type="curve" smooth="yes"/>
    </contour>
    <contour>
      <point x="429" y="627" type="curve" smooth="yes"/>
      <point x="284" y="627"/>
      <point x="157" y="543"/>
      <point x="119" y="391" type="curve" smooth="yes"/>
      <point x="98" y="307" type="line" smooth="yes"/>
      <point x="61" y="158"/>
      <point x="128" y="76"/>
      <point x="288" y="76" type="curve" smooth="yes"/>
      <point x="297" y="76"/>
      <point x="311" y="95"/>
      <point x="307" y="155" type="curve"/>
      <point x="196" y="155"/>
      <point x="156" y="208"/>
      <point x="183" y="314" type="curve" smooth="yes"/>
      <point x="201" y="384" type="line" smooth="yes"/>
      <point x="228" y="495"/>
      <point x="299" y="548"/>
      <point x="409" y="548" type="curve" smooth="yes"/>
      <point x="472" y="548"/>
      <point x="510" y="532"/>
      <point x="549" y="506" type="curve"/>
      <point x="564" y="506" type="line"/>
      <point x="569" y="526"/>
      <point x="574" y="548"/>
      <point x="580" y="573" type="curve" smooth="yes"/>
      <point x="582" y="577"/>
      <point x="581" y="580"/>
      <point x="579" y="584" type="curve" smooth="yes"/>
      <point x="567" y="600"/>
      <point x="517" y="627"/>
    </contour>
    <contour>
      <point x="140" y="236" type="curve"/>
      <point x="97" y="146"/>
      <point x="157" y="76"/>
      <point x="288" y="76" type="curve" smooth="yes"/>
      <point x="368" y="76"/>
      <point x="438" y="98"/>
      <point x="464" y="119" type="curve" smooth="yes"/>
      <point x="467" y="121"/>
      <point x="468" y="124"/>
      <point x="469" y="127" type="curve"/>
      <point x="475" y="150"/>
      <point x="481" y="173"/>
      <point x="486" y="196" type="curve"/>
      <point x="472" y="196" type="line"/>
      <point x="417" y="170"/>
      <point x="372" y="155"/>
      <point x="307" y="155" type="curve" smooth="yes"/>
      <point x="217" y="155"/>
      <point x="177" y="182"/>
    </contour>
  </outline>
</glyph>
<glyph name="sterling" format="1">
  <advance width="600"/>
  <unicode hex="00A3"/>
  <outline>
    <contour>
      <point x="458" y="641" type="curve" smooth="yes"/>
      <point x="517" y="641"/>
      <point x="548" y="625"/>
      <point x="587" y="592" type="curve"/>
      <point x="601" y="592" type="line"/>
      <point x="605" y="609"/>
      <point x="611" y="634"/>
      <point x="619" y="665" type="curve" smooth="yes"/>
      <point x="620" y="669"/>
      <point x="620" y="671"/>
      <point x="618" y="673" type="curve" smooth="yes"/>
      <point x="601" y="696"/>
      <point x="552" y="720"/>
      <point x="477" y="720" type="curve" smooth="yes"/>
      <point x="344" y="720"/>
      <point x="253" y="639"/>
      <point x="229" y="544" type="curve" smooth="yes"/>
      <point x="224" y="525" type="line" smooth="yes"/>
      <point x="220" y="509"/>
      <point x="232" y="509"/>
      <point x="307" y="531" type="curve"/>
      <point x="325" y="603"/>
      <point x="376" y="641"/>
    </contour>
    <contour>
      <point x="224" y="525" type="curve" smooth="yes"/>
      <point x="194" y="404"/>
      <point x="169" y="306"/>
      <point x="137" y="178" type="curve" smooth="yes"/>
      <point x="121" y="111"/>
      <point x="71" y="74"/>
      <point x="16" y="74" type="curve" smooth="yes"/>
      <point x="11" y="74"/>
      <point x="7" y="74"/>
      <point x="3" y="74" type="curve"/>
      <point x="-1" y="74" type="line"/>
      <point x="-6" y="53"/>
      <point x="-10" y="36"/>
      <point x="-17" y="11" type="curve" smooth="yes"/>
      <point x="-19" y="3"/>
      <point x="-15" y="0"/>
      <point x="-8" y="0" type="curve" smooth="yes"/>
      <point x="-3" y="0" type="line" smooth="yes"/>
      <point x="95" y="0"/>
      <point x="188" y="56"/>
      <point x="222" y="191" type="curve" smooth="yes"/>
      <point x="252" y="311"/>
      <point x="279" y="419"/>
      <point x="307" y="531" type="curve" smooth="yes"/>
      <point x="313" y="556"/>
      <point x="319" y="580"/>
      <point x="325" y="604" type="curve"/>
      <point x="280" y="604"/>
      <point x="237" y="575"/>
    </contour>
    <contour>
      <point x="-3" y="0" type="curve"/>
      <point x="169" y="0"/>
      <point x="271" y="0"/>
      <point x="401" y="0" type="curve" smooth="yes"/>
      <point x="466" y="0" type="line" smooth="yes"/>
      <point x="474" y="0"/>
      <point x="478" y="3"/>
      <point x="480" y="11" type="curve"/>
      <point x="485" y="32"/>
      <point x="490" y="53"/>
      <point x="495" y="74" type="curve"/>
      <point x="475" y="74" type="line"/>
      <point x="451" y="74"/>
      <point x="433" y="74"/>
      <point x="403" y="74" type="curve" smooth="yes"/>
      <point x="304" y="74"/>
      <point x="233" y="74"/>
      <point x="83" y="74" type="curve"/>
      <point x="-7" y="6"/>
      <point x="-8" y="0"/>
    </contour>
    <contour>
      <point x="96" y="383" type="line"/>
      <point x="91" y="361"/>
      <point x="88" y="352"/>
      <point x="83" y="330" type="curve" smooth="yes"/>
      <point x="82" y="327"/>
      <point x="82" y="324"/>
      <point x="84" y="322" type="curve" smooth="yes"/>
      <point x="85" y="320"/>
      <point x="88" y="319"/>
      <point x="91" y="319" type="curve" smooth="yes"/>
      <point x="463" y="319" type="line"/>
      <point x="469" y="341"/>
      <point x="471" y="350"/>
      <point x="477" y="372" type="curve" smooth="yes"/>
      <point x="478" y="378"/>
      <point x="474" y="383"/>
      <point x="468" y="383" type="curve" smooth="yes"/>
    </contour>
  </outline>
</glyph>
<glyph name="brokenbar" format="1">
  <advance width="300"/>
  <unicode hex="00A6"/>
  <outline>
    <contour>
      <point x="232" y="760" type="curve"/>
      <point x="223" y="727"/>
      <point x="215" y="694"/>
      <point x="207" y="661" type="curve" smooth="yes"/>
      <point x="137" y="380" type="line" smooth="yes"/>
      <point x="135" y="374"/>
      <point x="139" y="369"/>
      <point x="145" y="369" type="curve" smooth="yes"/>
      <point x="169" y="369"/>
      <point x="193" y="369"/>
      <point x="218" y="369" type="curve"/>
      <point x="313" y="749" type="line" smooth="yes"/>
      <point x="314" y="752"/>
      <point x="314" y="755"/>
      <point x="312" y="757" type="curve" smooth="yes"/>
      <point x="311" y="759"/>
      <point x="308" y="760"/>
      <point x="305" y="760" type="curve" smooth="yes"/>
      <point x="280" y="760"/>
      <point x="256" y="760"/>
    </contour>
    <contour>
      <point x="99" y="231" type="curve"/>
      <point x="4" y="-149" type="line"/>
      <point x="3" y="-155"/>
      <point x="6" y="-160"/>
      <point x="12" y="-160" type="curve" smooth="yes"/>
      <point x="37" y="-160"/>
      <point x="61" y="-160"/>
      <point x="86" y="-160" type="curve"/>
      <point x="181" y="220" type="line" smooth="yes"/>
      <point x="183" y="227"/>
      <point x="180" y="231"/>
      <point x="173" y="231" type="curve" smooth="yes"/>
      <point x="148" y="231"/>
      <point x="124" y="231"/>
    </contour>
  </outline>
</glyph>
